<?xml version="1.0" encoding="utf-8"?>
<!-- Generator: Adobe Illustrator 15.0.0, SVG Export Plug-In . SVG Version: 6.00 Build 0)  -->
<!DOCTYPE svg PUBLIC "-//W3C//DTD SVG 1.1//EN" "http://www.w3.org/Graphics/SVG/1.1/DTD/svg11.dtd">
<svg version="1.1" id="Layer_1" xmlns="http://www.w3.org/2000/svg" xmlns:xlink="http://www.w3.org/1999/xlink" x="0px" y="0px"
	 width="100px" height="100px" viewBox="0 0 100 100" enable-background="new 0 0 100 100" xml:space="preserve">
<g>
	<path fill="none" stroke="#222220" stroke-width="4" stroke-miterlimit="10" d="M96.257,53.801c-0.601-1.2-2-2-2-3.601
		c0-1.6,1.399-2.4,2-3.6c0.199-0.6,0.199-1.4-0.2-1.8c-0.8-1.2-2.4-1.6-2.8-3.2c-0.4-1.6,1-2.6,1.199-4c0.2-0.6,0-1.4-0.6-1.8
		c-1-1-2.6-1.2-3.2-2.6c-0.6-1.4,0.4-2.8,0.4-4.2c0-0.6-0.4-1.4-0.8-1.6c-1.2-0.8-2.801-0.6-3.801-1.8c-0.8-1.2-0.199-2.8-0.399-4.2
		c0-0.6-0.601-1.2-1.2-1.4c-1.4-0.4-3,0-4-1.2c-1-1-0.6-2.6-1.2-4c0.2-0.4-0.399-1-1-1c-1.399-0.2-2.8,0.6-4.2-0.4
		c-1.199-0.8-1.199-2.4-1.8-3.8c-0.399-0.6-1-1-1.6-0.8c-1.4,0-2.8,1-4.2,0.4c-1.4-0.6-1.6-2.2-2.6-3.2c-0.4-0.4-1.2-0.6-1.801-0.6
		c-1.399,0.4-2.399,1.6-4,1.2c-1.6-0.4-2-1.8-3.199-2.6c-0.4-0.4-1.2-0.4-1.801-0.2c-1.199,0.6-2,2-3.6,2c-1.6,0-2.4-1.4-3.6-2
		c-0.6-0.2-1.4-0.2-1.8,0.2c-1.2,0.8-1.6,2.4-3.2,2.8s-2.6-1-4-1.2c-0.6-0.2-1.4,0-1.8,0.6c-1,1-1.2,2.8-2.6,3.4
		c-1.4,0.6-2.8-0.4-4.2-0.6c-0.6,0-1.4,0.4-1.6,0.8c-0.8,1.2-0.6,2.8-1.8,3.8c-1.4,0.8-2.8,0-4.2,0.2c-0.6,0-1.2,0.6-1.4,1.2
		c-0.4,1.4,0,3-1.2,4c-1,1.2-2.6,0.6-4,1.2c-0.6,0.2-1,0.8-1.2,1.4c-0.2,1.4,0.6,2.8-0.2,4.2c-0.8,1.4-2.6,1.2-3.8,1.8
		c-0.6,0.2-0.8,1-0.8,1.6c0.2,1.4,1.2,2.8,0.6,4.2c-0.6,1.4-2.2,1.6-3.4,2.6c-0.4,0.4-0.6,1-0.4,1.6c0.4,1.4,1.6,2.4,1.4,4
		c-0.4,1.6-2,2-2.8,3.2c-0.4,0.4-0.4,1.2-0.2,1.6c0.6,1.4,2,2,2.2,3.6c0,1.6-1.4,2.4-2.2,3.601c-0.2,0.6-0.2,1.199,0.2,1.6
		c1,1.199,2.4,1.6,2.8,3.199v0.201c0.2,1.398-1,2.6-1.4,4c-0.2,0.6,0,1.199,0.4,1.6c1.2,1,2.8,1.199,3.4,2.6c0,0,0,0.199,0.2,0.199
		c0.4,1.4-0.6,2.602-0.6,4.201c0,0.6,0.4,1.199,0.8,1.4c1.2,0.799,3,0.6,3.8,1.799c0,0,0,0.201,0.2,0.201
		c0.8,1.398,0,2.799,0.2,4.199c0,0.6,0.6,1,1,1.199c1.4,0.4,3,0,4,1l0.2,0.201c1,1.199,0.6,2.799,1,4.199c0.2,0.6,0.8,1,1.2,1
		c1.4,0.201,2.8-0.6,4.2,0.201c0,0,0.2,0,0.2,0.199c1.2,1,1.2,2.6,1.8,3.801c0.2,0.398,1,0.799,1.4,0.799
		c1.4-0.199,2.8-1.199,4.2-0.6h0.2c1.4,0.6,1.6,2.199,2.6,3.4c0.4,0.4,1,0.6,1.6,0.4c1.4-0.4,2.4-1.602,4-1.4h0.2
		c1.6,0.4,2,2,3.2,2.799c0.4,0.4,1.2,0.4,1.6,0.201c1.2-0.6,2-2,3.6-2.201h0.2c1.6,0,2.399,1.4,3.6,2.201
		c0.601,0.199,1.2,0.199,1.601-0.201c1.199-1,1.6-2.6,3.199-2.799h0.2c1.601-0.201,2.601,1,4,1.4c0.601,0.199,1.2,0,1.601-0.4
		c1-1.201,1.199-2.801,2.6-3.4s2.8,0.4,4.2,0.6c0.6,0,1.2-0.4,1.6-0.799c0.8-1.201,0.601-3,1.8-3.801c1.4-0.801,2.801-0.199,4.2-0.4
		c0.601,0,1.2-0.6,1.4-1.199c0.399-1.4,0-3,1.2-4c1.199-1.201,2.6-0.6,4-1.201c0.6-0.199,1-0.799,1.199-1.398
		c0.2-1.4-0.6-2.801,0.4-4.201c0.8-1.4,2.6-1.199,3.8-1.799c0.601-0.4,0.8-1,0.8-1.602c0-1.398-1.199-2.799-0.6-4.199
		s2.2-1.6,3.4-2.6c0.399-0.4,0.6-1.201,0.399-1.801c-0.399-1.4-1.6-2.4-1.399-4c0.399-1.6,1.8-2,2.8-3.199
		C96.456,55.201,96.656,54.4,96.257,53.801L96.257,53.801z"/>
	<circle fill="none" stroke="#222220" stroke-width="4" stroke-miterlimit="10" cx="49.856" cy="50.4" r="36.6"/>
	<g>
		<path fill="none" stroke="#222220" stroke-width="4" stroke-linejoin="round" stroke-miterlimit="10" d="M49.856,46V13.8"/>
		<path fill="none" stroke="#222220" stroke-width="4" stroke-linejoin="round" stroke-miterlimit="10" d="M47.656,46.601l-16.2-28"
			/>
		<path fill="none" stroke="#222220" stroke-width="4" stroke-linejoin="round" stroke-miterlimit="10" d="M46.057,48.2l-28-16.2"/>
		<path fill="none" stroke="#222220" stroke-width="4" stroke-linejoin="round" stroke-miterlimit="10" d="M45.457,50.4h-32.2"/>
		<path fill="none" stroke="#222220" stroke-width="4" stroke-linejoin="round" stroke-miterlimit="10" d="M46.057,52.601l-28,16.2"
			/>
		<path fill="none" stroke="#222220" stroke-width="4" stroke-linejoin="round" stroke-miterlimit="10" d="M47.656,54.201l-16.2,28"
			/>
		<path fill="none" stroke="#222220" stroke-width="4" stroke-linejoin="round" stroke-miterlimit="10" d="M49.856,54.801V87"/>
		<path fill="none" stroke="#222220" stroke-width="4" stroke-linejoin="round" stroke-miterlimit="10" d="M52.057,54.201l16.2,28"
			/>
		<path fill="none" stroke="#222220" stroke-width="4" stroke-linejoin="round" stroke-miterlimit="10" d="M53.656,52.601l28,16.2"
			/>
		<path fill="none" stroke="#222220" stroke-width="4" stroke-linejoin="round" stroke-miterlimit="10" d="M54.257,50.4h32.199"/>
		<path fill="none" stroke="#222220" stroke-width="4" stroke-linejoin="round" stroke-miterlimit="10" d="M53.656,48.2l28-16.2"/>
		<path fill="none" stroke="#222220" stroke-width="4" stroke-linejoin="round" stroke-miterlimit="10" d="M52.057,46.601l16.2-28"
			/>
		
			<circle fill="none" stroke="#222220" stroke-width="4" stroke-linejoin="round" stroke-miterlimit="10" cx="49.856" cy="50.4" r="6.6"/>
	</g>
</g>
</svg>
