<svg enable-background="new 0 0 50 50" viewBox="0 0 50 50" xmlns="http://www.w3.org/2000/svg" xmlns:xlink="http://www.w3.org/1999/xlink"><linearGradient id="a" gradientUnits="userSpaceOnUse" x1="4.3645" x2="45.6759" y1="46.9218" y2="46.9218"><stop offset="0" stop-color="#fff"/><stop offset="1"/></linearGradient><g stroke="#222220" stroke-miterlimit="10" stroke-width="2.582"><g stroke-linecap="round" stroke-linejoin="round"><path d="m40.5 29.9v-26.8" fill="none"/><path d="m40.5 3.1-5.2 5.1" fill="none"/><path d="m40.5 3.1 5.2 5.1" fill="none"/><path d="m40.5 10.8-5.2 5.2" fill="none"/><path d="m40.5 10.8 5.2 5.2" fill="none"/><path d="m40.5 18.6-5.2 5.1" fill="none"/><path d="m40.5 18.6 5.2 5.1" fill="none"/><path d="m13.1 11.9c-2 0-3.6-1.6-3.6-3.6s1.6-3.6 3.6-3.6c-.9-.9-2.2-1.5-3.6-1.5-2.8 0-5.1 2.3-5.1 5.1s2.3 5.1 5.1 5.1c1.4 0 2.7-.6 3.6-1.5z" fill="none"/><path d="m4.4 46.9h41.3" fill="url(#a)"/><path d="m25 31.6v15.3" fill="none"/><path d="m25 31.4-12.9 15.5" fill="none"/><path d="m25 31.4 12.9 15.5" fill="none"/></g><path d="m4.3 46.9c0-14.3 9.3-25.9 20.7-25.9" fill="none"/><path d="m45.7 46.9c0-14.3-9.3-25.9-20.7-25.9" fill="none"/><path d="m4.4 46.9-2.7-2.6" fill="none" stroke-linecap="round" stroke-linejoin="round"/><path d="m45.6 46.9 2.7-2.6" fill="none" stroke-linecap="round" stroke-linejoin="round"/></g></svg>