<?xml version="1.0" encoding="utf-8"?>
<!-- Generator: Adobe Illustrator 21.0.0, SVG Export Plug-In . SVG Version: 6.00 Build 0)  -->
<svg version="1.1" id="Layer_2" xmlns="http://www.w3.org/2000/svg" xmlns:xlink="http://www.w3.org/1999/xlink" x="0px" y="0px"
	 viewBox="0 0 2212.9 700" style="enable-background:new 0 0 2212.9 700;" xml:space="preserve">
<style type="text/css">
	.st0{fill:#FFFFFF;}
</style>
<g>
	<rect x="1845.9" y="249.9" class="st0" width="24.2" height="272.1"/>
	<rect x="1190.4" y="23.4" class="st0" width="24.2" height="498.7"/>
	<polygon class="st0" points="707.6,274.2 645.9,274.2 645.9,253.4 707.6,253.4 707.6,103.7 731.9,103.7 731.9,253.4 797.5,253.4 
		797.5,274.2 731.9,274.2 731.9,522.1 707.6,522.1 	"/>
	<polygon class="st0" points="1417.4,469.6 1508.2,257.6 1533.3,257.6 1349.2,687.6 1324.1,687.6 1405.2,498 1295.6,257.6 
		1322.2,257.6 	"/>
	<circle class="st0" cx="1857.9" cy="128.4" r="20.3"/>
	<path class="st0" d="M257.4,478.4l-17.2-14.7c-20.9,23.5-52.8,37.4-88.5,37.4c-63.2,0-105.3-52-105.3-115.3s42.2-113.7,105.3-113.7
		c34.2,0,60.8,10.5,80.2,32.5l0,0l17.4-14.9l0,0c-23.7-25.2-55.7-38.5-93.1-38.5C72.2,251.2,22,315,22,386.7
		c0,72.4,51.1,135.4,134.4,135.4C198.3,522.1,233.4,505.1,257.4,478.4z"/>
	<path class="st0" d="M561.3,255.6h24.9v260.5h-24.8l0.6-64.7c-20.5,42.5-63.6,69.8-109.7,69.8c-80,0-129.1-65.6-129.1-135.4
		c0-73,48.3-135.4,129.1-135.4c49.9,0,88.4,25,109.7,70.3L561.3,255.6z M453.6,272.4c-62.5,0-104.3,48.7-104.3,112.5
		c0,64.8,41.7,114,104.3,114c77.8,0,109.6-61.8,109-114.4C559.2,312.9,513.9,272.4,453.6,272.4z"/>
	<path class="st0" d="M1070.5,255.6h24.8v260.5h-24.8l0.6-64.7c-20.5,42.5-63.6,69.8-109.7,69.8c-80,0-129.1-65.6-129.1-135.4
		c0-73,48.3-135.4,129.1-135.4c49.9,0,88.4,25,109.7,70.3L1070.5,255.6z M962.7,272.4c-62.5,0-104.3,48.7-104.3,112.5
		c0,64.8,41.7,114,104.3,114c77.8,0,109.6-61.8,109-114.4C1068.2,312.9,1023,272.4,962.7,272.4z"/>
	<path class="st0" d="M1568.2,458.1c13.7,29.2,39.5,64,106.2,64c19,0,86.7-4.1,89.3-71.3c0.4-29.4-12.4-58.1-74.1-77.7
		c-48.3-16.9-80.2-22.1-80.2-59.9c0,0-1.1-42,56.5-40.9c31.3,0.6,48.2,18.6,57.2,34.8l0,0l20.3-10.5l0,0
		c-19-38.2-55.5-45.5-80.7-45.5c-57.9,0.8-77.7,36.8-76.7,64.9c0,51.1,51.3,63.3,84.2,75c68,20.9,69.2,45,69.2,59.9
		c-2,52.9-65.6,50.3-65.6,50.3c-67.3-0.2-84.4-52-84.4-52L1568.2,458.1z"/>
	<path class="st0" d="M1948,458.1c13.7,29.2,39.5,64,106.2,64c19,0,86.7-4.1,89.3-71.3c0.4-29.4-12.4-58.1-74.1-77.7
		c-48.3-16.9-80.2-22.1-80.2-59.9c0,0-1.1-42,56.5-40.9c31.3,0.6,48.2,18.6,57.2,34.8l0,0l20.3-10.5l0,0
		c-19-38.2-55.5-45.5-80.7-45.5c-57.9,0.8-77.7,36.8-76.7,64.9c0,51.1,51.3,63.3,84.2,75c68,20.9,69.2,45,69.2,59.9
		c-2,52.9-65.6,50.3-65.6,50.3c-67.3-0.2-84.4-52-84.4-52L1948,458.1z"/>
	<path class="st0" d="M2167,310.1c-6,0-11.2-2.1-15.4-6.3c-4.3-4.3-6.3-9.3-6.3-15.3c0-6.1,2.1-11.3,6.4-15.4
		c4.3-4.3,9.4-6.3,15.3-6.3c6,0,11.2,2.1,15.4,6.3c4.3,4.3,6.4,9.3,6.4,15.3s-2.1,11.2-6.3,15.4
		C2178.3,308.1,2173.1,310.1,2167,310.1z M2166.9,269.6c-5.1,0-9.4,1.8-13.1,5.6c-3.6,3.6-5.4,8.2-5.4,13.3c0,5.1,1.8,9.5,5.4,13.2
		c3.5,3.6,7.9,5.5,13.1,5.5c5.1,0,9.7-1.8,13.3-5.5c3.6-3.6,5.5-8,5.5-13.2c0-5.1-1.8-9.7-5.5-13.3
		C2176.5,271.4,2172.1,269.6,2166.9,269.6z M2172.7,300.1l-2.7-5.6c-0.8-1.7-1.5-2.8-2.3-3.4c-0.8-0.6-1.6-0.9-2.5-0.9h-2v9.9h-2.9
		v-22.8h6.7c2.6,0,4.5,0.5,6,1.6c1.5,1.1,2.1,2.6,2.1,4.4c0,3.5-2,5.6-6,6.3v0.1c1.2,0.3,2.4,1.6,3.8,4.2l3,6.3h-3.2V300.1z
		 M2163.1,279.6v8.2h3.9c1.5,0,2.8-0.3,3.8-1.1c1-0.6,1.4-1.7,1.4-3.1c0-2.7-1.9-4.1-5.7-4.1h-3.3V279.6z"/>
</g>
</svg>
