<svg enable-background="new 0 0 50 50" viewBox="0 0 50 50" xmlns="http://www.w3.org/2000/svg"><path d="m36.1 35c0 5.4-4 9.9-9 9.9-4.2 0-7.8-3-8.9-7.2l-5.1-20c-.8-3.2-.1-6.5 1.8-9 1.7-2.2 4.2-3.5 6.9-3.5h5.3c4.6 0 8.3 3.7 8.9 8.6h2.3c-.6-6.2-5.4-11-11.2-11h-5.3c-3.4 0-6.6 1.6-8.7 4.4-2.4 3.1-3.2 7.2-2.2 11.1l5.1 20c1.4 5.3 5.9 9 10.9 9h.2c6.3 0 11.3-5.5 11.3-12.2v-.3h-2.3z" fill="none"/><path d="m38.4 35c0 6.7-5.1 12.2-11.3 12.2h-.2c-5.1 0-9.6-3.7-10.9-9l-5.1-20c-1-3.9-.2-8 2.2-11.1 2.2-2.8 5.3-4.4 8.7-4.4h5.3c5.8 0 10.6 4.8 11.2 10.9l2.5.7-.1-.7c-.6-7.3-6.5-13.1-13.6-13.1h-5.3c-4.1 0-8 1.9-10.6 5.3-2.8 3.6-3.8 8.5-2.6 13.1l5.1 20c1.6 6.3 7 10.7 13.2 10.7h.2c7.5 0 13.7-6.5 13.7-14.5v-.9l-2.3.7v.1z" fill="#222220"/><path d="m33.7 35c0 4.1-3 7.5-6.9 7.5-3 0-5.6-2.2-6.4-5.4l-5.1-20c-.6-2.5-.1-5.1 1.4-7 1.3-1.7 3.1-2.6 5-2.6h5.3c3.3 0 6 2.7 6.6 6.2 0 0 .1.8.1.8l2.2-.8c-.6-4.8-4.3-8.6-8.9-8.6h-5.3c-2.7 0-5.1 1.2-6.9 3.5-1.9 2.5-2.6 5.9-1.8 9l5.1 20c1.1 4.2 4.7 7.2 8.9 7.2 5 0 9-4.4 9-9.9v-.3l-2.3-1.5z" fill="#222220"/><path d="m36.1 24.2h2.3" style="fill:none;stroke:#222220;stroke-width:2.3333;stroke-linecap:round;stroke-linejoin:round;stroke-miterlimit:10"/><path d="m40.7 28.9h-7c-.6 0-1.2-.5-1.2-1.2v-7c0-.6.5-1.2 1.2-1.2h7c.6 0 1.2.5 1.2 1.2v7c0 .7-.5 1.2-1.2 1.2z" style="fill:none;stroke:#222220;stroke-width:2.3333;stroke-linecap:round;stroke-linejoin:round;stroke-miterlimit:10"/><g fill="#222220"><path d="m39.6 20.7h-4.7c-1.3 0-2.3-.2-2.3-1.4v-3.2c0-1.3 1-2.3 2.3-2.3h4.7c1.3 0 2.3 1 2.3 2.3v3.2c0 1.3-1 1.4-2.3 1.4zm-4.7-4.6v2.3h4.7v-2.3z"/><path d="m39.6 34.7h-4.7c-1.3 0-2.3-1-2.3-2.3v-3.2c0-1.3 1-1.5 2.3-1.5h4.7c1.3 0 2.3.2 2.3 1.5v3.2c0 1.3-1 2.3-2.3 2.3zm-4.7-4.6v2.3h4.7v-2.3z"/></g></svg>