<?xml version="1.0" encoding="utf-8"?>
<!-- Generator: Adobe Illustrator 15.0.0, SVG Export Plug-In . SVG Version: 6.00 Build 0)  -->
<!DOCTYPE svg PUBLIC "-//W3C//DTD SVG 1.1//EN" "http://www.w3.org/Graphics/SVG/1.1/DTD/svg11.dtd">
<svg version="1.1" id="Layer_1" xmlns="http://www.w3.org/2000/svg" xmlns:xlink="http://www.w3.org/1999/xlink" x="0px" y="0px"
	 width="100px" height="100px" viewBox="0 0 100 100" enable-background="new 0 0 100 100" xml:space="preserve">
<path fill="none" stroke="#222220" stroke-width="4" stroke-miterlimit="10" d="M34.314,22.194c0,0-0.483,0-6.167,0
	c-5.682,0-6.01,6.012-6.01,6.012v3.435c0,1.145-0.76,7.658-3.516,11.463c-2.739,3.782-6.167,4.396-6.167,8.074
	c0,2.908-0.048,12.04-0.048,12.04v24.099c0,6.961,2.432,8.682,7.851,8.682h17.294h25.146h17.294c5.422,0,7.852-1.721,7.852-8.682
	V63.22c0,0-0.05-9.132-0.05-12.04c0-3.677-3.427-4.293-6.164-8.074c-2.756-3.806-3.518-10.318-3.518-11.463v-3.435
	c0,0-0.326-6.012-6.011-6.012s-6.129,0-6.129,0"/>
<path fill="none" stroke="#222220" stroke-width="4" stroke-miterlimit="10" d="M66.377,22.816c0,4.242-2.255,7.681-7.451,7.681
	H41.345c-5.201,0-7.453-3.438-7.453-7.681V11.68C33.892,7.438,36.145,4,41.345,4h17.581c5.198,0,7.451,3.438,7.451,7.681V22.816z"/>
<path fill="none" stroke="#222220" stroke-width="4" stroke-miterlimit="10" d="M65.973,8.779c-0.848,2.824-3.099,4.817-7.06,4.817
	H41.335c-3.9,0-6.143-1.934-7.021-4.691"/>
<line fill="none" stroke="#222220" stroke-width="4" stroke-miterlimit="10" x1="14.871" y1="46.864" x2="85.372" y2="46.864"/>
<line fill="none" stroke="#222220" stroke-width="4" stroke-miterlimit="10" x1="47.607" y1="13.597" x2="47.607" y2="96"/>
<line fill="none" stroke="#222220" stroke-width="4" stroke-miterlimit="10" x1="65.03" y1="63.22" x2="81.48" y2="79.672"/>
<line fill="none" stroke="#222220" stroke-width="4" stroke-miterlimit="10" x1="87.842" y1="63.22" x2="12.407" y2="63.22"/>
<line fill="none" stroke="#222220" stroke-width="4" stroke-miterlimit="10" x1="34.974" y1="63.22" x2="18.523" y2="79.672"/>
<line fill="none" stroke="#222220" stroke-width="4" stroke-miterlimit="10" x1="12.158" y1="79.672" x2="87.842" y2="79.672"/>
<line fill="none" stroke="#222220" stroke-width="4" stroke-linecap="round" stroke-miterlimit="10" x1="50" y1="21.664" x2="53.496" y2="21.664"/>
<line fill="none" stroke="#222220" stroke-width="4" stroke-linecap="round" stroke-miterlimit="10" x1="50" y1="38.51" x2="53.496" y2="38.51"/>
<line fill="none" stroke="#222220" stroke-width="4" stroke-linecap="round" stroke-miterlimit="10" x1="50" y1="54.801" x2="53.496" y2="54.801"/>
<line fill="none" stroke="#222220" stroke-width="4" stroke-linecap="round" stroke-miterlimit="10" x1="50" y1="71.446" x2="53.496" y2="71.446"/>
<line fill="none" stroke="#222220" stroke-width="4" stroke-linecap="round" stroke-miterlimit="10" x1="50" y1="88.314" x2="53.496" y2="88.314"/>
</svg>
