<?xml version="1.0" encoding="utf-8"?>
<!-- Generator: Adobe Illustrator 23.0.0, SVG Export Plug-In . SVG Version: 6.00 Build 0)  -->
<svg version="1.1" id="Layer_1" xmlns="http://www.w3.org/2000/svg" xmlns:xlink="http://www.w3.org/1999/xlink" x="0px" y="0px"
	 viewBox="0 0 100 100" style="enable-background:new 0 0 100 100;" xml:space="preserve">
<style type="text/css">
	.st0{fill:#222222;}
</style>
<path class="st0" d="M49,99.1c-0.9,0-1.8-0.5-2.2-1.4c-4-8.3-9.1-39.9-9.1-47.4c0-7.6,5.1-39.2,9-47.4C47.2,1.9,48,1.4,49,1.4h0
	c0.9,0,1.8,0.5,2.2,1.4c3.9,8.3,9.1,39.8,9.1,47.4c0,7.6-5.1,39.2-9.1,47.5C50.8,98.5,50,99.1,49,99.1L49,99.1z M49,11.6
	c-3.1,11.7-6.4,32.3-6.4,38.7c0,6.3,3.3,27,6.4,38.7c3.1-11.7,6.4-32.4,6.4-38.7C55.4,43.9,52.1,23.2,49,11.6z"/>
</svg>
