<?xml version="1.0" encoding="utf-8"?>
<!-- Generator: Adobe Illustrator 23.0.0, SVG Export Plug-In . SVG Version: 6.00 Build 0)  -->
<svg version="1.1" id="Layer_1" xmlns="http://www.w3.org/2000/svg" xmlns:xlink="http://www.w3.org/1999/xlink" x="0px" y="0px"
	 viewBox="0 0 100 100" style="enable-background:new 0 0 100 100;" xml:space="preserve">
<style type="text/css">
	.st0{fill:#222222;}
</style>
<path class="st0" d="M50,99C23,99,1,77,1,50S23,1,50,1s49,22,49,49S77.1,99,50,99z M50,2.7C23.8,2.7,2.7,23.8,2.7,50
	S23.8,97.3,50,97.3S97.3,76.2,97.3,50S76.2,2.7,50,2.7z"/>
<rect x="49.2" y="89" class="st0" width="1.7" height="9.1"/>
<rect x="49.2" y="1.8" class="st0" width="1.7" height="9.1"/>
<rect x="1.8" y="49.2" class="st0" width="9.1" height="1.7"/>
<rect x="89.1" y="49.2" class="st0" width="9.1" height="1.7"/>
<rect x="15.3" y="81.5" transform="matrix(0.7071 -0.7071 0.7071 0.7071 -53.1093 36.5197)" class="st0" width="4.5" height="1.7"/>
<rect x="80.1" y="16.7" transform="matrix(0.7071 -0.7071 0.7071 0.7071 11.7188 63.4218)" class="st0" width="4.5" height="1.7"/>
<rect x="16.7" y="15.3" transform="matrix(0.7071 -0.7071 0.7071 0.7071 -7.3133 17.5855)" class="st0" width="1.7" height="4.5"/>
<rect x="81.6" y="80.1" transform="matrix(0.7071 -0.7071 0.7071 0.7071 -34.118 82.4538)" class="st0" width="1.7" height="4.5"/>
<rect x="30.3" y="91.5" transform="matrix(0.381 -0.9246 0.9246 0.381 -65.2346 87.2895)" class="st0" width="4.5" height="1.7"/>
<rect x="65.1" y="6.8" transform="matrix(0.381 -0.9246 0.9246 0.381 34.7286 67.1077)" class="st0" width="4.7" height="1.7"/>
<rect x="6.7" y="30.4" transform="matrix(0.381 -0.9246 0.9246 0.381 -25.4363 27.1534)" class="st0" width="1.7" height="4.4"/>
<rect x="91.6" y="65.2" transform="matrix(0.381 -0.9246 0.9246 0.381 -5.2188 127.2015)" class="st0" width="1.7" height="4.5"/>
<rect x="66" y="90.5" transform="matrix(0.9311 -0.3649 0.3649 0.9311 -29.228 30.7717)" class="st0" width="1.7" height="4.5"/>
<rect x="32.4" y="5" transform="matrix(0.9311 -0.3649 0.3649 0.9311 -0.3703 12.6229)" class="st0" width="1.7" height="4.5"/>
<rect x="5" y="65.9" transform="matrix(0.9311 -0.3649 0.3649 0.9311 -23.8302 7.2414)" class="st0" width="4.5" height="1.7"/>
<rect x="90.6" y="32.4" transform="matrix(0.9311 -0.3649 0.3649 0.9311 -5.7169 36.1533)" class="st0" width="4.4" height="1.7"/>
</svg>
