<?xml version="1.0" encoding="utf-8"?>
<!-- Generator: Adobe Illustrator 15.0.0, SVG Export Plug-In . SVG Version: 6.00 Build 0)  -->
<!DOCTYPE svg PUBLIC "-//W3C//DTD SVG 1.1//EN" "http://www.w3.org/Graphics/SVG/1.1/DTD/svg11.dtd">
<svg version="1.1" id="Layer_1" xmlns="http://www.w3.org/2000/svg" xmlns:xlink="http://www.w3.org/1999/xlink" x="0px" y="0px"
	 width="100px" height="100px" viewBox="0 0 100 100" enable-background="new 0 0 100 100" xml:space="preserve">
<path fill="#222222" d="M50,79.54c-14.77,0-26.827-12.058-26.827-26.827c0-14.77,12.057-26.827,26.827-26.827
	c14.77,0,26.827,12.057,26.827,26.827C76.827,67.482,64.83,79.54,50,79.54z M50,28.116c-13.564,0-24.597,11.032-24.597,24.597
	S36.436,77.31,50,77.31s24.597-11.032,24.597-24.597S63.564,28.116,50,28.116z"/>
<path fill="#222222" d="M57.294,27.754h-2.229v-3.195c0-1.024-0.845-1.869-1.869-1.869h-6.33c-1.025,0-1.869,0.844-1.869,1.869
	v3.135h-2.231v-3.135c0-2.291,1.869-4.099,4.1-4.099h6.33c2.29,0,4.099,1.869,4.099,4.099V27.754z"/>
<g>
	<path fill="#222222" d="M50.091,75.553c-12.541,0-22.76-10.219-22.76-22.76c0-12.542,10.219-22.761,22.76-22.761
		c12.542,0,22.76,10.219,22.76,22.761C72.851,65.334,62.679,75.553,50.091,75.553z M50.091,30.822
		c-12.17,0-21.971,9.8-21.971,21.971c0,12.17,9.801,21.97,21.971,21.97s21.97-9.8,21.97-21.97
		C72.061,40.623,62.261,30.822,50.091,30.822z"/>
	<rect x="49.719" y="70.908" fill="#222222" width="0.79" height="4.227"/>
	<rect x="49.719" y="30.404" fill="#222222" width="0.79" height="4.227"/>
	<rect x="27.702" y="52.421" fill="#222222" width="4.227" height="0.79"/>
	<rect x="68.252" y="52.421" fill="#222222" width="4.227" height="0.79"/>
	
		<rect x="33.964" y="67.42" transform="matrix(-0.7072 0.707 -0.707 -0.7072 107.7115 91.0237)" fill="#222222" width="2.09" height="0.789"/>
	
		<rect x="64.076" y="37.349" transform="matrix(-0.7072 0.707 -0.707 -0.7072 137.8607 18.3969)" fill="#222222" width="2.091" height="0.79"/>
	
		<rect x="34.602" y="36.691" transform="matrix(-0.7065 0.7077 -0.7077 -0.7065 86.429 39.6283)" fill="#222222" width="0.79" height="2.09"/>
	
		<rect x="64.751" y="66.79" transform="matrix(-0.7071 0.7071 -0.7071 -0.7071 159.1765 69.7359)" fill="#222222" width="0.79" height="2.089"/>
	
		<rect x="40.941" y="72.083" transform="matrix(-0.3808 0.9246 -0.9246 -0.3808 124.9935 61.2569)" fill="#222222" width="2.091" height="0.79"/>
	
		<rect x="57.128" y="32.73" transform="matrix(-0.3807 0.9247 -0.9247 -0.3807 111.0142 -8.0993)" fill="#222222" width="2.183" height="0.79"/>
	
		<rect x="29.993" y="43.686" transform="matrix(-0.3807 0.9247 -0.9247 -0.3807 83.2979 33.6311)" fill="#222222" width="0.79" height="2.044"/>
	
		<rect x="69.376" y="59.839" transform="matrix(-0.3803 0.9249 -0.9249 -0.3803 152.6152 19.5113)" fill="#222222" width="0.791" height="2.09"/>
	
		<rect x="57.528" y="71.599" transform="matrix(-0.9301 0.3673 -0.3673 -0.9301 138.4802 118.9334)" fill="#222222" width="0.79" height="2.09"/>
	
		<rect x="41.908" y="31.886" transform="matrix(-0.9311 0.3648 -0.3648 -0.9311 93.7041 48.1627)" fill="#222222" width="0.79" height="2.091"/>
	
		<rect x="29.201" y="60.176" transform="matrix(-0.9311 0.3649 -0.3649 -0.9311 80.5068 105.9306)" fill="#222222" width="2.09" height="0.789"/>
	
		<rect x="68.958" y="44.617" transform="matrix(-0.9312 0.3646 -0.3646 -0.9312 151.555 61.4121)" fill="#222222" width="2.045" height="0.79"/>
</g>
<path fill="#222222" d="M57.454,66.508c-0.253,0.142-0.584,0.145-0.839-0.044c-2.435-1.694-8.862-9.744-10.049-11.847
	c-1.202-2.13-4.772-11.794-4.976-14.709c-0.018-0.359,0.127-0.626,0.407-0.784l0,0c0.253-0.143,0.583-0.145,0.838,0.044
	c2.406,1.71,8.848,9.716,10.05,11.846c1.202,2.131,4.771,11.795,4.963,14.754C57.863,66.056,57.734,66.35,57.454,66.508
	L57.454,66.508z M43.611,41.983c0.982,3.77,3.316,10.066,4.329,11.859c0.997,1.767,5.196,7.046,7.917,9.835
	c-0.983-3.77-3.332-10.094-4.329-11.86C50.516,50.023,46.315,44.744,43.611,41.983z"/>
</svg>
