<?xml version="1.0" encoding="utf-8"?>
<!-- Generator: Adobe Illustrator 15.0.0, SVG Export Plug-In . SVG Version: 6.00 Build 0)  -->
<!DOCTYPE svg PUBLIC "-//W3C//DTD SVG 1.1//EN" "http://www.w3.org/Graphics/SVG/1.1/DTD/svg11.dtd">
<svg version="1.1" id="Layer_1" xmlns="http://www.w3.org/2000/svg" xmlns:xlink="http://www.w3.org/1999/xlink" x="0px" y="0px"
	 width="100px" height="100px" viewBox="0 0 100 100" enable-background="new 0 0 100 100" xml:space="preserve">
<path fill="#222220" d="M66.191,50.901c6.55-4.915,10.813-12.709,10.813-21.501c0-14.843-12.102-26.9-26.988-26.9
	c-14.888,0-26.989,12.073-26.989,26.9c0,8.792,4.263,16.586,10.813,21.501c-13.225,6.495-22.438,20.651-22.438,37.084V97.5h9.537
	h58.123h9.537v-9.515c0-16.433-9.213-30.589-22.437-37.084 M50,12.007c9.631,0,17.438,7.791,17.438,17.399
	c0,9.611-7.809,17.402-17.438,17.402c-9.628,0-17.438-7.791-17.438-17.402C32.563,19.798,40.372,12.007,50,12.007 M20.938,87.99
	c0-17.33,13.011-31.374,29.062-31.374S79.062,70.66,79.062,87.99H20.938"/>
</svg>
