<?xml version="1.0" encoding="utf-8"?>
<!-- Generator: Adobe Illustrator 15.0.0, SVG Export Plug-In . SVG Version: 6.00 Build 0)  -->
<!DOCTYPE svg PUBLIC "-//W3C//DTD SVG 1.1//EN" "http://www.w3.org/Graphics/SVG/1.1/DTD/svg11.dtd">
<svg version="1.1" id="Layer_1" xmlns="http://www.w3.org/2000/svg" xmlns:xlink="http://www.w3.org/1999/xlink" x="0px" y="0px"
	 width="100px" height="100px" viewBox="0 0 100 100" enable-background="new 0 0 100 100" xml:space="preserve">
<path fill="none" stroke="#EFEEE2" stroke-width="4" stroke-miterlimit="10" d="M69.98,50c0,11.027-8.953,19.98-19.98,19.98
	c-11.027,0-19.972-8.953-19.972-19.98c0-11.028,8.945-19.972,19.972-19.972C61.027,30.028,69.98,38.972,69.98,50z"/>
<path fill="none" stroke="#EFEEE2" stroke-width="4" stroke-miterlimit="10" d="M28.394,7.598L42.558,3l5.588,8.921
	c0.884-0.059,1.775-0.093,2.68-0.093c0.363,0,0.727,0.013,1.089,0.021L57.441,3l14.156,4.599l-0.695,9.933
	c1.242,0.769,2.445,1.621,3.605,2.535l9.146-3.715L92.4,28.393l-6.166,7.318c0.59,1.48,1.105,3.006,1.51,4.573L97,42.557v14.886
	l-9.257,2.274c-0.396,1.541-0.902,3.033-1.479,4.488l6.137,7.392l-8.742,12.06l-9.146-3.724c-1.16,0.914-2.363,1.758-3.607,2.543
	L71.6,92.4L57.441,97l-5.526-8.84c-0.362,0.008-0.726,0.012-1.089,0.012c-0.904,0-1.795-0.043-2.678-0.094L42.558,97l-14.165-4.6
	l0.738-10.993c-0.854-0.589-1.686-1.22-2.496-1.878l-10.283,4.127L7.599,71.598l7.281-8.744c-0.311-0.852-0.586-1.732-0.831-2.605
	L3,57.441V42.557l11.051-2.801c0.243-0.892,0.52-1.764,0.831-2.616l-7.283-8.747l8.753-12.042l10.286,4.124
	c0.81-0.667,1.642-1.289,2.494-1.884L28.394,7.598z"/>
</svg>
