<?xml version="1.0" encoding="utf-8"?>
<!-- Generator: Adobe Illustrator 15.0.0, SVG Export Plug-In . SVG Version: 6.00 Build 0)  -->
<!DOCTYPE svg PUBLIC "-//W3C//DTD SVG 1.1//EN" "http://www.w3.org/Graphics/SVG/1.1/DTD/svg11.dtd">
<svg version="1.1" id="Layer_1" xmlns="http://www.w3.org/2000/svg" xmlns:xlink="http://www.w3.org/1999/xlink" x="0px" y="0px"
	 width="100px" height="100px" viewBox="0 0 100 100" enable-background="new 0 0 100 100" xml:space="preserve">
<path fill="none" stroke="#222220" stroke-width="4" stroke-miterlimit="10" d="M19.471,23.537h12.936
	c2.324,0,4.208-2.121,4.208-4.736l0,0c0-2.614-1.884-4.734-4.208-4.734h-2.549"/>
<path fill="none" stroke="#222220" stroke-width="4" stroke-linecap="round" stroke-miterlimit="10" d="M22.256,14.067H10.683
	c-2.325,0-4.208,2.12-4.208,4.734l0,0c0,2.614,1.883,4.736,4.208,4.736h2.705"/>
<path fill="none" stroke="#222220" stroke-width="4" stroke-linecap="round" stroke-miterlimit="10" d="M29.858,14.067h2.549
	c2.324,0,4.208-2.122,4.208-4.736l0,0c0-2.614-1.884-4.734-4.208-4.734H10.683c-2.325,0-4.208,2.12-4.208,4.734l0,0
	c0,2.614,1.883,4.736,4.208,4.736h11.574"/>
<path fill="none" stroke="#222220" stroke-width="4" stroke-linecap="round" stroke-miterlimit="10" d="M19.471,23.537h12.936
	c2.324,0,4.208,2.12,4.208,4.735l0,0c0,2.614-1.884,4.734-4.208,4.734H10.683c-2.325,0-4.208-2.12-4.208-4.734l0,0
	c0-2.615,1.883-4.735,4.208-4.735h2.705"/>
<path fill="none" stroke="#222220" stroke-width="4" stroke-miterlimit="10" d="M4.902,42.475h35.664
	c2.325,0,4.209-2.12,4.209-4.734l0,0c0-2.614-1.884-4.736-4.209-4.736H11.414H8.708c-2.325,0-4.208,2.123-4.208,4.736l0,0"/>
<path fill="none" stroke="#222220" stroke-width="4" stroke-miterlimit="10" d="M4.5,37.741v54.708c0,0,0.337,2.83,2.112,2.83
	c1.775,0,2.344-3.278,4.497-3.278c2.154,0,2.913,3.278,4.814,3.278c1.901,0,2.09-3.032,4.307-3.032s2.282,3.032,4.75,3.032
	c2.471,0,2.282-2.85,4.308-2.85c2.027,0,2.85,2.85,4.751,2.85s1.773-3.032,3.167-3.032c1.395,0,12.921,0,16.594,0
	c1.165,0,1.206,3.155,3.296,3.155c1.604,0,1.648-3.219,4.623-3.219c2.979,0,2.852,3.219,4.5,3.219c1.645,0,2.846-3.336,4.748-3.336
	s2.406,3.336,4.563,3.336s1.966-3.277,4.113-3.277c2.155,0,2.918,2.977,4.623,2.977c1.715,0,2.476-3.101,4.375-3.101
	c1.9,0,2.28,3.401,4.75,3.401c2.471,0,2.09-1.03,2.09-2.489c0-1.456,0.021-19.608,0.021-19.608s-0.844-9.41-11.551-9.41
	c-10.705,0-36.863-5.043-43.385-21.42"/>
<line fill="none" stroke="#222220" stroke-width="4" stroke-miterlimit="10" x1="4.5" y1="83.503" x2="95.5" y2="83.503"/>
<line fill="none" stroke="#222220" stroke-width="4" stroke-linecap="round" stroke-miterlimit="10" x1="48.328" y1="52.523" x2="39.612" y2="62.014"/>
<line fill="none" stroke="#222220" stroke-width="4" stroke-linecap="round" stroke-miterlimit="10" x1="57.791" y1="58.132" x2="48.987" y2="66.574"/>
<line fill="none" stroke="#222220" stroke-width="4" stroke-linecap="round" stroke-miterlimit="10" x1="67.729" y1="61.564" x2="60.135" y2="70.146"/>
</svg>
