<svg enable-background="new 0 0 50 50" viewBox="0 0 50 50" xmlns="http://www.w3.org/2000/svg"><g style="fill:none;stroke:#222220;stroke-width:2.3361;stroke-linecap:round;stroke-linejoin:round;stroke-miterlimit:10"><path d="m25 48.4v-46.8m0 44.4v-42m0 9.4 6.6-6.6m-6.6 6.6-6.6-6.6m6.6 29.9-6.6 6.6m13.2 0-6.6-6.6"/><path d="m45.2 36.7-40.4-23.4m38.4 22.2-36.4-21m8.1 4.7-2.4-9m2.4 9-9 2.4m29.2 9.2 2.4 9m6.6-11.4-9 2.4"/><path d="m45.2 13.3-40.4 23.4m38.4-22.2-36.4 21m8.1-4.7-9-2.4m9 2.4-2.4 9m22.6-20.6 9 2.4m-6.6-11.5-2.4 9"/></g></svg>