<?xml version="1.0" encoding="utf-8"?>
<!-- Generator: Adobe Illustrator 15.0.0, SVG Export Plug-In . SVG Version: 6.00 Build 0)  -->
<!DOCTYPE svg PUBLIC "-//W3C//DTD SVG 1.1//EN" "http://www.w3.org/Graphics/SVG/1.1/DTD/svg11.dtd">
<svg version="1.1" id="Layer_1" xmlns="http://www.w3.org/2000/svg" xmlns:xlink="http://www.w3.org/1999/xlink" x="0px" y="0px"
	 width="100px" height="100px" viewBox="0 0 100 100" enable-background="new 0 0 100 100" xml:space="preserve">
<path fill="#347CB1" d="M98,80.264H50.982l17.422-45.057l-6.563-12.104c-0.601-1.108-0.188-2.492,0.916-3.088
	c1.104-0.601,2.488-0.191,3.089,0.917l4.709,8.695l3.266-8.433c0.453-1.175,1.779-1.758,2.945-1.304
	c1.176,0.454,1.756,1.771,1.305,2.946l-4.663,12.055L98,80.264z M57.633,75.706h32.721L71.259,40.471L57.633,75.706z"/>
<path fill="#347CB1" d="M70.971,80.264c-1.265,0-2.279-1.021-2.279-2.279V37.183H22.604c-1.255,0-2.278-1.014-2.278-2.278
	c0-1.259,1.023-2.278,2.278-2.278h50.645v45.357C73.248,79.243,72.229,80.264,70.971,80.264z"/>
<path fill="#347CB1" d="M54.311,80.264H2L24.842,21.19c0.454-1.17,1.775-1.753,2.946-1.299c1.175,0.449,1.755,1.771,1.304,2.946
	L8.64,75.706H54.3c1.261,0,2.278,1.019,2.278,2.278C56.578,79.243,55.566,80.264,54.311,80.264z"/>
<path fill="#347CB1" d="M23.836,32.43c-0.805,0-1.593-0.427-2.007-1.188l-4.41-8.139c-0.605-1.099-0.191-2.492,0.912-3.084
	c1.104-0.601,2.488-0.187,3.088,0.917l4.414,8.135c0.601,1.099,0.187,2.492-0.917,3.083C24.575,32.341,24.201,32.43,23.836,32.43z"
	/>
<path fill="#347CB1" d="M48.19,61.742H15.75l9.034-18.241c0.561-1.125,1.931-1.588,3.052-1.032c1.13,0.556,1.589,1.927,1.033,3.053
	l-5.776,11.664h22.294l6.884-13.696c0.568-1.126,1.938-1.575,3.062-1.01c1.125,0.565,1.575,1.936,1.01,3.057L48.19,61.742z"/>
</svg>
