<?xml version="1.0" encoding="utf-8"?>
<!-- Generator: Adobe Illustrator 15.0.0, SVG Export Plug-In . SVG Version: 6.00 Build 0)  -->
<!DOCTYPE svg PUBLIC "-//W3C//DTD SVG 1.1//EN" "http://www.w3.org/Graphics/SVG/1.1/DTD/svg11.dtd">
<svg version="1.1" id="Layer_1" xmlns="http://www.w3.org/2000/svg" xmlns:xlink="http://www.w3.org/1999/xlink" x="0px" y="0px"
	 width="100px" height="100px" viewBox="0 0 100 100" enable-background="new 0 0 100 100" xml:space="preserve">
<g>
	<g>
		<path fill="none" stroke="#222220" stroke-width="4" stroke-linecap="round" stroke-linejoin="round" stroke-miterlimit="10" d="
			M81,59.8V6.2"/>
		<path fill="none" stroke="#222220" stroke-width="4" stroke-linecap="round" stroke-linejoin="round" stroke-miterlimit="10" d="
			M81,6.2l-10.4,10.2"/>
		<path fill="none" stroke="#222220" stroke-width="4" stroke-linecap="round" stroke-linejoin="round" stroke-miterlimit="10" d="
			M81,6.2l10.4,10.2"/>
		<path fill="none" stroke="#222220" stroke-width="4" stroke-linecap="round" stroke-linejoin="round" stroke-miterlimit="10" d="
			M81,21.6L70.6,31.999"/>
		<path fill="none" stroke="#222220" stroke-width="4" stroke-linecap="round" stroke-linejoin="round" stroke-miterlimit="10" d="
			M81,21.6l10.4,10.399"/>
		<path fill="none" stroke="#222220" stroke-width="4" stroke-linecap="round" stroke-linejoin="round" stroke-miterlimit="10" d="
			M81,37.2L70.6,47.399"/>
		<path fill="none" stroke="#222220" stroke-width="4" stroke-linecap="round" stroke-linejoin="round" stroke-miterlimit="10" d="
			M81,37.2l10.4,10.199"/>
		<path fill="none" stroke="#222220" stroke-width="4" stroke-linecap="round" stroke-linejoin="round" stroke-miterlimit="10" d="
			M26.201,23.799c-4,0-7.2-3.2-7.2-7.2s3.2-7.2,7.2-7.2c-1.8-1.8-4.4-3-7.2-3c-5.6,0-10.2,4.6-10.2,10.2s4.6,10.2,10.2,10.2
			C21.8,26.799,24.4,25.6,26.201,23.799z"/>
		
			<linearGradient id="SVGID_1_" gradientUnits="userSpaceOnUse" x1="132.6504" y1="-119.1499" x2="173.9502" y2="-119.1499" gradientTransform="matrix(2 0 0 -2 -256.5 -144.5)">
			<stop  offset="0" style="stop-color:#FFFFFF"/>
			<stop  offset="1" style="stop-color:#000000"/>
		</linearGradient>
		
			<path fill="url(#SVGID_1_)" stroke="#222220" stroke-width="4" stroke-linecap="round" stroke-linejoin="round" stroke-miterlimit="10" d="
			M8.8,93.8h82.6"/>
		<path fill="none" stroke="#222220" stroke-width="4" stroke-linecap="round" stroke-linejoin="round" stroke-miterlimit="10" d="
			M50,63.2v30.6"/>
		<path fill="none" stroke="#222220" stroke-width="4" stroke-linecap="round" stroke-linejoin="round" stroke-miterlimit="10" d="
			M50,62.8l-25.8,31"/>
		<path fill="none" stroke="#222220" stroke-width="4" stroke-linecap="round" stroke-linejoin="round" stroke-miterlimit="10" d="
			M50,62.8l25.8,31"/>
	</g>
	<path fill="none" stroke="#222220" stroke-width="4" stroke-miterlimit="10" d="M8.601,93.8c0-28.6,18.6-51.801,41.4-51.801"/>
	<path fill="none" stroke="#222220" stroke-width="4" stroke-miterlimit="10" d="M91.4,93.8c0-28.6-18.6-51.801-41.4-51.801"/>
	<path fill="none" stroke="#222220" stroke-width="4" stroke-linecap="round" stroke-linejoin="round" stroke-miterlimit="10" d="
		M8.8,93.8l-5.4-5.201"/>
	<path fill="none" stroke="#222220" stroke-width="4" stroke-linecap="round" stroke-linejoin="round" stroke-miterlimit="10" d="
		M91.201,93.8l5.398-5.201"/>
</g>
</svg>
