<?xml version="1.0" encoding="utf-8"?>
<!-- Generator: Adobe Illustrator 23.0.0, SVG Export Plug-In . SVG Version: 6.00 Build 0)  -->
<svg version="1.1" id="Layer_1" xmlns="http://www.w3.org/2000/svg" xmlns:xlink="http://www.w3.org/1999/xlink" x="0px" y="0px"
	 viewBox="0 0 77.7 12.9" style="enable-background:new 0 0 77.7 12.9;" xml:space="preserve">
<style type="text/css">
	.st0{fill:#F4F3EE;}
	.st1{fill:#302E2A;}
	.st2{fill:#222222;}
</style>
<g>
	<path class="st0" d="M9.7,5.1H9.3C9.2,4.8,9,4.5,8.8,4.1C8.7,3.8,8.5,3.6,8.3,3.6c-0.1,0-0.2,0-0.4,0c-0.1,0-0.3,0-0.4,0H7.3v5.6
		c0,0.1,0,0.2,0.1,0.3c0,0.1,0.1,0.2,0.2,0.2s0.2,0.1,0.3,0.1c0.2,0,0.3,0.1,0.4,0.1v0.4H4.6V9.8c0.1,0,0.2,0,0.4,0
		c0.2,0,0.3,0,0.3-0.1c0.1-0.1,0.2-0.1,0.2-0.2c0-0.1,0.1-0.2,0.1-0.3V3.5H5.4c-0.1,0-0.2,0-0.4,0c-0.1,0-0.3,0-0.4,0
		C4.5,3.6,4.3,3.8,4,4.1c-0.2,0.3-0.4,0.7-0.5,1H3.2v-2h6.5V5.1z"/>
	<path class="st0" d="M14.6,6.1c0,0.3-0.1,0.5-0.2,0.7C14.2,7,14,7.1,13.8,7.1S13.4,7,13.2,6.9C13.1,6.8,13,6.6,13,6.4
		c0-0.1,0-0.2,0-0.3C13,6,13,6,13,5.9c-0.1,0-0.3,0.1-0.5,0.2s-0.3,0.2-0.4,0.4v2.8c0,0.1,0,0.2,0.1,0.3c0,0.1,0.1,0.1,0.2,0.2
		c0.1,0,0.2,0.1,0.3,0.1s0.3,0,0.3,0v0.4H9.9V9.9c0.1,0,0.2,0,0.2,0s0.1,0,0.2,0c0.1,0,0.2-0.1,0.2-0.2s0.1-0.2,0.1-0.3v-3
		c0-0.1,0-0.2-0.1-0.3s-0.1-0.2-0.2-0.2c-0.1,0-0.1-0.1-0.2-0.1c-0.1,0-0.2,0-0.3-0.1V5.3l2.3-0.1l0.1,0.1V6l0,0
		c0.2-0.3,0.4-0.5,0.7-0.6c0.2-0.2,0.5-0.2,0.8-0.2s0.5,0.1,0.7,0.3S14.6,5.8,14.6,6.1z"/>
	<path class="st0" d="M19.9,9c-0.1,0.2-0.2,0.4-0.4,0.5c-0.2,0.2-0.3,0.3-0.5,0.4c-0.2,0.1-0.4,0.2-0.6,0.3s-0.5,0.1-0.7,0.1
		c-0.5,0-0.9-0.1-1.2-0.2c-0.5-0.1-0.8-0.3-1-0.5S15.1,9.1,15,8.8s-0.2-0.7-0.2-1.1c0-0.3,0.1-0.7,0.2-1c0.1-0.3,0.3-0.6,0.5-0.8
		c0.2-0.2,0.5-0.4,0.8-0.6c0.3-0.1,0.7-0.2,1.1-0.2s0.8,0.1,1.1,0.2c0.3,0.1,0.5,0.3,0.7,0.5s0.3,0.4,0.4,0.7
		c0.1,0.3,0.1,0.5,0.1,0.8v0.3h-3.2c0,0.7,0.1,1.2,0.4,1.6c0.2,0.4,0.6,0.5,1.2,0.5c0.3,0,0.6-0.1,0.8-0.3c0.2-0.2,0.4-0.4,0.6-0.7
		L19.9,9z M18.1,7.1c0-0.2,0-0.4,0-0.6C18,6.3,18,6.1,17.9,6c-0.1-0.2-0.1-0.3-0.2-0.4s-0.2-0.1-0.4-0.1c-0.2,0-0.4,0.1-0.6,0.4
		s-0.2,0.7-0.2,1.2L18.1,7.1z"/>
	<path class="st0" d="M25.6,10.1c-0.1,0.1-0.3,0.1-0.5,0.2c-0.2,0.1-0.4,0.1-0.6,0.1c-0.4,0-0.7-0.1-0.9-0.2
		c-0.2-0.1-0.3-0.3-0.4-0.5l0,0C23.1,9.8,23,9.9,22.9,10s-0.2,0.2-0.3,0.2c-0.1,0.1-0.3,0.1-0.4,0.2c-0.1,0-0.3,0.1-0.6,0.1
		c-0.4,0-0.7-0.1-0.9-0.3c-0.3-0.2-0.4-0.5-0.4-0.9c0-0.2,0-0.4,0.1-0.6s0.1-0.3,0.2-0.4C20.7,8,20.8,8,20.9,7.9s0.3-0.1,0.4-0.2
		c0.3-0.1,0.6-0.2,1-0.3S23,7.1,23.2,7V6.5c0-0.1,0-0.2,0-0.3c0-0.1,0-0.3-0.1-0.3c0-0.1-0.1-0.2-0.2-0.3c-0.1-0.1-0.2-0.1-0.4-0.1
		c-0.1,0-0.3,0-0.3,0.1S22,5.6,22,5.7c0,0,0,0.1,0,0.3c0,0.1,0.1,0.3,0.1,0.4s0,0.1,0,0.2S22,6.8,22,6.8c-0.1,0.1-0.2,0.1-0.2,0.2
		s-0.3,0-0.5,0c-0.3,0-0.5-0.1-0.6-0.2s-0.2-0.3-0.2-0.5s0.1-0.4,0.2-0.5s0.3-0.3,0.5-0.4s0.4-0.2,0.7-0.2c0.3-0.1,0.5-0.1,0.7-0.1
		c0.3,0,0.6,0,0.8,0.1s0.5,0.1,0.7,0.2s0.4,0.3,0.5,0.5s0.2,0.5,0.2,0.9s0,0.8,0,1.4c0,0.5,0,0.9,0,1c0,0.2,0,0.3,0.1,0.4
		c0,0.1,0.1,0.2,0.2,0.2s0.1,0,0.3,0s0.2,0,0.3,0v0.3H25.6z M23.2,7.5c-0.2,0.1-0.4,0.1-0.5,0.2c-0.2,0.1-0.3,0.2-0.4,0.3
		S22.1,8.2,22,8.4c-0.1,0.1-0.1,0.3-0.1,0.5c0,0.3,0.1,0.5,0.2,0.6s0.3,0.2,0.4,0.2c0.2,0,0.3,0,0.4-0.1s0.2-0.2,0.3-0.3V7.5z"/>
	<path class="st0" d="M28,10.4c-0.3,0-0.6,0-0.9-0.1s-0.5-0.2-0.7-0.3l-0.1,0.3h-0.4l-0.1-1.9h0.3c0,0.2,0.1,0.3,0.2,0.5
		s0.2,0.4,0.4,0.5c0.1,0.2,0.3,0.3,0.5,0.4c0.2,0.1,0.4,0.2,0.6,0.2c0.3,0,0.5-0.1,0.6-0.2c0.1-0.1,0.2-0.3,0.2-0.6
		c0-0.1,0-0.2-0.1-0.3s-0.2-0.2-0.3-0.2c-0.1-0.1-0.3-0.1-0.4-0.2c-0.1,0-0.3-0.1-0.5-0.2c-0.2-0.1-0.4-0.1-0.6-0.2
		c-0.2-0.1-0.3-0.2-0.5-0.3c-0.1-0.1-0.3-0.3-0.3-0.5S26,6.9,26,6.7c0-0.5,0.2-0.9,0.6-1.1s0.9-0.4,1.5-0.4c0.3,0,0.6,0,0.8,0.1
		c0.2,0.1,0.4,0.1,0.6,0.2l0.1-0.3H30l0.1,1.7h-0.3c-0.1-0.4-0.3-0.7-0.6-0.9s-0.6-0.4-0.9-0.4c-0.2,0-0.4,0.1-0.6,0.2
		c-0.1,0.1-0.2,0.3-0.2,0.4c0,0.3,0.1,0.4,0.3,0.6C28,6.9,28.3,7,28.7,7.1c0.6,0.2,1,0.4,1.2,0.6c0.3,0.3,0.4,0.6,0.4,1
		c0,0.6-0.2,1-0.6,1.3C29.2,10.2,28.6,10.4,28,10.4z"/>
	<path class="st0" d="M36.8,10.1l-2.3,0.1l-0.1-0.1V9.5l0,0c-0.1,0.1-0.2,0.2-0.3,0.3s-0.2,0.2-0.4,0.3s-0.3,0.2-0.5,0.2
		c-0.1,0-0.4,0.1-0.6,0.1c-0.5,0-0.8-0.2-1.1-0.5s-0.4-0.7-0.4-1.3V6.3c0-0.1,0-0.2-0.1-0.3c0-0.1-0.1-0.2-0.2-0.2
		c-0.1-0.1-0.1-0.1-0.2-0.1s-0.2,0-0.3,0V5.3l2.3-0.1l0.1,0.1v3.4c0,0.3,0.1,0.6,0.2,0.8c0.1,0.2,0.3,0.2,0.5,0.2s0.4-0.1,0.6-0.2
		c0.2-0.1,0.3-0.3,0.4-0.4V6.3c0-0.1,0-0.2-0.1-0.3s-0.1-0.2-0.2-0.2c-0.1,0-0.1-0.1-0.2-0.1c-0.1,0-0.2,0-0.3,0V5.3l2.3-0.1l0.1,0
		v3.9c0,0.1,0,0.2,0.1,0.3c0,0.1,0.1,0.2,0.2,0.2c0.1,0,0.1,0.1,0.2,0.1c0.1,0,0.2,0,0.3,0V10.1z"/>
	<path class="st0" d="M41.7,6.1c0,0.3-0.1,0.5-0.2,0.7s-0.3,0.3-0.6,0.3c-0.2,0-0.4-0.1-0.6-0.2c-0.2-0.1-0.2-0.3-0.2-0.5
		c0-0.1,0-0.2,0-0.3c0-0.1,0-0.1,0-0.2c-0.1,0-0.3,0.1-0.5,0.2s-0.3,0.2-0.4,0.4v2.8c0,0.1,0,0.2,0.1,0.3c0,0.1,0.1,0.1,0.2,0.2
		c0.1,0,0.2,0.1,0.3,0.1s0.3,0,0.3,0v0.4H37V9.9c0.1,0,0.2,0,0.2,0s0.1,0,0.2,0c0.1,0,0.2-0.1,0.2-0.2s0.1-0.2,0.1-0.3v-3
		c0-0.1,0-0.2-0.1-0.3c-0.1-0.1-0.1-0.2-0.2-0.2c-0.1,0-0.1-0.1-0.2-0.1c-0.1,0-0.2,0-0.3-0.1V5.3l2.3-0.1l0.1,0.1V6l0,0
		c0.2-0.3,0.5-0.5,0.7-0.6s0.5-0.2,0.8-0.2s0.5,0.1,0.7,0.3C41.6,5.6,41.7,5.8,41.7,6.1z"/>
	<path class="st0" d="M47,9c-0.1,0.2-0.2,0.4-0.4,0.5C46.4,9.7,46.2,9.9,46,10s-0.4,0.2-0.6,0.3c-0.2,0.1-0.5,0.1-0.7,0.1
		c-0.5,0-0.9-0.1-1.2-0.2c-0.3-0.1-0.6-0.3-0.8-0.6c-0.2-0.2-0.4-0.5-0.5-0.8S42,8.1,42,7.7c0-0.3,0.1-0.7,0.2-1
		c0.1-0.3,0.3-0.6,0.5-0.8c0.2-0.2,0.5-0.4,0.8-0.6s0.7-0.2,1.1-0.2c0.4,0,0.8,0.1,1.1,0.2s0.5,0.3,0.7,0.5s0.3,0.4,0.4,0.7
		c0.1,0.3,0.1,0.5,0.1,0.8v0.3h-3.2c0,0.7,0.1,1.2,0.4,1.6c0.2,0.4,0.6,0.5,1.2,0.5c0.3,0,0.6-0.1,0.8-0.3s0.4-0.4,0.6-0.7L47,9z
		 M45.2,7.1c0-0.2,0-0.4,0-0.6S45.1,6.1,45.1,6C45,5.8,45,5.7,44.9,5.6c-0.1-0.1-0.2-0.1-0.4-0.1s-0.4,0.1-0.6,0.4s-0.2,0.7-0.2,1.2
		L45.2,7.1z"/>
	<path class="st0" d="M57.8,10.2h-3.6V9.8c0.1,0,0.2,0,0.3,0c0.2,0,0.3,0,0.3-0.1c0.1,0,0.2-0.1,0.2-0.2c0-0.1,0.1-0.2,0.1-0.3V6.8
		h-2.9v2.4c0,0.1,0,0.2,0.1,0.3s0.1,0.2,0.2,0.2c0.1,0,0.2,0.1,0.3,0.1s0.3,0,0.4,0.1v0.4h-3.6V9.8c0.1,0,0.2,0,0.3,0s0.3,0,0.3-0.1
		c0.1,0,0.2-0.1,0.2-0.2c0-0.1,0.1-0.2,0.1-0.3V4.1c0-0.1,0-0.2-0.1-0.3c0-0.1-0.1-0.2-0.2-0.2c-0.1,0-0.2-0.1-0.4-0.1
		s-0.3-0.1-0.3-0.1V3.1h3.6v0.4c-0.1,0-0.2,0-0.4,0.1s-0.2,0.1-0.3,0.1s-0.2,0.1-0.2,0.2c0,0.1-0.1,0.2-0.1,0.3v2.1H55V4.1
		c0-0.1,0-0.2-0.1-0.3c0-0.1-0.1-0.2-0.2-0.2c-0.1,0-0.2-0.1-0.3-0.1s-0.2-0.1-0.3-0.1V3.1h3.6v0.4c-0.1,0-0.2,0-0.3,0
		s-0.2,0-0.3,0.1c-0.1,0-0.2,0.1-0.2,0.2c0,0.1-0.1,0.2-0.1,0.3v5.1c0,0.1,0,0.2,0.1,0.3s0.1,0.2,0.2,0.2c0.1,0,0.2,0.1,0.3,0.1
		s0.3,0,0.4,0V10.2z"/>
	<path class="st0" d="M64.4,10.1l-2.3,0.1L62,10.1V9.5l0,0c-0.1,0.1-0.2,0.2-0.3,0.3s-0.2,0.2-0.4,0.3s-0.3,0.2-0.5,0.2
		c-0.1,0-0.4,0.1-0.6,0.1c-0.5,0-0.8-0.2-1.1-0.5s-0.4-0.7-0.4-1.3V6.3c0-0.1,0-0.2-0.1-0.3c0-0.1-0.1-0.2-0.2-0.2
		c-0.1-0.1-0.1-0.1-0.2-0.1c-0.1,0-0.2,0-0.3,0V5.3l2.3-0.1l0.1,0.1v3.4c0,0.3,0.1,0.6,0.2,0.8c0.1,0.2,0.3,0.2,0.5,0.2
		s0.4-0.1,0.6-0.2C61.9,9.3,62,9.2,62.1,9V6.3c0-0.1,0-0.2-0.1-0.3s-0.1-0.2-0.2-0.2c-0.1,0-0.1-0.1-0.2-0.1c-0.1,0-0.2,0-0.3,0V5.3
		l2.3-0.1l0.1,0.1v3.9c0,0.1,0,0.2,0.1,0.3c0,0.1,0.1,0.2,0.2,0.2s0.1,0.1,0.2,0.1s0.2,0,0.3,0L64.4,10.1L64.4,10.1z"/>
	<path class="st0" d="M70.9,10.2h-2.8V9.9c0.1,0,0.1,0,0.2,0s0.2,0,0.2,0c0.1,0,0.1-0.1,0.1-0.2c0-0.1,0-0.2,0-0.3V6.9
		c0-0.3-0.1-0.6-0.2-0.8c0-0.1-0.2-0.2-0.4-0.2c-0.1,0-0.2,0-0.4,0.1c-0.1,0-0.2,0.1-0.3,0.2c-0.1,0.1-0.2,0.1-0.2,0.2
		c-0.1,0-0.1,0.1-0.2,0.1v2.7c0,0.1,0,0.2,0,0.3s0.1,0.1,0.2,0.2c0,0,0.1,0.1,0.2,0.1s0.1,0,0.2,0.1v0.4h-2.9V9.9c0.1,0,0.2,0,0.2,0
		c0.1,0,0.1,0,0.2,0s0.2-0.1,0.2-0.2c0-0.1,0.1-0.2,0.1-0.3v-3c0-0.1,0-0.2-0.1-0.3C65.1,6,65.1,5.9,65,5.9s-0.1-0.1-0.2-0.1
		s-0.2,0-0.3-0.1V5.3l2.3-0.1l0.1,0.1V6l0,0c0.1-0.1,0.2-0.2,0.3-0.3c0.1-0.1,0.2-0.2,0.4-0.3c0.1-0.1,0.3-0.1,0.5-0.2
		s0.4-0.1,0.6-0.1c0.5,0,0.9,0.2,1.2,0.5c0.3,0.3,0.4,0.7,0.4,1.2v2.5c0,0.1,0,0.2,0.1,0.3c0,0.1,0.1,0.1,0.2,0.2c0,0,0.1,0,0.2,0.1
		c0.1,0,0.2,0,0.3,0.1v0.2H70.9z"/>
	<path class="st0" d="M74.7,10c-0.2,0.1-0.4,0.2-0.6,0.3s-0.5,0.1-0.8,0.1c-0.5,0-0.9-0.1-1.1-0.4c-0.2-0.3-0.4-0.6-0.4-1.1V5.8
		h-0.9V5.2h0.9V3.7h1.5v1.5h1.3v0.5h-1.3v2.8c0,0.4,0.1,0.7,0.2,0.8c0.1,0.2,0.3,0.2,0.6,0.2c0.1,0,0.2,0,0.4,0s0.3,0,0.3,0L74.7,10
		L74.7,10z"/>
</g>
<g>
	<path class="st1" d="M-7.9,45.3h-0.6c0.1-0.9,0.2-2,0.3-3.1c2.3,0.1,4,0.1,5,0.1c0.8,0,2.3,0,4.5-0.1c0.1,1.2,0.1,2.2,0.2,3.1H0.9
		c-0.2-1-0.4-1.5-0.5-1.7s-0.2-0.3-0.3-0.4s-0.5-0.1-1.1-0.1h-1.7c0,1.4-0.1,3.2-0.1,5.2c0,1.9,0,3.2,0.1,3.9c0,0.2,0.1,0.3,0.1,0.3
		c0.1,0.1,0.5,0.2,1.3,0.3c0.1,0,0.2,0,0.3,0.1v0.6c-1.1-0.1-2-0.1-2.8-0.1s-1.6,0-2.4,0.1V53c0.2,0,0.3-0.1,0.4-0.1
		c0.7-0.1,1.1-0.2,1.3-0.3c0,0,0.1-0.1,0.1-0.2c0-0.1,0-0.7,0.1-1.8c0-1.7,0-3,0-3.8c0-1.4,0-2.7,0-3.8h-1.9h-0.3
		c-0.3,0-0.5,0-0.6,0.1c-0.1,0.2-0.3,0.4-0.4,0.7C-7.6,44-7.7,44.5-7.9,45.3z"/>
	<path class="st1" d="M1.5,47.2v-0.5c1-0.2,1.8-0.6,2.5-1l0.2,0.2C4.1,46.4,4.1,47,4,47.6c0.6-0.8,1.1-1.3,1.3-1.4
		c0.3-0.2,0.6-0.3,0.9-0.3c0.2,0,0.5,0.1,0.8,0.2c0,0.4-0.1,1-0.2,1.6H6.4c0-0.3-0.1-0.4-0.2-0.6C6.1,47,6,46.9,5.8,46.9
		S5.4,47,5.1,47.2c-0.4,0.3-0.6,0.6-0.8,1c-0.2,0.4-0.2,0.9-0.2,1.6c0,1.2,0,2.1,0.1,2.5c0,0.2,0.1,0.3,0.2,0.4s0.5,0.2,1.1,0.3v0.5
		c-0.7-0.1-1.3-0.1-1.8-0.1s-1.2,0-2.2,0.1v-0.4c0.7-0.2,1.1-0.3,1.2-0.4c0.1-0.1,0.1-0.4,0.1-0.8v-1.7c0-1.7,0-2.6,0-2.7
		c-0.1-0.2-0.2-0.3-0.4-0.3c-0.1,0-0.4,0-0.7,0.1C1.7,47.1,1.6,47.1,1.5,47.2z"/>
	<path class="st1" d="M13.7,51.6l0.3,0.5l-1.6,1.2c-0.2,0.1-0.4,0.3-0.7,0.3c-0.3,0.1-0.7,0.2-1,0.2c-0.9,0-1.6-0.3-2.2-1
		S7.6,51.2,7.6,50c0-1.3,0.4-2.3,1.1-3.1s1.6-1.2,2.7-1.2c0.8,0,1.5,0.2,1.9,0.7s0.7,1.1,0.7,2.1c-0.2,0.1-0.4,0.3-0.6,0.5
		c-0.4,0-0.6,0-0.7,0c-1.4,0-2.6,0-3.7,0.1c0,1.2,0.2,2.1,0.6,2.7c0.4,0.6,1,0.9,1.6,0.9c0.3,0,0.7-0.1,1.1-0.2
		C12.7,52.2,13.2,51.9,13.7,51.6z M12.6,48.1c0-0.5-0.1-0.9-0.4-1.2c-0.3-0.4-0.7-0.6-1.2-0.6c-0.4,0-0.8,0.1-1.2,0.4
		C9.5,47,9.2,47.5,9,48.2c0.2,0,0.3,0,0.4,0C10.4,48.2,11.4,48.2,12.6,48.1z"/>
	<path class="st1" d="M16.1,48.1L15.6,48c0.1-0.6,0.2-1.1,0.2-1.6c1-0.5,2-0.7,2.8-0.7c0.4,0,0.7,0.1,1,0.2c0.3,0.1,0.5,0.2,0.7,0.4
		s0.3,0.4,0.4,0.7s0.1,0.7,0.1,1.2l-0.1,3.3c0,0.4,0.1,0.7,0.2,0.9c0.1,0.1,0.2,0.2,0.4,0.2s0.5-0.1,0.9-0.4l0.2,0.3
		c-0.7,0.7-1.2,1-1.2,1.1c-0.1,0.1-0.3,0.1-0.6,0.1s-0.6-0.1-0.8-0.3c-0.2-0.2-0.3-0.5-0.4-0.9c-0.6,0.5-1.1,0.8-1.4,0.9
		s-0.6,0.2-1,0.2c-0.6,0-1.1-0.2-1.4-0.5c-0.4-0.4-0.5-0.8-0.5-1.4c0-0.3,0.1-0.6,0.2-0.9c0.1-0.3,0.3-0.5,0.5-0.7s0.5-0.3,0.9-0.6
		c1-0.5,1.9-0.9,2.7-1.2c0-0.7-0.2-1.2-0.4-1.5c-0.2-0.2-0.6-0.4-1-0.4s-0.8,0.1-1.1,0.4S16.3,47.5,16.1,48.1z M19.4,49
		c-1.4,0.6-2.2,1.1-2.5,1.4c-0.3,0.3-0.4,0.6-0.4,1s0.1,0.7,0.3,1c0.2,0.2,0.5,0.4,0.8,0.4s0.6-0.1,1-0.3s0.6-0.4,0.7-0.7
		c0.1-0.2,0.2-0.7,0.2-1.4V49H19.4z"/>
	<path class="st1" d="M27.7,47.8h-0.6c0-0.5-0.2-0.8-0.5-1.1s-0.7-0.4-1.1-0.4s-0.7,0.1-0.9,0.3c-0.2,0.2-0.3,0.4-0.3,0.7
		c0,0.2,0.1,0.5,0.3,0.7c0.2,0.3,0.8,0.6,1.6,1c0.8,0.4,1.3,0.8,1.6,1.1c0.3,0.4,0.4,0.8,0.4,1.2c0,0.6-0.3,1.2-0.8,1.7
		s-1.2,0.7-2.1,0.7c-0.7,0-1.4-0.1-2.2-0.4c0.1-0.7,0.1-1.4,0.1-2.1h0.5c0.2,0.6,0.4,1.1,0.7,1.3s0.7,0.4,1.2,0.4
		c0.4,0,0.7-0.1,1-0.3s0.3-0.5,0.3-0.8s-0.1-0.6-0.3-0.9s-0.7-0.6-1.5-1s-1.3-0.7-1.6-1.1c-0.3-0.3-0.4-0.7-0.4-1.1
		c0-0.6,0.3-1.1,0.8-1.5c0.5-0.5,1.2-0.7,2.1-0.7c0.6,0,1.2,0.1,1.9,0.4C27.9,46.5,27.8,47.1,27.7,47.8z"/>
	<path class="st1" d="M28.8,46.6v-0.4c1-0.1,1.9-0.2,2.7-0.4l0.2,0.2c-0.1,0.9-0.2,2-0.2,3.3c0,1.1,0,1.9,0.1,2.2s0.2,0.6,0.5,0.7
		c0.2,0.2,0.5,0.3,0.9,0.3s0.7-0.1,1.1-0.3c0.3-0.2,0.6-0.5,0.7-0.8c0.1-0.3,0.2-0.8,0.2-1.5c0-0.1,0-1,0-2.7c0-0.2-0.1-0.4-0.2-0.5
		c-0.1-0.1-0.4-0.1-0.9-0.2h-0.3v-0.3c1.1-0.1,2-0.2,2.7-0.4l0.2,0.2c0,0.4-0.1,1-0.1,1.7s0,1.4,0,2.3c0,1.1,0,1.8,0.1,2
		s0.2,0.3,0.4,0.3c0.1,0,0.4,0,0.8-0.1v0.4c-0.5,0.1-1,0.3-1.4,0.4s-0.8,0.3-1.2,0.6l-0.2-0.2C35,53,35,52.6,35,52.2
		c-0.6,0.6-1.1,1-1.4,1.1c-0.3,0.2-0.7,0.2-1.1,0.2c-0.7,0-1.3-0.2-1.6-0.5c-0.4-0.4-0.5-0.9-0.5-1.6v-2.8c0-1-0.1-1.6-0.2-1.7
		c-0.1-0.1-0.4-0.2-1-0.3C29,46.6,28.9,46.6,28.8,46.6z"/>
	<path class="st1" d="M38,47.2v-0.5c1-0.2,1.8-0.6,2.5-1l0.2,0.2c-0.1,0.5-0.1,1.1-0.2,1.7c0.6-0.8,1.1-1.3,1.3-1.4
		c0.3-0.2,0.6-0.3,0.9-0.3c0.2,0,0.5,0.1,0.8,0.2c-0.1,0.5-0.2,1.1-0.3,1.7h-0.3c0-0.3-0.1-0.4-0.2-0.6c-0.1-0.1-0.2-0.2-0.4-0.2
		s-0.4,0.1-0.7,0.3c-0.4,0.3-0.6,0.6-0.8,1s-0.2,0.9-0.2,1.6c0,1.2,0,2.1,0.1,2.5c0,0.2,0.1,0.3,0.2,0.4s0.5,0.2,1.1,0.3v0.4
		c-0.7-0.1-1.3-0.1-1.8-0.1s-1.2,0-2.2,0.1v-0.4c0.7-0.2,1.1-0.3,1.2-0.4s0.1-0.4,0.1-0.8v-1.7c0-1.7,0-2.6,0-2.7
		c-0.1-0.2-0.2-0.3-0.4-0.3c-0.1,0-0.4,0-0.7,0.1C38.1,47.1,38.1,47.1,38,47.2z"/>
	<path class="st1" d="M50.2,51.6l0.3,0.5l-1.6,1.1c-0.2,0.1-0.4,0.3-0.7,0.3c-0.3,0.1-0.7,0.2-1,0.2c-0.9,0-1.6-0.3-2.2-1
		s-0.9-1.6-0.9-2.8c0-1.3,0.4-2.3,1.1-3.1s1.6-1.2,2.7-1.2c0.8,0,1.5,0.2,1.9,0.7s0.7,1.1,0.7,2.1c-0.2,0.1-0.4,0.3-0.6,0.5
		c-0.4,0-0.6,0-0.7,0c-1.4,0-2.6,0-3.7,0.1c0,1.2,0.2,2.1,0.6,2.7c0.4,0.6,1,0.9,1.6,0.9c0.3,0,0.7-0.1,1.1-0.2
		C49.2,52.2,49.7,51.9,50.2,51.6z M49.1,48.1c0-0.5-0.1-0.9-0.4-1.2c-0.3-0.4-0.7-0.6-1.2-0.6c-0.4,0-0.8,0.1-1.2,0.4
		c-0.3,0.3-0.6,0.8-0.8,1.5c0.2,0,0.3,0,0.4,0C46.9,48.2,47.9,48.2,49.1,48.1z"/>
	<path class="st1" d="M60.4,47.3v-0.6V45v-1.5c0-0.2,0-0.4-0.1-0.4c-0.1-0.1-0.3-0.2-0.6-0.2l-1.1-0.2v-0.5c1.2,0.1,2.1,0.1,2.6,0.1
		c0.6,0,1.4,0,2.5-0.1v0.5c-0.9,0.2-1.4,0.3-1.5,0.3S62,43.1,62,43.2c-0.1,0.1-0.1,0.4-0.1,0.8c0,0.8,0,2.2,0,4.1v3.8v0.2
		c0,0.2,0,0.4,0.1,0.5s0.7,0.2,1.7,0.4v0.5c-1.5-0.1-2.4-0.1-2.8-0.1c-0.7,0-1.4,0-2.4,0.1V53l1.5-0.3c0.1,0,0.2-0.1,0.2-0.2
		c0.1-0.1,0.1-0.3,0.1-0.6v-3.7c-1.4,0-2.5,0-3.2,0c-0.8,0-1.6,0-2.5,0V52c0,0.3,0,0.5,0.1,0.5s0.2,0.1,0.4,0.2
		c0.1,0,0.5,0.1,1.3,0.3v0.5c-1.3-0.1-2.2-0.1-2.7-0.1c-0.7,0-1.5,0-2.4,0.1V53c0.6-0.1,1-0.2,1.3-0.3c0.2,0,0.3-0.1,0.4-0.2
		s0.1-0.3,0.1-0.6c0-1,0-2.5,0-4.3v-3.9v-0.2c0-0.2,0-0.3-0.1-0.4c-0.1-0.1-0.2-0.1-0.4-0.2l-1.3-0.3v-0.4c1.1,0.1,2,0.1,2.7,0.1
		c0.8,0,1.6,0,2.5-0.1v0.5L55.2,43c-0.2,0-0.3,0.1-0.4,0.2s-0.1,0.2-0.1,0.4v3.8c0.8,0,1.7,0,2.6,0C58.4,47.3,59.4,47.3,60.4,47.3z"
		/>
	<path class="st1" d="M64.1,46.6v-0.4c1-0.1,1.9-0.2,2.7-0.4l0.1,0.2c-0.1,0.9-0.2,2-0.2,3.3c0,1.1,0,1.9,0.1,2.2s0.2,0.6,0.5,0.7
		c0.2,0.2,0.5,0.3,0.9,0.3s0.7-0.1,1.1-0.3c0.3-0.2,0.6-0.5,0.7-0.8s0.2-0.8,0.2-1.5c0-0.1,0-1,0-2.7c0-0.2-0.1-0.4-0.2-0.5
		s-0.4-0.1-0.9-0.2h-0.3v-0.3c1.1-0.1,2-0.2,2.7-0.4l0.2,0.2c0,0.4-0.1,1-0.1,1.7s0,1.4,0,2.3c0,1.1,0,1.8,0.1,2s0.2,0.3,0.4,0.3
		c0.1,0,0.4,0,0.8-0.1v0.4c-0.5,0.1-1,0.3-1.4,0.4s-0.8,0.3-1.2,0.6l-0.2-0.2c0.1-0.4,0.1-0.8,0.1-1.2c-0.6,0.6-1.1,1-1.4,1.1
		c-0.3,0.2-0.7,0.2-1,0.2c-0.7,0-1.3-0.2-1.6-0.5c-0.4-0.4-0.5-0.9-0.5-1.6v-2.8c0-1-0.1-1.6-0.2-1.7c-0.1-0.1-0.4-0.2-1-0.3
		C64.3,46.6,64.2,46.6,64.1,46.6z"/>
	<path class="st1" d="M73.2,47.2v-0.5c1-0.2,1.8-0.6,2.6-1l0.2,0.1c0,0.5-0.1,0.9-0.1,1.4l1-1c0.2-0.1,0.4-0.3,0.6-0.4
		c0.3-0.1,0.6-0.2,1-0.2c0.8,0,1.3,0.3,1.7,0.8c0.3,0.3,0.4,0.9,0.4,1.7V50c0,1.3,0,2,0,2.3c0,0.2,0.1,0.3,0.2,0.3
		c0.1,0.1,0.3,0.1,0.8,0.2c0.1,0,0.2,0.1,0.4,0.1v0.6c-0.6-0.1-1.2-0.1-1.7-0.1c-0.4,0-1.2,0-2.2,0.1v-0.4c0.6-0.2,1-0.3,1-0.4
		c0.1-0.1,0.1-0.2,0.1-0.3c0.1-0.5,0.1-1.3,0.1-2.4c0-1.2,0-1.9-0.1-2.1c-0.1-0.3-0.2-0.6-0.5-0.8c-0.2-0.2-0.5-0.3-0.9-0.3
		s-0.7,0.1-1,0.3s-0.6,0.5-0.8,0.8c-0.1,0.3-0.1,0.8-0.1,1.5c0,1.9,0,2.9,0.1,3.1s0.4,0.3,0.9,0.4c0.1,0,0.2,0,0.3,0.1v0.5
		c-0.7-0.1-1.3-0.1-1.8-0.1s-1.2,0-2.1,0.1v-0.4c0.6-0.1,1-0.3,1.1-0.3s0.1-0.2,0.1-0.3c0.1-0.5,0.1-1.2,0.1-2.1
		c0-1.8,0-2.8-0.1-2.9c-0.1-0.2-0.2-0.3-0.5-0.3c-0.1,0-0.3,0-0.5,0.1C73.5,47.1,73.4,47.1,73.2,47.2z"/>
	<path class="st1" d="M84.3,43.9h0.5l-0.2,2h2.2l0.1,0.2c-0.1,0.2-0.3,0.4-0.4,0.7c-0.6,0-1.3,0-1.9-0.1l-0.1,4.1l0,0
		c0,0.6,0.1,1.1,0.2,1.4s0.4,0.4,0.7,0.4c0.3,0,0.7-0.1,1.1-0.4l0.2,0.5c-0.6,0.4-1,0.6-1.3,0.7c-0.3,0.1-0.6,0.2-0.8,0.2
		c-0.4,0-0.6-0.1-0.9-0.3c-0.2-0.2-0.4-0.4-0.5-0.8c0-0.2-0.1-0.7-0.1-1.7s0-2.4,0.1-4.2c-0.4,0-0.8,0-1.2,0.1v-0.4
		c0.4-0.2,0.8-0.5,1.2-0.8C83.7,45.2,84,44.6,84.3,43.9z"/>
</g>
<g>
	<path class="st2" d="M11.1-46.7H8.7v6.3H7.2v-6.3H4.9V-48h6.2V-46.7z"/>
	<path class="st2" d="M14.7-44.6c-0.2,0-0.4,0-0.5,0c-0.6,0-0.9,0.2-1.1,0.6v3.7h-1.6v-5.6h1.4v0.7c0.3-0.5,0.7-0.8,1.3-0.8
		c0.2,0,0.3,0,0.5,0.1C14.7-45.9,14.7-44.6,14.7-44.6z"/>
	<path class="st2" d="M18-40.3c-0.8,0-1.5-0.3-2-0.8s-0.8-1.2-0.8-2v-0.1c0-0.6,0.1-1.1,0.3-1.5s0.5-0.8,0.9-1s0.9-0.4,1.4-0.4
		c0.8,0,1.4,0.2,1.8,0.7s0.7,1.2,0.7,2.1v0.6h-3.6c0,0.4,0.2,0.7,0.4,0.9c0.2,0.2,0.6,0.3,0.9,0.3c0.6,0,1-0.2,1.4-0.6l0.7,0.8
		c-0.2,0.3-0.5,0.6-0.9,0.7C18.8-40.5,18.5-40.3,18-40.3z M17.8-44.9c-0.3,0-0.5,0.1-0.7,0.3s-0.3,0.5-0.4,0.9h2.1v-0.1
		c0-0.3-0.1-0.6-0.3-0.8C18.4-44.8,18.1-44.9,17.8-44.9z"/>
	<path class="st2" d="M24.4-40.4c-0.1-0.1-0.1-0.3-0.2-0.5c-0.4,0.4-0.8,0.6-1.4,0.6s-1-0.2-1.4-0.5s-0.5-0.7-0.5-1.2
		c0-0.6,0.2-1.1,0.7-1.4c0.4-0.3,1.1-0.5,1.9-0.5h0.7v-0.3c0-0.3-0.1-0.5-0.2-0.6S23.7-45,23.4-45c-0.3,0-0.5,0.1-0.6,0.2
		s-0.2,0.3-0.2,0.5h-1.5c0-0.3,0.1-0.6,0.3-0.9c0.2-0.3,0.5-0.5,0.9-0.7s0.8-0.2,1.2-0.2c0.7,0,1.2,0.2,1.7,0.5
		c0.4,0.3,0.6,0.8,0.6,1.5v2.4c0,0.5,0.1,0.9,0.2,1.2v0.1C26-40.4,24.4-40.4,24.4-40.4z M23.2-41.4c0.2,0,0.4,0,0.6-0.1
		s0.3-0.2,0.4-0.4v-1h-0.6c-0.8,0-1.2,0.3-1.2,0.8v0.1c0,0.2,0.1,0.3,0.2,0.5C22.8-41.5,23-41.4,23.2-41.4z"/>
	<path class="st2" d="M29.9-41.9c0-0.2-0.1-0.3-0.3-0.4c-0.2-0.1-0.5-0.2-0.9-0.3c-1.3-0.3-2-0.9-2-1.7c0-0.5,0.2-0.9,0.6-1.3
		c0.4-0.3,1-0.5,1.6-0.5c0.7,0,1.3,0.2,1.7,0.5c0.4,0.3,0.6,0.8,0.6,1.3h-1.5c0-0.2-0.1-0.4-0.2-0.5S29.1-45,28.8-45
		c-0.3,0-0.4,0.1-0.6,0.2c-0.1,0.1-0.2,0.3-0.2,0.4c0,0.2,0.1,0.3,0.2,0.4c0.2,0.1,0.4,0.2,0.8,0.3s0.7,0.2,0.9,0.3
		c0.8,0.3,1.2,0.8,1.2,1.5c0,0.5-0.2,0.9-0.7,1.2c-0.4,0.3-1,0.5-1.7,0.5c-0.5,0-0.9-0.1-1.3-0.3s-0.7-0.4-0.9-0.7
		c-0.2-0.3-0.3-0.6-0.3-1h1.4c0,0.3,0.1,0.5,0.3,0.6c0.2,0.1,0.4,0.2,0.7,0.2c0.3,0,0.5-0.1,0.7-0.2C29.5-41.7,29.9-41.8,29.9-41.9z
		"/>
	<path class="st2" d="M35.7-40.9c-0.4,0.5-0.9,0.7-1.5,0.7s-1.1-0.2-1.4-0.5s-0.5-0.9-0.5-1.5v-3.7h1.5v3.6c0,0.6,0.3,0.9,0.8,0.9
		s0.9-0.2,1.1-0.5v-4h1.5v5.6h-1.4L35.7-40.9z"/>
	<path class="st2" d="M41.5-44.6c-0.2,0-0.4,0-0.5,0c-0.6,0-0.9,0.2-1.1,0.6v3.7h-1.5v-5.6h1.4v0.7c0.3-0.5,0.7-0.8,1.3-0.8
		c0.2,0,0.3,0,0.5,0.1L41.5-44.6z"/>
	<path class="st2" d="M44.8-40.3c-0.8,0-1.5-0.3-2-0.8s-0.8-1.2-0.8-2v-0.1c0-0.6,0.1-1.1,0.3-1.5s0.5-0.8,0.9-1s0.9-0.4,1.4-0.4
		c0.8,0,1.4,0.2,1.8,0.7s0.7,1.2,0.7,2.1v0.6h-3.6c0,0.4,0.2,0.7,0.4,0.9s0.6,0.3,0.9,0.3c0.6,0,1-0.2,1.4-0.6l0.7,0.8
		c-0.2,0.3-0.5,0.6-0.9,0.7C45.7-40.4,45.3-40.3,44.8-40.3z M44.6-44.9c-0.3,0-0.5,0.1-0.7,0.3s-0.3,0.5-0.4,0.9h2.1v-0.1
		c0-0.3-0.1-0.6-0.3-0.8C45.1-44.8,45-44.9,44.6-44.9z"/>
	<path class="st2" d="M56.9-40.4h-1.6v-3.2h-3v3.2h-1.6V-48h1.6v3.1h3V-48h1.6V-40.4z"/>
	<path class="st2" d="M61.5-40.9c-0.4,0.5-0.9,0.7-1.5,0.7s-1.1-0.2-1.4-0.5c-0.3-0.3-0.5-0.9-0.5-1.5v-3.7h1.5v3.6
		c0,0.6,0.3,0.9,0.8,0.9s0.9-0.2,1.1-0.5v-4H63v5.6h-1.4L61.5-40.9z"/>
	<path class="st2" d="M65.5-46v0.7c0.4-0.5,0.9-0.8,1.6-0.8c0.6,0,1,0.2,1.3,0.5c0.3,0.4,0.4,0.9,0.4,1.6v3.6h-1.3V-44
		c0-0.3-0.1-0.6-0.2-0.7c-0.1-0.1-0.4-0.2-0.7-0.2c-0.4,0-0.7,0.2-1,0.5v4h-1.5V-46C64.1-46,65.5-46,65.5-46z"/>
	<path class="st2" d="M71.9-47.4v1.4h1v1.1h-1v2.8c0,0.2,0,0.4,0.1,0.4c0.1,0.1,0.2,0.1,0.5,0.1c0.2,0,0.3,0,0.4,0v1.1
		c-0.3,0.1-0.6,0.1-0.9,0.1c-1.1,0-1.6-0.5-1.6-1.6v-3h-0.8v-1.1h0.8v-1.4L71.9-47.4L71.9-47.4z"/>
</g>
<g>
	<path class="st0" d="M9.8-21.4H9.4c-0.1-0.3-0.3-0.6-0.5-1c-0.2-0.3-0.4-0.5-0.6-0.6c-0.1,0-0.2,0-0.4,0c-0.2,0-0.3,0-0.4,0H7.2
		v5.5c0,0.1,0,0.2,0.1,0.3c0,0.1,0.1,0.2,0.3,0.2c0.1,0,0.2,0.1,0.4,0.1c0.2,0,0.3,0.1,0.4,0.1v0.4h-4v-0.4c0.1,0,0.2,0,0.4,0
		c0.2,0,0.3,0,0.4-0.1s0.2-0.1,0.2-0.2s0.1-0.2,0.1-0.3V-23H5.3c-0.1,0-0.2,0-0.4,0c-0.2,0-0.3,0-0.4,0c-0.2,0-0.4,0.2-0.6,0.6
		c-0.2,0.3-0.4,0.7-0.5,1H3v-2h6.8V-21.4z"/>
	<path class="st0" d="M14.5-20.4c0,0.3-0.1,0.5-0.2,0.7c-0.2,0.2-0.4,0.3-0.6,0.3c-0.2,0-0.4-0.1-0.6-0.2c-0.2-0.1-0.3-0.3-0.3-0.5
		c0-0.1,0-0.2,0-0.3c0-0.1,0-0.1,0-0.2c-0.2,0-0.3,0.1-0.5,0.2S12-20.2,11.9-20v2.7c0,0.1,0,0.2,0.1,0.3c0,0.1,0.1,0.1,0.2,0.2
		c0.1,0,0.2,0.1,0.4,0.1s0.3,0,0.4,0v0.4H9.6v-0.4c0.1,0,0.2,0,0.3,0s0.2,0,0.2,0c0.1,0,0.2-0.1,0.2-0.2s0.1-0.2,0.1-0.3v-2.9
		c0-0.1,0-0.2-0.1-0.3c-0.1-0.1-0.1-0.2-0.2-0.2c-0.1,0-0.1-0.1-0.2-0.1c-0.1,0-0.2,0-0.3-0.1v-0.4l2.4-0.1l0.1,0.1v0.7l0,0
		c0.2-0.3,0.5-0.5,0.7-0.6c0.3-0.2,0.5-0.2,0.8-0.2s0.6,0.1,0.7,0.3C14.4-21,14.5-20.7,14.5-20.4z"/>
	<path class="st0" d="M19.6-17.6c-0.1,0.2-0.3,0.4-0.4,0.5c-0.2,0.2-0.3,0.3-0.6,0.4c-0.2,0.1-0.4,0.2-0.7,0.3
		c-0.2,0.1-0.5,0.1-0.8,0.1c-0.5,0-0.9-0.1-1.3-0.2c-0.4-0.1-0.6-0.3-0.9-0.6c-0.2-0.2-0.4-0.5-0.5-0.8s-0.2-0.7-0.2-1
		s0.1-0.7,0.2-1c0.1-0.3,0.3-0.6,0.5-0.8c0.2-0.2,0.5-0.4,0.8-0.6c0.3-0.1,0.7-0.2,1.1-0.2c0.5,0,0.8,0.1,1.1,0.2
		c0.3,0.1,0.5,0.3,0.7,0.5s0.3,0.4,0.4,0.7c0.1,0.3,0.1,0.5,0.1,0.8v0.3h-3.3c0,0.7,0.1,1.2,0.4,1.5c0.3,0.4,0.7,0.5,1.2,0.5
		c0.3,0,0.6-0.1,0.8-0.3c0.2-0.2,0.5-0.4,0.6-0.6L19.6-17.6z M17.7-19.5c0-0.2,0-0.4,0-0.6s-0.1-0.4-0.1-0.5
		c-0.1-0.2-0.1-0.3-0.2-0.4s-0.2-0.1-0.4-0.1c-0.3,0-0.5,0.1-0.6,0.4c-0.2,0.3-0.2,0.7-0.2,1.2H17.7z"/>
	<path class="st0" d="M25.2-16.5c-0.1,0.1-0.3,0.1-0.5,0.2s-0.4,0.1-0.6,0.1c-0.4,0-0.7-0.1-0.9-0.2c-0.2-0.1-0.3-0.3-0.4-0.5l0,0
		c-0.1,0.1-0.2,0.2-0.3,0.3c-0.1,0.1-0.2,0.1-0.3,0.2c-0.2,0.1-0.3,0.1-0.4,0.2c-0.1,0-0.3,0.1-0.6,0.1c-0.4,0-0.7-0.1-1-0.3
		c-0.3-0.2-0.4-0.5-0.4-0.9c0-0.2,0-0.4,0.1-0.5c0.1-0.2,0.1-0.3,0.3-0.4c0.1-0.1,0.2-0.2,0.3-0.3c0.1-0.1,0.3-0.1,0.4-0.2
		c0.3-0.1,0.7-0.2,1.1-0.3c0.4-0.1,0.7-0.2,0.9-0.3V-20c0-0.1,0-0.2,0-0.3c0-0.1,0-0.2-0.1-0.3c0-0.1-0.1-0.2-0.2-0.3
		C22.5-21,22.4-21,22.2-21c-0.1,0-0.3,0-0.4,0.1c-0.1,0-0.2,0.1-0.2,0.1c0,0.1,0,0.2,0.1,0.3c0,0.1,0.1,0.3,0.1,0.4s0,0.1,0,0.2
		s-0.1,0.2-0.1,0.2c-0.1,0.1-0.2,0.1-0.3,0.2c-0.1,0-0.2,0.1-0.4,0.1c-0.3,0-0.5-0.1-0.6-0.2s-0.2-0.3-0.2-0.5s0.1-0.4,0.2-0.5
		s0.3-0.3,0.5-0.4s0.4-0.2,0.7-0.2c0.3-0.1,0.5-0.1,0.8-0.1s0.6,0,0.9,0.1c0.3,0,0.5,0.1,0.7,0.2s0.4,0.3,0.5,0.5s0.2,0.5,0.2,0.9
		s0,0.8,0,1.3s0,0.8,0,1c0,0.1,0,0.3,0.1,0.4c0,0.1,0.1,0.2,0.2,0.2s0.1,0,0.3,0c0.1,0,0.2,0,0.3,0v0.2H25.2z M22.7-19.1
		c-0.2,0.1-0.4,0.1-0.6,0.2s-0.3,0.2-0.4,0.3c-0.1,0.1-0.2,0.2-0.3,0.4c-0.1,0.1-0.1,0.3-0.1,0.5c0,0.3,0.1,0.4,0.2,0.6
		c0.1,0.1,0.3,0.2,0.4,0.2c0.2,0,0.3,0,0.5-0.1c0.1-0.1,0.2-0.2,0.3-0.3V-19.1z"/>
	<path class="st0" d="M27.3-16.2c-0.3,0-0.6,0-0.9-0.1s-0.5-0.2-0.7-0.3l-0.1,0.3h-0.4L25-18.2h0.4c0,0.1,0.1,0.3,0.2,0.5
		s0.2,0.4,0.4,0.5c0.2,0.1,0.3,0.3,0.5,0.4s0.4,0.2,0.6,0.2c0.3,0,0.5-0.1,0.7-0.2c0.1-0.1,0.2-0.3,0.2-0.5c0-0.1,0-0.2-0.1-0.3
		c-0.1-0.1-0.2-0.2-0.3-0.2c-0.1-0.1-0.3-0.1-0.4-0.2c-0.2,0-0.3-0.1-0.6-0.2c-0.2-0.1-0.4-0.1-0.6-0.2s-0.3-0.2-0.5-0.3
		c-0.1-0.1-0.3-0.3-0.4-0.5S25-19.6,25-19.8c0-0.5,0.2-0.8,0.6-1.1c0.4-0.3,0.9-0.4,1.5-0.4c0.3,0,0.6,0,0.8,0.1
		c0.3,0.1,0.5,0.1,0.6,0.2l0.1-0.3H29l0.1,1.7H29c-0.1-0.3-0.3-0.6-0.6-0.9c-0.3-0.2-0.6-0.4-0.9-0.4s-0.5,0.1-0.6,0.2
		s-0.2,0.3-0.2,0.4c0,0.3,0.1,0.4,0.3,0.5c0.2,0.1,0.5,0.2,0.9,0.3c0.6,0.2,1,0.4,1.3,0.6c0.3,0.3,0.4,0.6,0.4,1
		c0,0.5-0.2,1-0.6,1.3C28.5-16.4,28-16.2,27.3-16.2z"/>
	<path class="st0" d="M36.1-16.5l-2.4,0.1l-0.1-0.1v-0.6l0,0c-0.1,0.1-0.2,0.2-0.3,0.3c-0.1,0.1-0.2,0.2-0.4,0.3
		c-0.2,0.1-0.3,0.2-0.5,0.2s-0.4,0.1-0.7,0.1c-0.5,0-0.9-0.2-1.1-0.5c-0.3-0.3-0.4-0.7-0.4-1.3v-2.2c0-0.1,0-0.2-0.1-0.3
		c0-0.1-0.1-0.2-0.2-0.2s-0.2-0.1-0.3-0.1c-0.1,0-0.2,0-0.3,0v-0.4l2.4-0.1l0.1,0.1v3.3c0,0.3,0.1,0.6,0.2,0.8
		c0.1,0.2,0.3,0.2,0.5,0.2s0.4-0.1,0.6-0.2c0.2-0.1,0.3-0.3,0.4-0.4v-2.7c0-0.1,0-0.2-0.1-0.3c0-0.1-0.1-0.2-0.2-0.2
		c-0.1,0-0.1-0.1-0.3-0.1c-0.1,0-0.2,0-0.3,0v-0.4l2.4-0.1l0.1,0.1v3.8c0,0.1,0,0.2,0.1,0.3c0,0.1,0.1,0.1,0.2,0.2
		c0.1,0,0.1,0.1,0.2,0.1c0.1,0,0.2,0,0.3,0v0.3H36.1z"/>
	<path class="st0" d="M40.8-20.4c0,0.3-0.1,0.5-0.2,0.7c-0.2,0.2-0.4,0.3-0.6,0.3c-0.2,0-0.4-0.1-0.6-0.2c-0.2-0.1-0.3-0.3-0.3-0.5
		c0-0.1,0-0.2,0-0.3c0-0.1,0-0.1,0-0.2c-0.2,0-0.3,0.1-0.5,0.2s-0.3,0.2-0.4,0.4v2.7c0,0.1,0,0.2,0.1,0.3c0,0.1,0.1,0.1,0.2,0.2
		c0.1,0,0.2,0.1,0.4,0.1s0.3,0,0.4,0v0.4H36v-0.4c0.1,0,0.2,0,0.3,0s0.2,0,0.2,0c0.1,0,0.2-0.1,0.2-0.2s0.1-0.2,0.1-0.3v-2.9
		c0-0.1,0-0.2-0.1-0.3c-0.1-0.1-0.1-0.2-0.2-0.2c-0.1,0-0.1-0.1-0.2-0.1c-0.1,0-0.2,0-0.3-0.1v-0.4l2.4-0.1l0.1,0.1v0.7l0,0
		c0.2-0.3,0.5-0.5,0.7-0.6c0.3-0.2,0.5-0.2,0.8-0.2s0.6,0.1,0.7,0.3C40.7-21,40.8-20.7,40.8-20.4z"/>
	<path class="st0" d="M45.9-17.6c-0.1,0.2-0.3,0.4-0.4,0.5c-0.2,0.2-0.3,0.3-0.6,0.4c-0.2,0.1-0.4,0.2-0.7,0.3
		c-0.2,0.1-0.5,0.1-0.8,0.1c-0.5,0-0.9-0.1-1.3-0.2c-0.4-0.1-0.6-0.3-0.9-0.6c-0.2-0.2-0.4-0.5-0.5-0.8s-0.2-0.7-0.2-1
		s0.1-0.7,0.2-1c0.1-0.3,0.3-0.6,0.5-0.8c0.2-0.2,0.5-0.4,0.8-0.6c0.3-0.1,0.7-0.2,1.1-0.2c0.5,0,0.8,0.1,1.1,0.2s0.5,0.3,0.7,0.5
		s0.3,0.4,0.4,0.7c0.1,0.3,0.1,0.5,0.1,0.8v0.3h-3.3c0,0.7,0.1,1.2,0.4,1.5c0.3,0.4,0.7,0.5,1.2,0.5c0.3,0,0.6-0.1,0.8-0.3
		c0.2-0.2,0.5-0.4,0.6-0.6L45.9-17.6z M44-19.5c0-0.2,0-0.4,0-0.6s-0.1-0.4-0.1-0.5c-0.1-0.2-0.1-0.3-0.2-0.4
		c-0.1-0.1-0.2-0.1-0.4-0.1c-0.3,0-0.5,0.1-0.6,0.4c-0.2,0.3-0.2,0.7-0.2,1.2H44z"/>
	<path class="st0" d="M56.5-16.4h-3.8v-0.4c0.1,0,0.2,0,0.4,0s0.3,0,0.3-0.1c0.1,0,0.2-0.1,0.3-0.2c0-0.1,0.1-0.2,0.1-0.3v-2.4h-3
		v2.4c0,0.1,0,0.2,0.1,0.3c0,0.1,0.1,0.2,0.2,0.2c0.1,0,0.2,0.1,0.3,0.1c0.2,0,0.3,0,0.4,0.1v0.4H48v-0.4c0.1,0,0.2,0,0.4,0
		s0.3,0,0.3-0.1c0.1,0,0.2-0.1,0.2-0.2s0.1-0.2,0.1-0.3v-5c0-0.1,0-0.2-0.1-0.3c0-0.1-0.1-0.1-0.3-0.2c-0.1,0-0.2-0.1-0.4-0.1
		S47.9-23,47.9-23v-0.4h3.8v0.4c-0.1,0-0.2,0-0.4,0c-0.1,0-0.3,0.1-0.3,0.1c-0.1,0-0.2,0.1-0.3,0.2c0,0.1-0.1,0.2-0.1,0.3v2.1h3
		v-2.1c0-0.1,0-0.2-0.1-0.3c0-0.1-0.1-0.1-0.3-0.2c-0.1,0-0.2-0.1-0.3-0.1s-0.3-0.1-0.3-0.1v-0.4h3.8v0.4c-0.1,0-0.2,0-0.4,0
		c-0.1,0-0.3,0-0.4,0.1c-0.1,0-0.2,0.1-0.3,0.2c0,0.1-0.1,0.2-0.1,0.3v5c0,0.1,0,0.2,0.1,0.3c0,0.1,0.1,0.2,0.3,0.2
		c0.1,0,0.2,0.1,0.3,0.1c0.2,0,0.3,0,0.4,0v0.5H56.5z"/>
	<path class="st0" d="M63-16.5l-2.4,0.1l-0.1-0.1v-0.6l0,0c-0.1,0.1-0.2,0.2-0.3,0.3c-0.1,0.1-0.2,0.2-0.4,0.3
		c-0.2,0.1-0.3,0.2-0.5,0.2s-0.4,0.1-0.7,0.1c-0.5,0-0.9-0.2-1.1-0.5c-0.3-0.3-0.4-0.7-0.4-1.3v-2.2c0-0.1,0-0.2-0.1-0.3
		c0-0.1-0.1-0.2-0.2-0.2c-0.1,0-0.2-0.1-0.3-0.1s-0.2,0-0.3,0v-0.4l2.4-0.1l0.1,0.1v3.3c0,0.3,0.1,0.6,0.2,0.8
		c0.1,0.2,0.3,0.2,0.5,0.2s0.4-0.1,0.6-0.2c0.2-0.1,0.3-0.3,0.4-0.4v-2.7c0-0.1,0-0.2-0.1-0.3c0-0.1-0.1-0.2-0.2-0.2
		c-0.1,0-0.1-0.1-0.3-0.1c-0.1,0-0.2,0-0.3,0v-0.4l2.4-0.1l0.1,0.1v3.8c0,0.1,0,0.2,0.1,0.3c0,0.1,0.1,0.1,0.2,0.2
		c0.1,0,0.1,0.1,0.2,0.1c0.1,0,0.2,0,0.3,0v0.3H63z"/>
	<path class="st0" d="M69.4-16.4h-3v-0.4c0.1,0,0.1,0,0.2,0s0.2,0,0.2,0c0.1,0,0.1-0.1,0.1-0.2s0-0.2,0-0.3v-2.3
		c0-0.3-0.1-0.6-0.2-0.8c-0.1-0.2-0.3-0.3-0.5-0.3c-0.1,0-0.3,0-0.4,0.1c-0.1,0-0.2,0.1-0.3,0.2c-0.1,0.1-0.2,0.1-0.2,0.2
		c-0.1,0.1-0.1,0.1-0.1,0.2v2.7c0,0.1,0,0.2,0,0.3c0,0.1,0.1,0.1,0.2,0.2c0.1,0,0.1,0.1,0.2,0.1s0.2,0,0.2,0v0.4h-3v-0.4
		c0.1,0,0.2,0,0.3,0s0.2,0,0.2,0c0.1,0,0.2-0.1,0.2-0.2s0.1-0.2,0.1-0.3v-2.9c0-0.1,0-0.2-0.1-0.3c-0.1-0.1-0.1-0.2-0.2-0.2
		c-0.1,0-0.1-0.1-0.2-0.1c-0.1,0-0.2,0-0.3-0.1v-0.4l2.4-0.1l0.1,0.1v0.7l0,0c0.1-0.1,0.2-0.2,0.3-0.3c0.1-0.1,0.3-0.2,0.4-0.3
		c0.1-0.1,0.3-0.1,0.5-0.2s0.4-0.1,0.6-0.1c0.5,0,0.9,0.2,1.2,0.5c0.3,0.3,0.4,0.7,0.4,1.2v2.4c0,0.1,0,0.2,0.1,0.3s0.1,0.1,0.2,0.2
		c0.1,0,0.1,0,0.2,0.1c0.1,0,0.2,0,0.3,0L69.4-16.4L69.4-16.4z"/>
	<path class="st0" d="M73-16.6c-0.2,0.1-0.4,0.2-0.7,0.3c-0.2,0.1-0.5,0.1-0.9,0.1c-0.5,0-0.9-0.1-1.1-0.4s-0.4-0.6-0.4-1.1v-3H69
		v-0.5h0.9v-1.5h1.6v1.5h1.4v0.5h-1.4v2.7c0,0.4,0.1,0.7,0.2,0.8C71.8-17,72-17,72.3-17c0.1,0,0.2,0,0.4,0c0.2,0,0.3,0,0.3,0V-16.6z
		"/>
</g>
</svg>
