<svg enable-background="new 0 0 50 50" viewBox="0 0 50 50" xmlns="http://www.w3.org/2000/svg"><g style="fill:none;stroke:#222220;stroke-width:2.3379;stroke-linecap:round;stroke-linejoin:round;stroke-miterlimit:10"><path d="m1.6 18c0-1.3 1-2.3 2.3-2.3s2.3 1 2.3 2.3-2.2 4.7-2.2 4.7-2.4-3.4-2.4-4.7z"/><path d="m48.4 29.7c0 1.3-1 2.3-2.3 2.3s-2.3-1-2.3-2.3 2.3-4.7 2.3-4.7 2.3 3.4 2.3 4.7z"/><path d="m34.4 24.2v24.2"/><path d="m34.4 6.3v9.3"/><path d="m35.5 48.4h-2.3"/><path d="m30.8 1.6h7c1.3 0 2.3 1 2.3 2.3v13.1c0 .5-.2 1.1-.5 1.5l-3.5 4.2c-.9 1.1-2.7 1.1-3.6 0l-3.5-4.1c-.3-.4-.5-.9-.5-1.5v-13.1c0-1.3 1.1-2.4 2.3-2.4z"/><path d="m15.6 25.8v-24.2"/><path d="m15.6 43.7v-9.3"/><path d="m14.5 1.6h2.3"/><path d="m19.2 48.4h-7c-1.3 0-2.3-1-2.3-2.3v-13.2c0-.5.2-1.1.5-1.5l3.5-4.2c.9-1.1 2.7-1.1 3.6 0l3.5 4.2c.3.4.5.9.5 1.5v13.1c0 1.3-1.1 2.4-2.3 2.4z"/></g></svg>