<?xml version="1.0" encoding="utf-8"?>
<!-- Generator: Adobe Illustrator 15.0.0, SVG Export Plug-In . SVG Version: 6.00 Build 0)  -->
<!DOCTYPE svg PUBLIC "-//W3C//DTD SVG 1.1//EN" "http://www.w3.org/Graphics/SVG/1.1/DTD/svg11.dtd">
<svg version="1.1" id="Layer_1" xmlns="http://www.w3.org/2000/svg" xmlns:xlink="http://www.w3.org/1999/xlink" x="0px" y="0px"
	 width="280px" height="120px" viewBox="0 0 280 120" enable-background="new 0 0 280 120" xml:space="preserve">
<g opacity="0.1">
	<path fill="#00718D" d="M164.033,103.943c-0.538,0-0.982-0.428-0.999-0.971l-2.625-85.742c-0.017-0.552,0.417-1.013,0.97-1.03
		c0.01,0,0.021,0,0.031,0c0.538,0,0.982,0.428,0.999,0.969l2.625,85.741c0.017,0.553-0.417,1.014-0.97,1.03
		C164.055,103.943,164.044,103.943,164.033,103.943z"/>
	<path fill="#00718D" d="M167.285,25.389c-0.29,0-0.577-0.125-0.775-0.367l-4.984-6.099l-3.264,5.303
		c-0.289,0.47-0.904,0.616-1.377,0.328c-0.47-0.29-0.615-0.905-0.326-1.375l4.735-7.697l6.765,8.276
		c0.352,0.428,0.287,1.058-0.142,1.407C167.73,25.316,167.508,25.389,167.285,25.389z"/>
	<path fill="#00718D" d="M168.159,35.152c-0.28,0-0.56-0.118-0.759-0.347l-5.642-6.548l-4.545,6.172
		c-0.327,0.445-0.952,0.54-1.397,0.212c-0.445-0.328-0.541-0.954-0.213-1.398l6.033-8.193l7.278,8.449
		c0.36,0.418,0.313,1.05-0.104,1.411C168.623,35.072,168.391,35.152,168.159,35.152z"/>
	<path fill="#00718D" d="M167.598,48.193c-0.27,0-0.537-0.108-0.733-0.321l-4.855-5.257l-3.271,3.883
		c-0.354,0.421-0.986,0.477-1.409,0.121c-0.422-0.356-0.478-0.987-0.12-1.409l4.729-5.617l6.396,6.922
		c0.375,0.406,0.351,1.039-0.056,1.413C168.083,48.105,167.84,48.193,167.598,48.193z"/>
	<path fill="#00718D" d="M168.575,59.485c-0.229,0-0.462-0.079-0.649-0.241l-5.857-5.019l-3.35,3.766
		c-0.365,0.413-0.998,0.45-1.41,0.083c-0.414-0.367-0.449-0.999-0.084-1.412l4.652-5.234l7.35,6.297
		c0.42,0.359,0.469,0.991,0.108,1.41C169.137,59.366,168.855,59.485,168.575,59.485z"/>
	<path fill="#00718D" d="M168.617,70.277c-0.262,0-0.523-0.104-0.721-0.307l-4.955-5.144l-4.279,4.604
		c-0.377,0.403-1.01,0.426-1.413,0.051c-0.405-0.375-0.429-1.008-0.052-1.412l5.72-6.148l6.421,6.66
		c0.383,0.398,0.371,1.031-0.025,1.414C169.117,70.184,168.867,70.277,168.617,70.277z"/>
	<path fill="#00718D" d="M168.372,83.277c-0.298,0-0.593-0.133-0.789-0.385l-4.966-6.357l-4.201,4.518
		c-0.377,0.404-1.01,0.428-1.413,0.053c-0.405-0.377-0.428-1.01-0.052-1.414l5.799-6.231l6.409,8.203
		c0.34,0.437,0.263,1.063-0.173,1.403C168.805,83.207,168.588,83.277,168.372,83.277z"/>
	<path fill="#00718D" d="M193.913,84.818c-0.534,0-0.978-0.424-0.998-0.963l-3-79.625c-0.021-0.552,0.409-1.016,0.961-1.037
		c0.587-0.015,1.017,0.41,1.037,0.962l3,79.625c0.021,0.554-0.409,1.019-0.961,1.037C193.938,84.818,193.926,84.818,193.913,84.818z
		"/>
	<path fill="#00718D" d="M185.914,10.693c-0.24,0-0.48-0.086-0.673-0.26c-0.408-0.371-0.438-1.004-0.067-1.413l5.663-6.229
		l6.614,5.84c0.414,0.365,0.453,0.998,0.088,1.412c-0.367,0.415-0.998,0.453-1.412,0.087l-5.136-4.535l-4.337,4.771
		C186.457,10.583,186.186,10.693,185.914,10.693z"/>
	<path fill="#00718D" d="M186.289,20.588c-0.252,0-0.504-0.095-0.697-0.284c-0.396-0.386-0.404-1.019-0.019-1.414l5.646-5.785
		l5.834,4.839c0.426,0.353,0.483,0.983,0.131,1.408c-0.352,0.425-0.981,0.484-1.406,0.131l-4.416-3.661l-4.354,4.465
		C186.809,20.487,186.549,20.588,186.289,20.588z"/>
	<path fill="#00718D" d="M198.061,30.409c-0.197,0-0.397-0.059-0.572-0.182l-6-4.223l-3.41,4.049
		c-0.354,0.421-0.985,0.477-1.409,0.121c-0.422-0.356-0.478-0.987-0.119-1.409l4.591-5.452l7.5,5.278
		c0.45,0.318,0.561,0.942,0.241,1.394C198.686,30.262,198.376,30.409,198.061,30.409z"/>
	<path fill="#00718D" d="M187.594,39.915c-0.234,0-0.474-0.083-0.664-0.252c-0.412-0.367-0.449-0.999-0.082-1.412l4.582-5.155
		l6.912,4.679c0.457,0.31,0.577,0.931,0.27,1.389c-0.311,0.457-0.932,0.579-1.391,0.268l-5.461-3.696l-3.418,3.845
		C188.143,39.802,187.869,39.915,187.594,39.915z"/>
	<path fill="#00718D" d="M187.07,50.841c-0.244,0-0.488-0.088-0.682-0.268c-0.404-0.376-0.429-1.009-0.052-1.414l5.647-6.073
		l6.722,5.676c0.422,0.356,0.476,0.987,0.118,1.409c-0.354,0.422-0.985,0.476-1.409,0.119l-5.265-4.446l-4.352,4.677
		C187.605,50.734,187.338,50.841,187.07,50.841z"/>
	<path fill="#00718D" d="M187.594,60.799c-0.244,0-0.488-0.088-0.681-0.268c-0.405-0.376-0.429-1.01-0.052-1.414l5.647-6.073
		l6.722,5.676c0.422,0.356,0.476,0.987,0.119,1.409c-0.354,0.422-0.984,0.477-1.41,0.119l-5.265-4.446l-4.35,4.678
		C188.129,60.691,187.861,60.799,187.594,60.799z"/>
	<path fill="#00718D" d="M218.348,97.711c-0.539,0-0.981-0.43-0.998-0.973l-2.106-73.48c-0.017-0.552,0.419-1.013,0.973-1.028
		c0.562-0.014,1.013,0.419,1.027,0.971l2.106,73.482c0.017,0.551-0.42,1.012-0.973,1.026
		C218.368,97.711,218.357,97.711,218.348,97.711z"/>
	<path fill="#00718D" d="M220.117,28.416c-0.27,0-0.537-0.108-0.734-0.321l-3.111-3.363l-2.271,2.647
		c-0.358,0.42-0.989,0.468-1.409,0.108c-0.42-0.359-0.469-0.991-0.107-1.41l3.73-4.353l4.637,5.012
		c0.375,0.405,0.353,1.038-0.055,1.413C220.604,28.328,220.359,28.416,220.117,28.416z"/>
	<path fill="#00718D" d="M221.366,36.839c-0.226,0-0.451-0.076-0.638-0.23l-4.412-3.659l-3.356,3.461
		c-0.385,0.397-1.019,0.406-1.413,0.021c-0.396-0.385-0.406-1.018-0.021-1.414l4.645-4.789l5.839,4.841
		c0.425,0.353,0.482,0.983,0.132,1.408C221.939,36.716,221.654,36.839,221.366,36.839z"/>
	<path fill="#00718D" d="M222.18,48.652c-0.244,0-0.49-0.089-0.684-0.27l-5.169-4.841l-3.321,3.943
		c-0.354,0.421-0.986,0.477-1.408,0.121s-0.478-0.987-0.121-1.409l4.68-5.557l6.709,6.282c0.402,0.377,0.424,1.01,0.046,1.414
		C222.715,48.546,222.447,48.652,222.18,48.652z"/>
	<path fill="#00718D" d="M211.991,59.854c-0.212,0-0.423-0.065-0.604-0.203c-0.438-0.334-0.525-0.961-0.191-1.401l4.904-6.459
		l6.744,6.004c0.412,0.367,0.449,1,0.082,1.412s-1,0.448-1.412,0.082l-5.129-4.567l-3.597,4.737
		C212.592,59.719,212.293,59.854,211.991,59.854z"/>
	<path fill="#00718D" d="M222.18,70.955c-0.262,0-0.521-0.104-0.72-0.307l-4.858-5.043l-3.193,4.408
		c-0.323,0.444-0.947,0.549-1.396,0.223c-0.447-0.324-0.547-0.949-0.224-1.396l4.597-6.344l6.518,6.764
		c0.384,0.396,0.371,1.029-0.025,1.414C222.68,70.861,222.43,70.955,222.18,70.955z"/>
	<path fill="#00718D" d="M222.18,80.197c-0.262,0-0.521-0.104-0.72-0.307l-4.858-5.043l-3.193,4.407
		c-0.323,0.445-0.947,0.55-1.396,0.224c-0.447-0.324-0.547-0.949-0.224-1.396l4.597-6.342l6.518,6.764
		c0.384,0.396,0.371,1.029-0.025,1.412C222.68,80.104,222.43,80.197,222.18,80.197z"/>
	<path fill="#00718D" d="M239.598,101.818c-0.547,0-0.994-0.439-1-0.988l-0.854-67.227c-0.008-0.552,0.438-1.005,0.986-1.013
		c0.59-0.005,1.006,0.436,1.014,0.987l0.854,67.228c0.006,0.553-0.437,1.006-0.986,1.014
		C239.605,101.818,239.6,101.818,239.598,101.818z"/>
	<path fill="#00718D" d="M233.973,39.193c-0.263,0-0.522-0.102-0.721-0.306c-0.384-0.397-0.371-1.031,0.025-1.414l5.365-5.177
		l6.612,4.664c0.451,0.318,0.562,0.942,0.241,1.394c-0.318,0.451-0.941,0.559-1.395,0.241l-5.262-3.711l-4.178,4.029
		C234.473,39.1,234.223,39.193,233.973,39.193z"/>
	<path fill="#00718D" d="M243.889,49.716c-0.226,0-0.451-0.076-0.639-0.23l-4.412-3.659l-3.355,3.461
		c-0.385,0.397-1.018,0.406-1.414,0.021c-0.396-0.384-0.405-1.018-0.021-1.414l4.646-4.789l5.838,4.841
		c0.425,0.353,0.482,0.983,0.131,1.408C244.461,49.593,244.176,49.716,243.889,49.716z"/>
	<path fill="#00718D" d="M244.408,60.256c-0.213,0-0.426-0.066-0.605-0.205l-4.945-3.785l-3.36,3.609
		c-0.376,0.404-1.011,0.426-1.413,0.051c-0.402-0.377-0.427-1.01-0.05-1.415l4.598-4.938l6.388,4.888
		c0.438,0.335,0.521,0.963,0.188,1.402C245.008,60.12,244.709,60.256,244.408,60.256z"/>
	<path fill="#00718D" d="M244.408,70.006c-0.203,0-0.408-0.063-0.585-0.189l-4.988-3.61l-3.647,3.521
		c-0.396,0.385-1.029,0.371-1.414-0.024c-0.383-0.396-0.371-1.029,0.025-1.414l4.854-4.683l6.345,4.593
		c0.448,0.323,0.548,0.948,0.226,1.396C245.023,69.861,244.719,70.006,244.408,70.006z"/>
	<path fill="#00718D" d="M245.096,79.068c-0.174,0-0.352-0.047-0.513-0.144l-5.544-3.317l-4.363,3.09
		c-0.453,0.318-1.076,0.211-1.396-0.238c-0.318-0.451-0.211-1.074,0.238-1.395l5.43-3.844l6.662,3.987
		c0.475,0.283,0.629,0.897,0.346,1.371C245.768,78.895,245.436,79.068,245.096,79.068z"/>
	<path fill="#00718D" d="M245.596,89.131c-0.191,0-0.388-0.057-0.56-0.172l-5.937-4.021l-3.313,3.166
		c-0.398,0.381-1.032,0.367-1.414-0.03c-0.382-0.398-0.366-1.031,0.031-1.414l4.479-4.283l7.271,4.931
		c0.457,0.311,0.576,0.932,0.269,1.389C246.23,88.977,245.916,89.131,245.596,89.131z"/>
	<path fill="#00718D" d="M260.706,104.818c-0.547,0-0.993-0.439-1-0.988l-0.854-73.379c-0.006-0.552,0.438-1.005,0.988-1.012
		c0.547-0.021,1.006,0.436,1.012,0.988l0.854,73.38c0.007,0.553-0.437,1.004-0.987,1.012
		C260.715,104.818,260.71,104.818,260.706,104.818z"/>
	<path fill="#00718D" d="M254.785,37.36c-0.23,0-0.462-0.079-0.65-0.24c-0.418-0.359-0.469-0.99-0.107-1.41l5.736-6.704l7.277,6.614
		c0.408,0.372,0.438,1.004,0.066,1.413c-0.371,0.41-1.002,0.438-1.412,0.068l-5.754-5.228l-4.396,5.138
		C255.348,37.241,255.066,37.36,254.785,37.36z"/>
	<path fill="#00718D" d="M255.117,49.716c-0.208,0-0.417-0.064-0.598-0.198c-0.442-0.331-0.533-0.957-0.203-1.399l5.436-7.288
		l6.463,6.271c0.396,0.385,0.406,1.018,0.021,1.414c-0.385,0.397-1.019,0.406-1.414,0.021l-4.828-4.685l-4.074,5.462
		C255.723,49.577,255.422,49.716,255.117,49.716z"/>
	<path fill="#00718D" d="M265.809,59.272c-0.213,0-0.426-0.067-0.605-0.206l-4.944-3.784l-3.36,3.609
		c-0.375,0.404-1.012,0.426-1.414,0.05c-0.403-0.376-0.426-1.009-0.049-1.414l4.598-4.938l6.387,4.888
		c0.438,0.335,0.521,0.963,0.188,1.402C266.407,59.137,266.109,59.272,265.809,59.272z"/>
	<path fill="#00718D" d="M265.943,70.955c-0.202,0-0.407-0.063-0.584-0.189l-4.988-3.608l-3.646,3.52
		c-0.396,0.386-1.031,0.373-1.414-0.024c-0.385-0.396-0.373-1.029,0.024-1.414l4.853-4.682l6.346,4.592
		c0.447,0.324,0.548,0.949,0.226,1.395C266.559,70.811,266.254,70.955,265.943,70.955z"/>
	<path fill="#00718D" d="M266.66,83.943c-0.262,0-0.521-0.103-0.719-0.305l-5.506-5.671l-4.187,4.953
		c-0.354,0.422-0.985,0.478-1.408,0.117c-0.422-0.354-0.476-0.986-0.118-1.408l5.607-6.641l7.046,7.256
		c0.386,0.396,0.375,1.028-0.021,1.414C267.162,83.85,266.911,83.943,266.66,83.943z"/>
	<path fill="#00718D" d="M139.409,104.818c-0.354,0-0.703-0.008-1.046-0.023c-0.552-0.027-0.978-0.496-0.951-1.049
		c0.025-0.551,0.488-0.982,1.047-0.949c0.312,0.014,0.629,0.021,0.95,0.021c7.976,0,14.442-2.726,19.718-5.389
		c0.493-0.25,1.096-0.052,1.344,0.438c0.25,0.493,0.051,1.096-0.439,1.346C154.544,101.984,147.805,104.818,139.409,104.818z"/>
	<path fill="#00718D" d="M168.098,94.689c-0.353,0-0.69-0.187-0.875-0.515c-0.27-0.481-0.096-1.092,0.389-1.36
		c9.693-5.4,18.742-9.871,31.299-9.871c4.869,0,9.785,1.022,15.033,3.131c0.512,0.207,0.761,0.789,0.555,1.301
		c-0.205,0.514-0.788,0.76-1.301,0.557c-5.006-2.01-9.68-2.988-14.287-2.988c-12.075,0-20.878,4.357-30.326,9.621
		C168.43,94.648,168.264,94.689,168.098,94.689z"/>
	<path fill="#00718D" d="M276.409,104.818h-23.5c-9.207,0-17.185-4.648-25.632-9.57c-1.744-1.016-3.549-2.066-5.351-3.064
		c-0.481-0.268-0.657-0.875-0.391-1.358c0.269-0.482,0.878-0.656,1.358-0.392c1.82,1.01,3.635,2.064,5.389,3.088
		c8.205,4.781,15.957,9.297,24.624,9.297h23.5c0.553,0,1,0.447,1,1C277.407,104.372,276.962,104.818,276.409,104.818z"/>
</g>
<g opacity="0.1">
	<path fill="#00718D" d="M306.261,111.07c-0.553,0-1-0.447-1-1V41.82c0-0.552,0.447-1,1-1c0.551,0,1,0.448,1,1v68.25
		C307.261,110.623,306.813,111.07,306.261,111.07z"/>
	<path fill="#00718D" d="M311.386,49.32c-0.295,0-0.588-0.13-0.787-0.381l-4.395-5.573l-4.205,4.626
		c-0.371,0.407-1.004,0.439-1.412,0.067c-0.409-0.371-0.438-1.004-0.067-1.413l5.795-6.374l5.854,7.427
		c0.342,0.434,0.269,1.063-0.166,1.404C311.821,49.25,311.603,49.32,311.386,49.32z"/>
	<path fill="#00718D" d="M301.261,58.695c-0.252,0-0.504-0.095-0.698-0.284c-0.396-0.386-0.402-1.019-0.019-1.414l5.646-5.785
		l5.834,4.839c0.426,0.353,0.483,0.983,0.131,1.408c-0.353,0.427-0.98,0.484-1.408,0.131l-4.414-3.661l-4.355,4.465
		C301.779,58.594,301.521,58.695,301.261,58.695z"/>
	<path fill="#00718D" d="M313.009,67.695c-0.199,0-0.397-0.06-0.574-0.185l-6-4.223l-3.409,4.051
		c-0.355,0.422-0.988,0.476-1.408,0.119c-0.422-0.354-0.477-0.985-0.121-1.408l4.592-5.45l7.5,5.276
		c0.451,0.315,0.56,0.94,0.24,1.394C313.634,67.549,313.323,67.695,313.009,67.695z"/>
	<path fill="#00718D" d="M302.261,78.445c-0.235,0-0.475-0.084-0.663-0.254c-0.414-0.365-0.451-0.998-0.084-1.41l4.596-5.17
		l5.854,4.143c0.449,0.318,0.558,0.943,0.238,1.395c-0.319,0.453-0.941,0.558-1.396,0.238l-4.395-3.107l-3.404,3.83
		C302.811,78.332,302.534,78.445,302.261,78.445z"/>
	<path fill="#00718D" d="M301.261,88.195c-0.243,0-0.487-0.09-0.682-0.269c-0.404-0.377-0.429-1.01-0.052-1.413l5.615-6.035
		l5.845,4.418c0.44,0.334,0.528,0.961,0.194,1.401c-0.334,0.438-0.961,0.525-1.399,0.193l-4.404-3.33l-4.387,4.713
		C301.796,88.088,301.527,88.195,301.261,88.195z"/>
	<path fill="#00718D" d="M328.198,89.945c-0.554,0-1-0.447-1-1V17.57c0-0.552,0.446-1,1-1c0.553,0,1,0.448,1,1v71.375
		C329.198,89.498,328.751,89.945,328.198,89.945z"/>
	<path fill="#00718D" d="M323.196,24.07c-0.24,0-0.479-0.086-0.672-0.26c-0.408-0.371-0.438-1.004-0.066-1.413l5.662-6.229
		l6.615,5.84c0.414,0.365,0.452,0.998,0.086,1.412c-0.365,0.414-0.996,0.454-1.412,0.087l-5.135-4.535l-4.339,4.771
		C323.739,23.96,323.47,24.07,323.196,24.07z"/>
	<path fill="#00718D" d="M323.198,35.204c-0.252,0-0.504-0.095-0.697-0.284c-0.396-0.386-0.404-1.019-0.02-1.414l5.645-5.785
		l5.836,4.839c0.424,0.353,0.482,0.983,0.131,1.408c-0.354,0.427-0.981,0.484-1.408,0.131l-4.415-3.661l-4.355,4.465
		C323.718,35.103,323.456,35.204,323.198,35.204z"/>
	<path fill="#00718D" d="M334.946,45.195c-0.199,0-0.398-0.059-0.574-0.182l-6-4.223l-3.408,4.049
		c-0.356,0.422-0.988,0.476-1.41,0.121c-0.422-0.356-0.477-0.987-0.121-1.409l4.593-5.452l7.5,5.278
		c0.45,0.318,0.561,0.942,0.241,1.394C335.571,45.047,335.261,45.195,334.946,45.195z"/>
	<path fill="#00718D" d="M324.196,56.445c-0.234,0-0.474-0.083-0.664-0.252c-0.412-0.367-0.449-0.999-0.082-1.412l4.582-5.155
		l6.914,4.679c0.457,0.31,0.576,0.931,0.268,1.389c-0.308,0.458-0.932,0.577-1.389,0.268l-5.463-3.696l-3.416,3.845
		C324.747,56.332,324.474,56.445,324.196,56.445z"/>
	<path fill="#00718D" d="M334.386,67.695c-0.264,0-0.524-0.104-0.721-0.307l-4.955-5.144l-4.281,4.603
		c-0.377,0.405-1.008,0.426-1.412,0.053c-0.403-0.377-0.428-1.01-0.051-1.414l5.719-6.147L335.105,66
		c0.383,0.398,0.37,1.031-0.027,1.414C334.886,67.602,334.636,67.695,334.386,67.695z"/>
	<path fill="#00718D" d="M440.384,105.82c-0.537,0-0.981-0.428-0.998-0.971l-2.625-85.742c-0.018-0.552,0.416-1.013,0.97-1.03
		c0.01,0,0.021,0,0.03,0c0.539,0,0.982,0.428,1,0.969l2.625,85.741c0.017,0.553-0.418,1.014-0.971,1.03
		C440.405,105.82,440.396,105.82,440.384,105.82z"/>
	<path fill="#00718D" d="M443.636,27.266c-0.289,0-0.576-0.125-0.774-0.367l-4.984-6.099l-3.264,5.303
		c-0.289,0.47-0.904,0.616-1.377,0.328c-0.47-0.29-0.615-0.905-0.326-1.375l4.735-7.697l6.765,8.276
		c0.352,0.428,0.287,1.058-0.142,1.407C444.081,27.193,443.858,27.266,443.636,27.266z"/>
	<path fill="#00718D" d="M444.511,37.029c-0.28,0-0.561-0.118-0.758-0.347l-5.643-6.548l-4.545,6.172
		c-0.328,0.445-0.953,0.54-1.398,0.212s-0.539-0.954-0.213-1.398l6.033-8.193l7.278,8.449c0.361,0.418,0.313,1.05-0.104,1.411
		C444.974,36.949,444.741,37.029,444.511,37.029z"/>
	<path fill="#00718D" d="M443.948,50.07c-0.271,0-0.537-0.108-0.734-0.321l-4.854-5.257l-3.271,3.883
		c-0.354,0.421-0.986,0.477-1.41,0.121c-0.422-0.356-0.477-0.987-0.119-1.409l4.729-5.617l6.395,6.922
		c0.375,0.406,0.351,1.039-0.055,1.413C444.435,49.982,444.19,50.07,443.948,50.07z"/>
	<path fill="#00718D" d="M444.927,61.361c-0.229,0-0.463-0.078-0.649-0.24l-5.857-5.019l-3.35,3.766
		c-0.365,0.413-0.998,0.45-1.41,0.083c-0.414-0.367-0.449-0.999-0.084-1.412l4.651-5.234l7.351,6.296
		c0.42,0.359,0.469,0.992,0.109,1.41C445.487,61.243,445.206,61.361,444.927,61.361z"/>
	<path fill="#00718D" d="M444.968,72.154c-0.262,0-0.522-0.104-0.721-0.307l-4.953-5.144l-4.281,4.604
		c-0.377,0.403-1.01,0.426-1.412,0.051c-0.405-0.375-0.428-1.008-0.053-1.412l5.721-6.148l6.421,6.66
		c0.383,0.398,0.37,1.031-0.025,1.414C445.468,72.061,445.218,72.154,444.968,72.154z"/>
	<path fill="#00718D" d="M444.724,85.154c-0.299,0-0.592-0.133-0.789-0.385l-4.967-6.357l-4.201,4.518
		c-0.377,0.404-1.01,0.428-1.411,0.053c-0.406-0.377-0.429-1.01-0.054-1.414l5.799-6.231l6.41,8.203
		c0.34,0.437,0.263,1.063-0.174,1.403C445.155,85.084,444.938,85.154,444.724,85.154z"/>
	<path fill="#00718D" d="M470.265,86.695c-0.534,0-0.979-0.424-0.998-0.963l-3-79.625c-0.021-0.552,0.408-1.016,0.962-1.037
		c0.586-0.015,1.016,0.41,1.036,0.962l3,79.625c0.021,0.553-0.409,1.018-0.961,1.036C470.288,86.695,470.276,86.695,470.265,86.695z
		"/>
	<path fill="#00718D" d="M462.265,12.57c-0.239,0-0.479-0.086-0.672-0.26c-0.408-0.371-0.438-1.004-0.067-1.413l5.664-6.229
		l6.612,5.84c0.414,0.365,0.453,0.998,0.088,1.412c-0.366,0.415-0.998,0.453-1.411,0.087l-5.136-4.535l-4.338,4.771
		C462.808,12.46,462.536,12.57,462.265,12.57z"/>
	<path fill="#00718D" d="M462.64,22.465c-0.252,0-0.504-0.095-0.696-0.284c-0.396-0.386-0.404-1.019-0.019-1.414l5.646-5.785
		l5.834,4.839c0.426,0.353,0.483,0.983,0.131,1.408s-0.982,0.484-1.406,0.131l-4.416-3.661l-4.354,4.465
		C463.159,22.364,462.899,22.465,462.64,22.465z"/>
	<path fill="#00718D" d="M474.411,32.286c-0.197,0-0.398-0.059-0.572-0.182l-6-4.223l-3.41,4.049
		c-0.354,0.421-0.985,0.477-1.41,0.121c-0.422-0.356-0.477-0.987-0.118-1.409l4.59-5.452l7.5,5.278
		c0.451,0.318,0.561,0.942,0.242,1.394C475.036,32.139,474.728,32.286,474.411,32.286z"/>
	<path fill="#00718D" d="M463.944,41.792c-0.234,0-0.474-0.083-0.664-0.252c-0.412-0.367-0.449-0.999-0.082-1.412l4.582-5.155
		l6.912,4.679c0.457,0.31,0.577,0.931,0.27,1.389c-0.311,0.457-0.932,0.579-1.391,0.268l-5.461-3.696l-3.418,3.845
		C464.493,41.679,464.22,41.792,463.944,41.792z"/>
	<path fill="#00718D" d="M463.421,52.718c-0.244,0-0.488-0.088-0.682-0.268c-0.404-0.376-0.429-1.009-0.052-1.414l5.648-6.073
		l6.721,5.676c0.422,0.356,0.476,0.987,0.119,1.409c-0.354,0.422-0.985,0.476-1.41,0.119l-5.264-4.446l-4.352,4.677
		C463.956,52.611,463.688,52.718,463.421,52.718z"/>
	<path fill="#00718D" d="M463.944,62.676c-0.244,0-0.488-0.088-0.681-0.268c-0.405-0.377-0.428-1.01-0.053-1.414l5.648-6.073
		l6.721,5.677c0.424,0.354,0.477,0.985,0.119,1.407c-0.354,0.422-0.984,0.478-1.41,0.119l-5.264-4.446l-4.351,4.677
		C464.479,62.568,464.212,62.676,463.944,62.676z"/>
	<path fill="#00718D" d="M494.698,99.588c-0.539,0-0.982-0.43-0.998-0.973l-2.107-73.48c-0.016-0.552,0.42-1.013,0.974-1.028
		c0.561-0.014,1.012,0.419,1.026,0.971l2.107,73.482c0.016,0.551-0.42,1.012-0.974,1.026
		C494.72,99.588,494.71,99.588,494.698,99.588z"/>
	<path fill="#00718D" d="M496.468,30.293c-0.27,0-0.537-0.108-0.733-0.321l-3.111-3.363l-2.271,2.647
		c-0.358,0.42-0.989,0.468-1.409,0.108c-0.42-0.359-0.47-0.991-0.107-1.41l3.73-4.353l4.637,5.012
		c0.375,0.405,0.352,1.038-0.055,1.413C496.954,30.205,496.712,30.293,496.468,30.293z"/>
	<path fill="#00718D" d="M497.718,38.716c-0.227,0-0.451-0.076-0.639-0.23l-4.412-3.659l-3.355,3.461
		c-0.385,0.397-1.018,0.406-1.413,0.021c-0.396-0.385-0.406-1.018-0.021-1.414l4.645-4.789l5.839,4.841
		c0.424,0.353,0.481,0.983,0.131,1.408C498.29,38.593,498.005,38.716,497.718,38.716z"/>
	<path fill="#00718D" d="M498.53,50.529c-0.244,0-0.49-0.089-0.685-0.27l-5.168-4.841l-3.321,3.943
		c-0.354,0.421-0.986,0.477-1.408,0.121s-0.478-0.987-0.121-1.409l4.68-5.557l6.709,6.282c0.402,0.377,0.424,1.01,0.045,1.414
		C499.065,50.423,498.798,50.529,498.53,50.529z"/>
	<path fill="#00718D" d="M488.343,61.73c-0.211,0-0.424-0.066-0.604-0.203c-0.439-0.334-0.525-0.961-0.191-1.401l4.904-6.459
		l6.744,6.005c0.412,0.366,0.448,1,0.082,1.411c-0.367,0.411-1,0.448-1.412,0.082l-5.129-4.567l-3.597,4.736
		C488.942,61.596,488.644,61.73,488.343,61.73z"/>
	<path fill="#00718D" d="M498.53,72.832c-0.263,0-0.521-0.104-0.72-0.307l-4.858-5.043l-3.193,4.408
		c-0.324,0.444-0.946,0.549-1.396,0.223c-0.447-0.324-0.547-0.949-0.224-1.396l4.597-6.344l6.518,6.765
		c0.383,0.396,0.371,1.028-0.024,1.413C499.03,72.738,498.78,72.832,498.53,72.832z"/>
	<path fill="#00718D" d="M498.53,82.074c-0.263,0-0.521-0.104-0.72-0.307l-4.858-5.043l-3.193,4.407
		c-0.324,0.445-0.946,0.55-1.396,0.224c-0.447-0.324-0.547-0.949-0.224-1.396l4.597-6.342l6.518,6.764
		c0.383,0.396,0.371,1.029-0.024,1.412C499.03,81.98,498.78,82.074,498.53,82.074z"/>
	<path fill="#00718D" d="M515.948,103.695c-0.547,0-0.994-0.439-1-0.988l-0.854-67.227c-0.008-0.552,0.437-1.005,0.986-1.013
		c0.59-0.005,1.006,0.436,1.014,0.987l0.854,67.228c0.006,0.553-0.437,1.006-0.986,1.014
		C515.956,103.695,515.95,103.695,515.948,103.695z"/>
	<path fill="#00718D" d="M510.323,41.07c-0.263,0-0.523-0.102-0.722-0.306c-0.383-0.397-0.37-1.031,0.025-1.414l5.365-5.177
		l6.613,4.664c0.45,0.318,0.561,0.942,0.241,1.394c-0.319,0.451-0.942,0.559-1.395,0.241l-5.263-3.711l-4.178,4.029
		C510.823,40.977,510.573,41.07,510.323,41.07z"/>
	<path fill="#00718D" d="M520.239,51.593c-0.226,0-0.451-0.076-0.64-0.23l-4.411-3.659l-3.355,3.461
		c-0.385,0.397-1.018,0.406-1.414,0.021c-0.396-0.384-0.406-1.018-0.021-1.414l4.645-4.789l5.838,4.841
		c0.426,0.353,0.482,0.983,0.131,1.408C520.813,51.47,520.526,51.593,520.239,51.593z"/>
	<path fill="#00718D" d="M520.759,62.133c-0.211,0-0.426-0.066-0.604-0.205l-4.945-3.785l-3.361,3.609
		c-0.375,0.404-1.01,0.426-1.412,0.051c-0.403-0.377-0.428-1.01-0.051-1.414l4.599-4.938l6.387,4.888
		c0.438,0.336,0.522,0.963,0.188,1.402C521.358,61.996,521.06,62.133,520.759,62.133z"/>
	<path fill="#00718D" d="M520.759,71.883c-0.203,0-0.408-0.063-0.584-0.189l-4.987-3.61l-3.648,3.521
		c-0.396,0.386-1.029,0.371-1.414-0.024c-0.383-0.396-0.371-1.029,0.025-1.414l4.854-4.683l6.344,4.593
		c0.449,0.323,0.549,0.948,0.226,1.396C521.374,71.738,521.069,71.883,520.759,71.883z"/>
	<path fill="#00718D" d="M521.446,80.945c-0.175,0-0.353-0.047-0.513-0.144l-5.545-3.317l-4.362,3.09
		c-0.453,0.318-1.076,0.211-1.396-0.238c-0.32-0.451-0.213-1.074,0.236-1.395l5.43-3.844l6.664,3.987
		c0.473,0.283,0.627,0.897,0.344,1.371C522.118,80.771,521.786,80.945,521.446,80.945z"/>
	<path fill="#00718D" d="M521.946,91.008c-0.191,0-0.388-0.057-0.56-0.172l-5.938-4.021l-3.312,3.166
		c-0.399,0.381-1.032,0.367-1.414-0.03c-0.383-0.398-0.366-1.031,0.031-1.414l4.479-4.283l7.271,4.931
		c0.457,0.311,0.576,0.932,0.269,1.389C522.581,90.854,522.267,91.008,521.946,91.008z"/>
	<path fill="#00718D" d="M537.058,106.695c-0.547,0-0.993-0.439-1-0.988l-0.854-73.379c-0.006-0.552,0.438-1.005,0.988-1.012
		c0.547-0.021,1.006,0.436,1.012,0.988l0.854,73.379c0.007,0.553-0.438,1.004-0.987,1.012
		C537.065,106.695,537.063,106.695,537.058,106.695z"/>
	<path fill="#00718D" d="M531.136,39.237c-0.229,0-0.461-0.079-0.649-0.24c-0.418-0.359-0.47-0.99-0.107-1.41l5.736-6.704
		l7.276,6.614c0.408,0.372,0.438,1.004,0.068,1.413c-0.373,0.41-1.004,0.438-1.414,0.068l-5.752-5.228l-4.398,5.138
		C531.698,39.118,531.417,39.237,531.136,39.237z"/>
	<path fill="#00718D" d="M531.468,51.593c-0.207,0-0.416-0.064-0.598-0.198c-0.441-0.331-0.533-0.957-0.203-1.399l5.436-7.288
		l6.464,6.271c0.396,0.385,0.405,1.018,0.021,1.414c-0.385,0.397-1.018,0.406-1.414,0.021l-4.828-4.685l-4.073,5.462
		C532.073,51.454,531.771,51.593,531.468,51.593z"/>
	<path fill="#00718D" d="M542.159,61.148c-0.213,0-0.426-0.066-0.605-0.205l-4.944-3.784l-3.361,3.608
		c-0.375,0.403-1.012,0.426-1.412,0.051c-0.404-0.377-0.428-1.01-0.051-1.415l4.598-4.938l6.387,4.888
		c0.438,0.335,0.523,0.962,0.188,1.402C542.759,61.014,542.46,61.148,542.159,61.148z"/>
	<path fill="#00718D" d="M542.296,72.832c-0.203,0-0.408-0.063-0.586-0.189l-4.988-3.608l-3.646,3.521
		c-0.396,0.385-1.031,0.372-1.414-0.025c-0.385-0.396-0.373-1.029,0.025-1.414l4.852-4.682l6.346,4.592
		c0.447,0.324,0.547,0.949,0.226,1.395C542.909,72.688,542.604,72.832,542.296,72.832z"/>
	<path fill="#00718D" d="M543.011,85.82c-0.26,0-0.521-0.103-0.717-0.305l-5.508-5.67l-4.187,4.952
		c-0.354,0.423-0.985,0.478-1.407,0.117c-0.423-0.354-0.476-0.985-0.119-1.408l5.608-6.641l7.045,7.256
		c0.386,0.396,0.375,1.028-0.02,1.414C543.513,85.727,543.263,85.82,543.011,85.82z"/>
	<path fill="#00718D" d="M285.161,104.277c-0.886,0-1.761-0.027-2.634-0.084c-0.551-0.037-0.969-0.512-0.934-1.063
		c0.037-0.553,0.514-0.959,1.063-0.935c5.771,0.373,11.78-0.551,18.911-2.909c0.527-0.172,1.091,0.11,1.265,0.637
		c0.174,0.522-0.11,1.091-0.635,1.265C295.882,103.277,290.396,104.277,285.161,104.277z"/>
	<path fill="#00718D" d="M399.485,98.979c-0.238,0-0.479-0.086-0.67-0.26c-0.603-0.545-1.21-1.104-1.822-1.67
		c-7.228-6.67-15.42-14.23-33.9-14.23c-17.535,0-31.414,6.058-44.836,11.914c-2.471,1.08-4.807,2.099-7.168,3.082
		c-0.512,0.215-1.096-0.028-1.309-0.539c-0.213-0.51,0.028-1.096,0.539-1.307c2.348-0.979,4.674-1.994,7.137-3.068
		c12.977-5.661,27.684-12.082,45.637-12.082c19.265,0,28.131,8.185,35.256,14.761c0.609,0.563,1.211,1.116,1.81,1.657
		c0.408,0.369,0.438,1.003,0.069,1.412C400.03,98.867,399.759,98.979,399.485,98.979z"/>
	<path fill="#00718D" d="M415.761,106.695c-0.354,0-0.703-0.008-1.047-0.023c-0.553-0.027-0.979-0.496-0.951-1.049
		c0.025-0.551,0.488-0.982,1.047-0.949c0.313,0.014,0.63,0.021,0.951,0.021c7.976,0,14.441-2.725,19.717-5.389
		c0.494-0.25,1.097-0.052,1.345,0.438c0.25,0.494,0.051,1.096-0.439,1.346C430.896,103.861,424.155,106.695,415.761,106.695z"/>
	<path fill="#00718D" d="M444.448,96.566c-0.353,0-0.691-0.187-0.875-0.515c-0.271-0.481-0.097-1.092,0.389-1.36
		c9.693-5.4,18.742-9.871,31.299-9.871c4.869,0,9.785,1.022,15.033,3.131c0.512,0.207,0.76,0.789,0.555,1.301
		c-0.205,0.514-0.789,0.76-1.301,0.557c-5.006-2.01-9.68-2.988-14.287-2.988c-12.076,0-20.879,4.357-30.326,9.621
		C444.78,96.525,444.614,96.566,444.448,96.566z"/>
	<path fill="#00718D" d="M552.761,106.695h-23.5c-9.207,0-17.186-4.648-25.631-9.57c-1.746-1.016-3.551-2.066-5.352-3.064
		c-0.482-0.268-0.658-0.875-0.392-1.358c0.269-0.481,0.879-0.656,1.359-0.392c1.82,1.01,3.635,2.064,5.389,3.088
		c8.205,4.781,15.957,9.297,24.623,9.297h23.5c0.553,0,1,0.447,1,1C553.758,106.249,553.313,106.695,552.761,106.695z"/>
	<path fill="#00718D" d="M401.761,89.945c-0.008,0-0.018,0-0.024,0c-0.457-0.012-4.476-0.369-4.476-9.432
		c0-5.05,2.861-8.431,5.16-11.146c1.703-2.011,3.174-3.746,3.174-5.627c0-1.386-0.338-2.404-1.006-3.025
		c-0.867-0.808-2.072-0.734-2.084-0.731l-0.141,0.01l-0.146-0.028l0,0c-0.002-0.002-0.719-0.13-1.188,0.258
		c-0.451,0.373-0.545,1.143-0.545,1.725c0,0.987,0.202,1.725,0.569,2.067c0.273,0.258,0.59,0.236,0.605,0.24
		c0.541-0.025,1.024,0.363,1.076,0.9c0.051,0.539-0.318,1.02-0.854,1.086c-0.121,0.018-1.188,0.121-2.129-0.707
		c-0.844-0.744-1.27-1.951-1.27-3.588c0-1.484,0.436-2.591,1.295-3.287c1.028-0.832,2.271-0.745,2.709-0.677
		c0.5-0.018,2.131,0.05,3.434,1.244c1.107,1.016,1.67,2.535,1.67,4.515c0,2.613-1.771,4.705-3.647,6.92
		c-2.304,2.721-4.687,5.533-4.687,9.85c0,7.063,2.539,7.432,2.563,7.435c0.532,0.063,0.946,0.53,0.91,1.063
		C402.698,89.537,402.284,89.945,401.761,89.945z"/>
	<path fill="#00718D" d="M405.427,101.199c-0.172,0-0.346-0.045-0.504-0.137c-0.477-0.279-0.639-0.892-0.358-1.367
		c3.385-5.801,1.631-11.527-0.011-13.168c-1.569-1.57-3.268-5.226-2.229-7.73c0.442-1.072,1.545-2.352,4.27-2.352
		c1.898,0,3.166,0.572,3.763,1.705c1.11,2.108-0.875,5.108-1.104,5.445c-0.313,0.452-0.934,0.569-1.391,0.258
		c-0.455-0.313-0.57-0.937-0.261-1.39c0.629-0.926,1.377-2.639,0.982-3.385c-0.291-0.554-1.373-0.638-1.99-0.638
		c-1.959,0-2.309,0.843-2.422,1.117c-0.639,1.541,0.629,4.385,1.795,5.551c2.494,2.494,3.994,9.302,0.322,15.591
		C406.104,101.021,405.771,101.199,405.427,101.199z"/>
	<path fill="#00718D" d="M403.761,112.529c-2.795,0-4.893-0.705-6.229-2.096c-1.486-1.545-1.438-3.365-1.437-3.441l0.037-0.963
		h4.463v-7.111l4.353,5.412l4.282-3.066l0.339,1.457c0.047,0.201,1.123,4.959-1.129,7.795
		C407.378,111.852,405.804,112.529,403.761,112.529z M398.308,108.029c0.132,0.324,0.347,0.695,0.689,1.045
		c0.953,0.965,2.557,1.455,4.764,1.455c1.42,0,2.438-0.41,3.107-1.254c0.996-1.252,1.067-3.197,0.967-4.553l-3.262,2.336
		l-1.979-2.461v3.432H398.308z"/>
	<path fill="#00718D" d="M397.095,120.195c-2.102,0-3.811-1.709-3.811-3.81c0-2.102,1.709-3.809,3.811-3.809
		c2.101,0,3.808,1.707,3.808,3.809C400.901,118.486,399.194,120.195,397.095,120.195z M397.095,114.578
		c-0.998,0-1.811,0.813-1.811,1.809c0,0.998,0.813,1.809,1.811,1.809c0.996,0,1.808-0.811,1.808-1.809
		C398.901,115.391,398.091,114.578,397.095,114.578z"/>
	<path fill="#00718D" d="M403.005,120.695c-2.102,0-3.811-1.709-3.811-3.81c0-2.102,1.709-3.809,3.811-3.809
		c2.101,0,3.808,1.707,3.808,3.809C406.813,118.986,405.104,120.695,403.005,120.695z M403.005,115.078
		c-0.998,0-1.811,0.813-1.811,1.809c0,0.998,0.813,1.809,1.811,1.809c0.996,0,1.808-0.811,1.808-1.809
		C404.813,115.891,404.001,115.078,403.005,115.078z"/>
	<path fill="#00718D" d="M409.157,120.195c-2.101,0-3.81-1.709-3.81-3.81c0-2.102,1.707-3.809,3.81-3.809
		c2.1,0,3.809,1.707,3.809,3.809C412.966,118.486,411.257,120.195,409.157,120.195z M409.157,114.578
		c-0.998,0-1.81,0.813-1.81,1.809c0,0.998,0.812,1.809,1.81,1.809c0.996,0,1.809-0.811,1.809-1.809
		C410.966,115.391,410.155,114.578,409.157,114.578z"/>
	<path fill="#00718D" d="M384.313,117.887h-20.637l7.646-19.775l-2.881-5.313c-0.263-0.486-0.082-1.094,0.403-1.355
		c0.484-0.264,1.092-0.084,1.355,0.402l2.067,3.816l1.433-3.701c0.199-0.516,0.781-0.771,1.293-0.572
		c0.516,0.199,0.771,0.777,0.572,1.293l-2.046,5.291L384.313,117.887z M366.595,115.887h14.361l-8.381-15.465L366.595,115.887z"/>
	<path fill="#00718D" d="M372.448,117.887c-0.554,0-1-0.447-1-1V98.979h-20.228c-0.551,0-1-0.446-1-1c0-0.553,0.449-1,1-1h22.228
		v19.908C373.448,117.439,373.001,117.887,372.448,117.887z"/>
	<path fill="#00718D" d="M365.136,117.887h-22.959l10.025-25.928c0.199-0.514,0.779-0.77,1.293-0.57
		c0.516,0.197,0.771,0.777,0.572,1.293l-8.976,23.205h20.041c0.553,0,1,0.447,1,1S365.688,117.887,365.136,117.887z"/>
	<path fill="#00718D" d="M351.761,96.893c-0.354,0-0.699-0.188-0.881-0.522l-1.936-3.572c-0.265-0.483-0.084-1.094,0.401-1.354
		c0.484-0.264,1.092-0.082,1.355,0.402l1.938,3.571c0.263,0.483,0.082,1.094-0.403,1.354
		C352.085,96.854,351.921,96.893,351.761,96.893z"/>
	<path fill="#00718D" d="M362.45,109.758h-14.238l3.965-8.006c0.246-0.494,0.847-0.697,1.34-0.453
		c0.496,0.244,0.697,0.846,0.453,1.34l-2.535,5.119h9.785l3.021-6.012c0.25-0.494,0.852-0.691,1.344-0.443
		c0.494,0.248,0.691,0.85,0.443,1.342L362.45,109.758z"/>
</g>
<g opacity="0.1">
	<path fill="#00718D" d="M22.622,103.896c-0.538,0-0.982-0.428-0.999-0.971l-2.625-85.741c-0.017-0.552,0.417-1.013,0.97-1.03
		c0.01,0,0.021,0,0.031,0c0.538,0,0.982,0.428,0.999,0.969l2.625,85.741c0.017,0.553-0.417,1.014-0.97,1.031
		C22.644,103.896,22.633,103.896,22.622,103.896z"/>
	<path fill="#00718D" d="M25.874,25.343c-0.29,0-0.577-0.125-0.775-0.367l-4.984-6.099l-3.264,5.303
		c-0.289,0.47-0.904,0.616-1.377,0.328c-0.47-0.29-0.615-0.905-0.326-1.375l4.735-7.697l6.765,8.276
		c0.351,0.428,0.287,1.058-0.142,1.407C26.319,25.27,26.097,25.343,25.874,25.343z"/>
	<path fill="#00718D" d="M26.748,35.106c-0.28,0-0.56-0.118-0.758-0.348l-5.642-6.547l-4.545,6.172
		c-0.328,0.444-0.953,0.539-1.398,0.211c-0.445-0.328-0.54-0.953-0.213-1.397l6.033-8.193l7.279,8.449
		c0.36,0.418,0.313,1.05-0.105,1.411C27.212,35.026,26.979,35.106,26.748,35.106z"/>
	<path fill="#00718D" d="M26.187,48.147c-0.27,0-0.537-0.108-0.734-0.321l-4.855-5.257l-3.271,3.883
		c-0.354,0.422-0.986,0.477-1.409,0.121c-0.422-0.355-0.477-0.986-0.12-1.409l4.729-5.616l6.395,6.922
		c0.375,0.406,0.35,1.039-0.056,1.412C26.672,48.06,26.429,48.147,26.187,48.147z"/>
	<path fill="#00718D" d="M27.164,59.439c-0.229,0-0.462-0.079-0.649-0.241l-5.858-5.02l-3.349,3.767
		c-0.365,0.413-0.998,0.45-1.41,0.083c-0.414-0.367-0.45-0.999-0.084-1.412l4.652-5.234l7.35,6.297
		c0.42,0.359,0.469,0.992,0.108,1.41C27.726,59.32,27.444,59.439,27.164,59.439z"/>
	<path fill="#00718D" d="M27.206,70.23c-0.262,0-0.523-0.104-0.721-0.307l-4.954-5.143l-4.28,4.604
		c-0.377,0.404-1.01,0.426-1.413,0.051c-0.405-0.375-0.428-1.008-0.052-1.412l5.72-6.147l6.421,6.66
		c0.383,0.397,0.371,1.03-0.025,1.414C27.706,70.139,27.456,70.23,27.206,70.23z"/>
	<path fill="#00718D" d="M26.961,83.23c-0.298,0-0.592-0.133-0.789-0.385l-4.966-6.356l-4.201,4.518
		c-0.377,0.404-1.01,0.429-1.413,0.054c-0.405-0.377-0.428-1.011-0.052-1.414l5.799-6.232l6.409,8.203
		c0.34,0.436,0.263,1.064-0.173,1.404C27.394,83.161,27.177,83.23,26.961,83.23z"/>
	<path fill="#00718D" d="M52.502,84.771c-0.534,0-0.978-0.424-0.998-0.963l-3-79.625c-0.021-0.552,0.409-1.016,0.961-1.037
		c0.587-0.015,1.017,0.41,1.037,0.962l3,79.625c0.021,0.553-0.409,1.018-0.961,1.037C52.526,84.771,52.515,84.771,52.502,84.771z"/>
	<path fill="#00718D" d="M44.503,10.647c-0.24,0-0.48-0.086-0.673-0.26c-0.408-0.371-0.438-1.004-0.067-1.413l5.663-6.229
		l6.614,5.84c0.414,0.365,0.453,0.998,0.088,1.412c-0.367,0.415-0.998,0.453-1.412,0.087L49.58,5.549l-4.337,4.771
		C45.046,10.537,44.774,10.647,44.503,10.647z"/>
	<path fill="#00718D" d="M44.878,20.542c-0.252,0-0.504-0.095-0.697-0.284c-0.396-0.386-0.404-1.019-0.019-1.414l5.646-5.785
		l5.834,4.839c0.426,0.353,0.483,0.983,0.131,1.408c-0.352,0.425-0.982,0.484-1.407,0.131l-4.415-3.661l-4.355,4.465
		C45.397,20.441,45.138,20.542,44.878,20.542z"/>
	<path fill="#00718D" d="M56.649,30.363c-0.198,0-0.398-0.059-0.573-0.182l-6-4.223l-3.41,4.049
		c-0.354,0.421-0.985,0.477-1.409,0.121c-0.422-0.356-0.477-0.987-0.119-1.409l4.59-5.452l7.5,5.278
		c0.451,0.318,0.561,0.942,0.242,1.394C57.274,30.216,56.965,30.363,56.649,30.363z"/>
	<path fill="#00718D" d="M46.183,39.869c-0.235,0-0.474-0.083-0.664-0.252c-0.412-0.366-0.449-0.999-0.082-1.412l4.582-5.155
		l6.912,4.68c0.457,0.31,0.577,0.931,0.269,1.389c-0.31,0.457-0.931,0.579-1.39,0.268l-5.461-3.695l-3.418,3.845
		C46.731,39.757,46.458,39.869,46.183,39.869z"/>
	<path fill="#00718D" d="M45.659,50.796c-0.244,0-0.488-0.088-0.682-0.269c-0.404-0.376-0.428-1.009-0.051-1.414l5.648-6.073
		l6.721,5.676c0.422,0.356,0.475,0.987,0.118,1.41c-0.354,0.422-0.985,0.475-1.409,0.118l-5.264-4.446l-4.352,4.678
		C46.194,50.688,45.927,50.796,45.659,50.796z"/>
	<path fill="#00718D" d="M46.183,60.753c-0.244,0-0.488-0.088-0.681-0.268c-0.405-0.376-0.428-1.01-0.052-1.414l5.648-6.072
		l6.721,5.676c0.423,0.355,0.476,0.986,0.119,1.408c-0.354,0.422-0.984,0.478-1.41,0.119l-5.264-4.445l-4.35,4.678
		C46.718,60.646,46.45,60.753,46.183,60.753z"/>
	<path fill="#00718D" d="M76.937,97.665c-0.539,0-0.982-0.431-0.998-0.974l-2.107-73.479c-0.016-0.552,0.419-1.013,0.973-1.028
		c0.561-0.014,1.012,0.419,1.027,0.971l2.107,73.482c0.016,0.551-0.42,1.012-0.973,1.027C76.957,97.665,76.947,97.665,76.937,97.665
		z"/>
	<path fill="#00718D" d="M78.706,28.37c-0.27,0-0.537-0.108-0.734-0.321l-3.111-3.363l-2.271,2.647
		c-0.358,0.42-0.989,0.468-1.409,0.108c-0.42-0.359-0.469-0.991-0.107-1.41l3.73-4.353l4.637,5.012
		c0.375,0.405,0.352,1.038-0.055,1.413C79.192,28.282,78.949,28.37,78.706,28.37z"/>
	<path fill="#00718D" d="M79.955,36.794c-0.226,0-0.451-0.076-0.638-0.23l-4.412-3.659l-3.356,3.461
		c-0.385,0.397-1.018,0.406-1.413,0.021c-0.396-0.385-0.406-1.018-0.021-1.414l4.644-4.789l5.839,4.841
		c0.424,0.354,0.482,0.982,0.131,1.408C80.528,36.671,80.243,36.794,79.955,36.794z"/>
	<path fill="#00718D" d="M80.769,48.606c-0.244,0-0.49-0.09-0.684-0.27l-5.169-4.842l-3.321,3.943
		c-0.354,0.421-0.986,0.477-1.408,0.121s-0.478-0.987-0.121-1.409l4.68-5.558l6.708,6.283c0.403,0.377,0.424,1.01,0.046,1.413
		C81.304,48.501,81.036,48.606,80.769,48.606z"/>
	<path fill="#00718D" d="M70.58,59.808c-0.211,0-0.423-0.065-0.604-0.203c-0.439-0.334-0.525-0.961-0.191-1.401l4.904-6.459
		l6.744,6.005c0.412,0.366,0.449,1,0.082,1.411c-0.367,0.412-1,0.448-1.412,0.082l-5.129-4.567l-3.597,4.737
		C71.181,59.673,70.882,59.808,70.58,59.808z"/>
	<path fill="#00718D" d="M80.769,70.909c-0.262,0-0.522-0.104-0.72-0.308l-4.859-5.041l-3.194,4.407
		c-0.323,0.445-0.947,0.55-1.396,0.224c-0.447-0.324-0.547-0.949-0.224-1.396l4.597-6.344l6.517,6.764
		c0.384,0.396,0.372,1.029-0.025,1.414C81.269,70.814,81.019,70.909,80.769,70.909z"/>
	<path fill="#00718D" d="M80.769,80.15c-0.262,0-0.522-0.104-0.72-0.307l-4.858-5.043l-3.194,4.408
		c-0.323,0.445-0.947,0.549-1.396,0.223c-0.447-0.324-0.547-0.949-0.224-1.396l4.597-6.343l6.517,6.765
		c0.384,0.396,0.372,1.028-0.025,1.412C81.269,80.059,81.019,80.15,80.769,80.15z"/>
	<path fill="#00718D" d="M98.187,101.771c-0.547,0-0.994-0.438-1-0.987l-0.854-67.227c-0.007-0.553,0.437-1.006,0.987-1.014
		c0.59-0.005,1.006,0.437,1.013,0.987l0.854,67.228c0.006,0.553-0.437,1.006-0.987,1.014
		C98.194,101.771,98.188,101.771,98.187,101.771z"/>
	<path fill="#00718D" d="M92.562,39.147c-0.263,0-0.523-0.102-0.721-0.307c-0.384-0.396-0.371-1.031,0.025-1.414l5.365-5.176
		l6.613,4.663c0.451,0.318,0.561,0.942,0.241,1.394c-0.32,0.452-0.942,0.56-1.394,0.242l-5.262-3.711l-4.178,4.028
		C93.062,39.054,92.812,39.147,92.562,39.147z"/>
	<path fill="#00718D" d="M102.478,49.671c-0.226,0-0.451-0.076-0.639-0.23l-4.412-3.659l-3.355,3.461
		c-0.385,0.397-1.018,0.406-1.414,0.021c-0.396-0.383-0.406-1.018-0.021-1.414l4.645-4.789l5.838,4.842
		c0.425,0.354,0.482,0.982,0.131,1.408C103.05,49.548,102.765,49.671,102.478,49.671z"/>
	<path fill="#00718D" d="M102.997,60.21c-0.212,0-0.426-0.066-0.605-0.205l-4.945-3.785l-3.361,3.609
		c-0.376,0.404-1.01,0.426-1.413,0.051c-0.403-0.377-0.427-1.01-0.05-1.414l4.598-4.938l6.387,4.888
		c0.438,0.336,0.522,0.963,0.188,1.402C103.597,60.074,103.298,60.21,102.997,60.21z"/>
	<path fill="#00718D" d="M102.997,69.96c-0.203,0-0.408-0.063-0.585-0.188l-4.988-3.611l-3.647,3.521
		c-0.396,0.385-1.03,0.37-1.414-0.025c-0.383-0.396-0.371-1.029,0.025-1.414l4.854-4.682l6.344,4.592
		c0.448,0.324,0.548,0.949,0.225,1.396C103.612,69.814,103.308,69.96,102.997,69.96z"/>
	<path fill="#00718D" d="M103.685,79.021c-0.174,0-0.352-0.047-0.513-0.143l-5.544-3.318l-4.363,3.09
		c-0.453,0.318-1.076,0.211-1.396-0.237c-0.319-0.451-0.212-1.074,0.237-1.396l5.43-3.844l6.663,3.988
		c0.474,0.283,0.628,0.898,0.345,1.371C104.356,78.85,104.024,79.021,103.685,79.021z"/>
	<path fill="#00718D" d="M104.185,89.085c-0.192,0-0.388-0.058-0.56-0.172l-5.937-4.021l-3.312,3.166
		c-0.399,0.381-1.032,0.366-1.414-0.031c-0.382-0.398-0.366-1.031,0.031-1.414l4.479-4.283l7.271,4.93
		c0.458,0.311,0.577,0.932,0.269,1.389C104.819,88.932,104.505,89.085,104.185,89.085z"/>
	<path fill="#00718D" d="M119.295,104.771c-0.547,0-0.993-0.438-1-0.987l-0.854-73.379c-0.006-0.552,0.438-1.005,0.988-1.012
		c0.547-0.021,1.006,0.436,1.012,0.988l0.854,73.379c0.007,0.553-0.437,1.004-0.987,1.012
		C119.304,104.771,119.299,104.771,119.295,104.771z"/>
	<path fill="#00718D" d="M113.374,37.314c-0.23,0-0.462-0.079-0.65-0.24c-0.418-0.358-0.469-0.989-0.108-1.41l5.737-6.704
		l7.277,6.614c0.408,0.372,0.438,1.004,0.067,1.413c-0.372,0.41-1.003,0.438-1.413,0.068l-5.753-5.229l-4.397,5.139
		C113.937,37.195,113.655,37.314,113.374,37.314z"/>
	<path fill="#00718D" d="M113.706,49.671c-0.208,0-0.417-0.064-0.598-0.199c-0.442-0.33-0.533-0.957-0.203-1.398l5.436-7.288
		l6.463,6.271c0.396,0.386,0.406,1.019,0.021,1.414c-0.385,0.397-1.018,0.406-1.414,0.021l-4.828-4.686l-4.074,5.463
		C114.312,49.531,114.011,49.671,113.706,49.671z"/>
	<path fill="#00718D" d="M124.397,59.226c-0.213,0-0.426-0.066-0.606-0.205l-4.944-3.784l-3.361,3.608
		c-0.375,0.404-1.012,0.427-1.413,0.051c-0.404-0.377-0.427-1.01-0.05-1.414l4.598-4.938l6.387,4.887
		c0.438,0.336,0.522,0.963,0.188,1.402C124.996,59.091,124.698,59.226,124.397,59.226z"/>
	<path fill="#00718D" d="M124.533,70.909c-0.203,0-0.408-0.063-0.585-0.188l-4.988-3.609l-3.646,3.52
		c-0.397,0.385-1.031,0.373-1.414-0.025c-0.385-0.396-0.373-1.028,0.024-1.414l4.853-4.682l6.345,4.592
		c0.448,0.324,0.548,0.949,0.226,1.396C125.147,70.766,124.843,70.909,124.533,70.909z"/>
	<path fill="#00718D" d="M125.249,83.896c-0.261,0-0.521-0.102-0.718-0.305l-5.507-5.67l-4.186,4.953
		c-0.354,0.422-0.986,0.477-1.408,0.117c-0.422-0.355-0.476-0.986-0.119-1.408l5.608-6.641l7.046,7.256
		c0.385,0.396,0.375,1.029-0.021,1.414C125.751,83.805,125.5,83.896,125.249,83.896z"/>
	<path fill="#00718D" d="M-2.002,104.771c-0.354,0-0.703-0.008-1.046-0.022c-0.552-0.026-0.978-0.496-0.951-1.049
		c0.025-0.552,0.488-0.982,1.047-0.949c0.312,0.015,0.629,0.021,0.95,0.021c7.976,0,14.442-2.725,19.718-5.389
		c0.493-0.25,1.096-0.051,1.344,0.439c0.25,0.494,0.051,1.096-0.44,1.346C13.133,101.938,6.394,104.771-2.002,104.771z"/>
	<path fill="#00718D" d="M26.687,94.645c-0.353,0-0.691-0.187-0.875-0.515c-0.27-0.481-0.096-1.092,0.388-1.36
		c9.694-5.4,18.743-9.871,31.299-9.871c4.869,0,9.786,1.022,15.033,3.131c0.512,0.207,0.761,0.789,0.555,1.301
		c-0.205,0.514-0.788,0.76-1.301,0.557c-5.005-2.01-9.679-2.988-14.287-2.988c-12.075,0-20.878,4.357-30.326,9.621
		C27.019,94.604,26.853,94.645,26.687,94.645z"/>
	<path fill="#00718D" d="M134.998,104.771h-23.5c-9.207,0-17.185-4.647-25.631-9.569c-1.745-1.017-3.55-2.066-5.351-3.063
		c-0.482-0.269-0.658-0.875-0.391-1.359c0.268-0.482,0.878-0.656,1.359-0.391c1.82,1.01,3.634,2.063,5.388,3.088
		c8.206,4.78,15.957,9.297,24.624,9.297h23.5c0.553,0,1,0.447,1,1S135.551,104.771,134.998,104.771z"/>
</g>
</svg>
