<?xml version="1.0" encoding="utf-8"?>
<!-- Generator: Adobe Illustrator 15.0.0, SVG Export Plug-In . SVG Version: 6.00 Build 0)  -->
<!DOCTYPE svg PUBLIC "-//W3C//DTD SVG 1.1//EN" "http://www.w3.org/Graphics/SVG/1.1/DTD/svg11.dtd">
<svg version="1.1" id="Layer_1" xmlns="http://www.w3.org/2000/svg" xmlns:xlink="http://www.w3.org/1999/xlink" x="0px" y="0px"
	 width="280px" height="120px" viewBox="0 0 280 120" enable-background="new 0 0 280 120" xml:space="preserve">
<g opacity="0.1">
	<path fill="#FFFFFF" d="M28.583,108.388c-0.552,0-1-0.447-1-1v-68.25c0-0.552,0.448-1,1-1s1,0.448,1,1v68.25
		C29.583,107.941,29.135,108.388,28.583,108.388z"/>
	<path fill="#FFFFFF" d="M33.708,46.638c-0.295,0-0.588-0.13-0.786-0.381l-4.394-5.573l-4.206,4.626
		c-0.371,0.407-1.003,0.439-1.413,0.067c-0.409-0.371-0.438-1.004-0.067-1.413l5.794-6.374l5.856,7.427
		c0.342,0.434,0.268,1.063-0.166,1.404C34.144,46.568,33.925,46.638,33.708,46.638z"/>
	<path fill="#FFFFFF" d="M23.583,56.013c-0.252,0-0.504-0.095-0.698-0.284c-0.396-0.386-0.403-1.019-0.018-1.414l5.644-5.785
		l5.835,4.839c0.425,0.353,0.484,0.983,0.131,1.408c-0.353,0.427-0.982,0.484-1.408,0.131l-4.415-3.661l-4.356,4.465
		C24.103,55.912,23.843,56.013,23.583,56.013z"/>
	<path fill="#FFFFFF" d="M35.332,65.013c-0.199,0-0.399-0.059-0.575-0.183l-6-4.222l-3.409,4.049
		c-0.357,0.422-0.988,0.476-1.409,0.12c-0.422-0.355-0.477-0.986-0.121-1.409l4.591-5.451l7.5,5.278
		c0.452,0.317,0.56,0.941,0.242,1.393C35.956,64.866,35.646,65.013,35.332,65.013z"/>
	<path fill="#FFFFFF" d="M24.583,75.763c-0.236,0-0.473-0.083-0.664-0.253c-0.413-0.366-0.45-0.999-0.083-1.411l4.595-5.169
		l5.855,4.142c0.451,0.319,0.558,0.943,0.239,1.394c-0.319,0.451-0.942,0.558-1.394,0.239l-4.395-3.108l-3.405,3.831
		C25.133,75.65,24.858,75.763,24.583,75.763z"/>
	<path fill="#FFFFFF" d="M23.583,85.513c-0.244,0-0.488-0.089-0.681-0.268c-0.404-0.376-0.427-1.009-0.051-1.413l5.615-6.036
		l5.845,4.419c0.44,0.333,0.528,0.96,0.195,1.401c-0.334,0.44-0.962,0.527-1.401,0.194L28.7,80.48l-4.385,4.714
		C24.118,85.406,23.851,85.513,23.583,85.513z"/>
	<path fill="#FFFFFF" d="M50.521,87.263c-0.552,0-1-0.447-1-1V14.888c0-0.552,0.448-1,1-1s1,0.448,1,1v71.375
		C51.521,86.816,51.073,87.263,50.521,87.263z"/>
	<path fill="#FFFFFF" d="M45.52,21.388c-0.24,0-0.48-0.086-0.672-0.26c-0.409-0.371-0.438-1.004-0.067-1.413l5.663-6.229l6.614,5.84
		c0.414,0.365,0.453,0.998,0.087,1.412c-0.365,0.414-0.996,0.454-1.412,0.087l-5.136-4.535l-4.337,4.771
		C46.063,21.278,45.792,21.388,45.52,21.388z"/>
	<path fill="#FFFFFF" d="M45.521,32.522c-0.252,0-0.504-0.095-0.698-0.284c-0.396-0.386-0.403-1.019-0.018-1.414l5.644-5.785
		l5.835,4.839c0.425,0.353,0.484,0.983,0.131,1.408c-0.352,0.427-0.982,0.484-1.408,0.131l-4.415-3.661l-4.356,4.465
		C46.041,32.421,45.78,32.522,45.521,32.522z"/>
	<path fill="#FFFFFF" d="M57.27,42.513c-0.199,0-0.399-0.059-0.575-0.182l-6-4.223l-3.409,4.049
		c-0.357,0.422-0.987,0.476-1.409,0.121c-0.422-0.356-0.477-0.987-0.121-1.409l4.591-5.452l7.5,5.278
		c0.452,0.318,0.56,0.942,0.242,1.394C57.894,42.365,57.584,42.513,57.27,42.513z"/>
	<path fill="#FFFFFF" d="M46.52,53.763c-0.236,0-0.473-0.083-0.664-0.252c-0.413-0.367-0.45-0.999-0.083-1.412l4.583-5.155
		l6.913,4.679c0.458,0.31,0.577,0.931,0.268,1.389s-0.931,0.577-1.389,0.268l-5.462-3.696l-3.417,3.845
		C47.07,53.65,46.796,53.763,46.52,53.763z"/>
	<path fill="#FFFFFF" d="M56.708,65.013c-0.262,0-0.524-0.103-0.72-0.306l-4.955-5.142l-4.281,4.601
		c-0.377,0.406-1.008,0.426-1.413,0.052c-0.404-0.376-0.427-1.009-0.051-1.413l5.719-6.148l6.42,6.662
		c0.383,0.398,0.372,1.031-0.026,1.414C57.208,64.92,56.958,65.013,56.708,65.013z"/>
	<path fill="#FFFFFF" d="M94.239,42.451c-5.979,0-10.844-4.864-10.844-10.844s4.864-10.844,10.844-10.844
		c4.239,0,8.114,2.493,9.872,6.351c0.223,0.49,0.018,1.07-0.465,1.31c-0.417,0.209-0.928,0.1-1.223-0.264
		c-1.044-1.285-2.592-2.022-4.247-2.022c-3.016,0-5.469,2.453-5.469,5.469s2.453,5.469,5.469,5.469c1.654,0,3.202-0.737,4.247-2.022
		c0.245-0.302,0.643-0.436,1.02-0.339c0.288,0.072,0.53,0.269,0.658,0.536c0.129,0.268,0.133,0.579,0.01,0.849
		C102.353,39.958,98.478,42.451,94.239,42.451z M94.239,22.763c-4.876,0-8.844,3.967-8.844,8.844s3.967,8.844,8.844,8.844
		c1.738,0,3.402-0.514,4.808-1.425c-0.287,0.033-0.578,0.05-0.871,0.05c-4.118,0-7.469-3.351-7.469-7.469s3.351-7.469,7.469-7.469
		c0.293,0,0.584,0.017,0.871,0.05C97.641,23.277,95.978,22.763,94.239,22.763z"/>
	<path fill="#FFFFFF" d="M162.707,103.138c-0.538,0-0.982-0.428-0.999-0.97l-2.625-85.741c-0.017-0.552,0.417-1.013,0.97-1.03
		c0.01,0,0.021,0,0.031,0c0.538,0,0.982,0.428,0.999,0.969l2.625,85.742c0.017,0.552-0.417,1.013-0.97,1.03
		C162.729,103.138,162.718,103.138,162.707,103.138z"/>
	<path fill="#FFFFFF" d="M165.959,24.584c-0.29,0-0.577-0.125-0.775-0.367l-4.985-6.099l-3.264,5.303
		c-0.289,0.47-0.904,0.616-1.376,0.328c-0.47-0.29-0.616-0.905-0.327-1.375l4.736-7.697l6.765,8.276
		c0.35,0.428,0.286,1.058-0.142,1.407C166.405,24.511,166.181,24.584,165.959,24.584z"/>
	<path fill="#FFFFFF" d="M166.833,34.347c-0.28,0-0.56-0.118-0.758-0.347l-5.642-6.548l-4.545,6.172
		c-0.328,0.445-0.953,0.54-1.398,0.212s-0.54-0.954-0.213-1.398l6.033-8.193l7.28,8.449c0.36,0.418,0.313,1.05-0.105,1.411
		C167.297,34.267,167.064,34.347,166.833,34.347z"/>
	<path fill="#FFFFFF" d="M166.271,47.388c-0.269,0-0.537-0.108-0.734-0.321l-4.856-5.257l-3.27,3.883
		c-0.354,0.421-0.986,0.477-1.409,0.121c-0.422-0.356-0.477-0.987-0.12-1.409l4.73-5.617l6.394,6.922
		c0.375,0.406,0.35,1.039-0.056,1.413C166.757,47.3,166.514,47.388,166.271,47.388z"/>
	<path fill="#FFFFFF" d="M167.249,58.68c-0.23,0-0.462-0.079-0.65-0.241l-5.858-5.019l-3.348,3.766
		c-0.366,0.413-0.999,0.45-1.411,0.083c-0.413-0.367-0.45-0.999-0.083-1.412l4.652-5.234l7.349,6.297
		c0.42,0.359,0.469,0.991,0.109,1.41C167.811,58.561,167.53,58.68,167.249,58.68z"/>
	<path fill="#FFFFFF" d="M167.291,69.472c-0.262,0-0.523-0.103-0.72-0.306l-4.955-5.142l-4.28,4.602
		c-0.377,0.405-1.01,0.427-1.413,0.052c-0.405-0.376-0.428-1.009-0.052-1.413l5.72-6.148l6.42,6.661
		c0.384,0.398,0.372,1.031-0.025,1.414C167.791,69.379,167.541,69.472,167.291,69.472z"/>
	<path fill="#FFFFFF" d="M167.046,82.472c-0.298,0-0.592-0.132-0.789-0.385l-4.966-6.356l-4.201,4.517
		c-0.377,0.404-1.01,0.427-1.413,0.052c-0.405-0.376-0.428-1.009-0.052-1.413l5.799-6.233l6.409,8.204
		c0.34,0.435,0.263,1.063-0.173,1.403C167.478,82.403,167.261,82.472,167.046,82.472z"/>
	<path fill="#FFFFFF" d="M192.587,84.013c-0.534,0-0.978-0.423-0.998-0.962l-3-79.625c-0.021-0.552,0.409-1.016,0.961-1.037
		c0.587-0.015,1.017,0.41,1.037,0.962l3,79.625c0.021,0.553-0.409,1.017-0.961,1.037C192.612,84.013,192.6,84.013,192.587,84.013z"
		/>
	<path fill="#FFFFFF" d="M184.588,9.888c-0.24,0-0.481-0.086-0.673-0.26c-0.408-0.371-0.438-1.004-0.067-1.413l5.663-6.229
		l6.614,5.84c0.414,0.365,0.453,0.998,0.088,1.412c-0.367,0.415-0.998,0.453-1.412,0.087l-5.136-4.535l-4.337,4.771
		C185.131,9.778,184.859,9.888,184.588,9.888z"/>
	<path fill="#FFFFFF" d="M184.963,19.783c-0.252,0-0.504-0.095-0.698-0.284c-0.396-0.386-0.403-1.019-0.018-1.414l5.645-5.785
		l5.835,4.839c0.425,0.353,0.483,0.983,0.131,1.408c-0.352,0.425-0.983,0.484-1.408,0.131l-4.415-3.661l-4.355,4.465
		C185.482,19.682,185.223,19.783,184.963,19.783z"/>
	<path fill="#FFFFFF" d="M196.735,29.604c-0.199,0-0.399-0.059-0.574-0.182l-6-4.223l-3.41,4.049
		c-0.354,0.421-0.986,0.477-1.409,0.121c-0.422-0.356-0.477-0.987-0.12-1.409l4.59-5.452l7.5,5.278
		c0.452,0.318,0.561,0.942,0.242,1.394C197.359,29.457,197.05,29.604,196.735,29.604z"/>
	<path fill="#FFFFFF" d="M186.268,39.11c-0.236,0-0.474-0.083-0.664-0.252c-0.413-0.367-0.45-0.999-0.083-1.412l4.582-5.155
		l6.913,4.679c0.457,0.31,0.577,0.931,0.268,1.389c-0.31,0.457-0.93,0.579-1.389,0.268l-5.462-3.696l-3.418,3.845
		C186.817,38.997,186.543,39.11,186.268,39.11z"/>
	<path fill="#FFFFFF" d="M185.744,50.036c-0.244,0-0.488-0.088-0.681-0.268c-0.405-0.376-0.428-1.009-0.052-1.414l5.649-6.073
		l6.721,5.676c0.422,0.356,0.475,0.987,0.118,1.409c-0.354,0.422-0.985,0.476-1.409,0.119l-5.264-4.446l-4.351,4.677
		C186.279,49.929,186.012,50.036,185.744,50.036z"/>
	<path fill="#FFFFFF" d="M186.268,59.994c-0.244,0-0.488-0.088-0.681-0.268c-0.405-0.376-0.428-1.009-0.052-1.414l5.649-6.073
		l6.721,5.676c0.422,0.356,0.475,0.987,0.118,1.409c-0.354,0.421-0.984,0.476-1.409,0.119l-5.264-4.446L187,59.675
		C186.803,59.887,186.535,59.994,186.268,59.994z"/>
	<path fill="#FFFFFF" d="M217.022,96.906c-0.539,0-0.983-0.429-0.999-0.972l-2.107-73.481c-0.016-0.552,0.419-1.013,0.972-1.028
		c0.561-0.014,1.013,0.419,1.028,0.971l2.107,73.482c0.016,0.552-0.419,1.012-0.972,1.028
		C217.042,96.906,217.032,96.906,217.022,96.906z"/>
	<path fill="#FFFFFF" d="M218.791,27.611c-0.269,0-0.537-0.108-0.734-0.321l-3.112-3.363l-2.27,2.647
		c-0.358,0.42-0.989,0.468-1.409,0.108c-0.42-0.359-0.469-0.991-0.108-1.41l3.73-4.353l4.638,5.012
		c0.375,0.405,0.351,1.038-0.056,1.413C219.277,27.523,219.034,27.611,218.791,27.611z"/>
	<path fill="#FFFFFF" d="M220.04,36.034c-0.225,0-0.451-0.076-0.638-0.23l-4.412-3.659l-3.356,3.461
		c-0.385,0.397-1.018,0.406-1.414,0.021s-0.406-1.018-0.021-1.414l4.644-4.789l5.838,4.841c0.425,0.353,0.483,0.983,0.131,1.408
		C220.613,35.911,220.328,36.034,220.04,36.034z"/>
	<path fill="#FFFFFF" d="M220.854,47.847c-0.245,0-0.49-0.089-0.684-0.27l-5.169-4.841l-3.321,3.943
		c-0.354,0.421-0.986,0.477-1.409,0.121c-0.422-0.356-0.477-0.987-0.12-1.409l4.679-5.557l6.708,6.282
		c0.403,0.377,0.424,1.01,0.046,1.414C221.388,47.741,221.121,47.847,220.854,47.847z"/>
	<path fill="#FFFFFF" d="M210.665,59.049c-0.211,0-0.423-0.066-0.604-0.204c-0.44-0.334-0.526-0.961-0.192-1.401l4.904-6.459
		l6.745,6.004c0.412,0.367,0.449,1,0.082,1.412c-0.368,0.412-1.001,0.448-1.412,0.082l-5.13-4.567l-3.596,4.737
		C211.266,58.913,210.967,59.049,210.665,59.049z"/>
	<path fill="#FFFFFF" d="M220.854,70.15c-0.262,0-0.523-0.103-0.72-0.306l-4.859-5.043l-3.194,4.408
		c-0.323,0.446-0.947,0.548-1.396,0.223c-0.447-0.324-0.547-0.949-0.223-1.396l4.597-6.342l6.516,6.762
		c0.384,0.398,0.372,1.031-0.025,1.414C221.354,70.057,221.104,70.15,220.854,70.15z"/>
	<path fill="#FFFFFF" d="M220.854,79.392c-0.262,0-0.523-0.103-0.72-0.306l-4.859-5.043l-3.194,4.408
		c-0.323,0.446-0.947,0.548-1.396,0.223c-0.447-0.324-0.547-0.949-0.223-1.396l4.597-6.342l6.516,6.762
		c0.384,0.398,0.372,1.031-0.025,1.414C221.354,79.299,221.104,79.392,220.854,79.392z"/>
	<path fill="#FFFFFF" d="M238.271,101.013c-0.547,0-0.993-0.439-1-0.987l-0.854-67.228c-0.007-0.552,0.436-1.005,0.987-1.013
		c0.59-0.005,1.006,0.436,1.013,0.987L239.271,100c0.007,0.552-0.436,1.006-0.987,1.013
		C238.279,101.013,238.274,101.013,238.271,101.013z"/>
	<path fill="#FFFFFF" d="M232.646,38.388c-0.262,0-0.523-0.102-0.72-0.306c-0.384-0.397-0.372-1.031,0.025-1.414l5.366-5.177
		l6.613,4.664c0.451,0.318,0.56,0.942,0.241,1.394c-0.319,0.451-0.942,0.559-1.394,0.241l-5.262-3.711l-4.177,4.029
		C233.146,38.295,232.896,38.388,232.646,38.388z"/>
	<path fill="#FFFFFF" d="M242.562,48.911c-0.225,0-0.451-0.076-0.638-0.23l-4.412-3.659l-3.356,3.461
		c-0.385,0.397-1.018,0.406-1.414,0.021c-0.396-0.384-0.406-1.018-0.021-1.414l4.644-4.789l5.838,4.841
		c0.425,0.353,0.483,0.983,0.131,1.408C243.135,48.788,242.85,48.911,242.562,48.911z"/>
	<path fill="#FFFFFF" d="M243.082,59.451c-0.212,0-0.426-0.067-0.606-0.206l-4.945-3.784l-3.361,3.609
		c-0.376,0.404-1.01,0.426-1.413,0.05c-0.404-0.376-0.427-1.009-0.05-1.414l4.598-4.938l6.387,4.888
		c0.438,0.335,0.522,0.963,0.187,1.402C243.681,59.315,243.383,59.451,243.082,59.451z"/>
	<path fill="#FFFFFF" d="M243.082,69.201c-0.203,0-0.408-0.062-0.585-0.19l-4.988-3.61l-3.647,3.521
		c-0.397,0.384-1.031,0.371-1.414-0.025c-0.384-0.397-0.372-1.03,0.025-1.414l4.853-4.683l6.344,4.593
		c0.448,0.323,0.548,0.948,0.224,1.396C243.697,69.057,243.392,69.201,243.082,69.201z"/>
	<path fill="#FFFFFF" d="M243.77,78.263c-0.175,0-0.352-0.046-0.513-0.142l-5.544-3.319l-4.364,3.09
		c-0.452,0.319-1.075,0.212-1.395-0.238c-0.319-0.451-0.212-1.075,0.238-1.395l5.429-3.844l6.663,3.989
		c0.474,0.284,0.628,0.898,0.345,1.372C244.441,78.089,244.109,78.263,243.77,78.263z"/>
	<path fill="#FFFFFF" d="M244.27,88.326c-0.193,0-0.388-0.056-0.56-0.172l-5.936-4.021l-3.312,3.166
		c-0.4,0.381-1.033,0.367-1.414-0.031c-0.382-0.399-0.367-1.032,0.031-1.414l4.479-4.283l7.271,4.928
		c0.458,0.311,0.577,0.932,0.268,1.389C244.905,88.172,244.59,88.326,244.27,88.326z"/>
	<path fill="#FFFFFF" d="M259.38,104.013c-0.547,0-0.993-0.44-1-0.988l-0.854-73.379c-0.007-0.552,0.437-1.005,0.988-1.012
		c0.547-0.021,1.005,0.436,1.012,0.988l0.854,73.379c0.007,0.553-0.437,1.005-0.988,1.012
		C259.388,104.013,259.384,104.013,259.38,104.013z"/>
	<path fill="#FFFFFF" d="M253.459,36.555c-0.23,0-0.462-0.079-0.65-0.24c-0.419-0.359-0.469-0.99-0.109-1.41l5.737-6.704
		l7.278,6.614c0.408,0.372,0.438,1.004,0.067,1.413c-0.372,0.41-1.003,0.438-1.413,0.068l-5.753-5.228l-4.397,5.138
		C254.021,36.436,253.74,36.555,253.459,36.555z"/>
	<path fill="#FFFFFF" d="M253.791,48.911c-0.208,0-0.417-0.064-0.597-0.198c-0.443-0.331-0.534-0.957-0.204-1.399l5.436-7.288
		l6.463,6.271c0.396,0.385,0.406,1.018,0.021,1.414c-0.385,0.397-1.018,0.406-1.414,0.021l-4.828-4.685l-4.074,5.462
		C254.397,48.772,254.096,48.911,253.791,48.911z"/>
	<path fill="#FFFFFF" d="M264.482,58.467c-0.212,0-0.426-0.067-0.606-0.206l-4.945-3.784l-3.361,3.609
		c-0.375,0.404-1.011,0.426-1.413,0.05c-0.404-0.376-0.427-1.009-0.05-1.414l4.598-4.938l6.387,4.888
		c0.438,0.335,0.522,0.963,0.187,1.402C265.081,58.332,264.783,58.467,264.482,58.467z"/>
	<path fill="#FFFFFF" d="M264.618,70.15c-0.203,0-0.408-0.062-0.585-0.189l-4.988-3.61l-3.647,3.52
		c-0.397,0.384-1.031,0.372-1.414-0.025c-0.384-0.397-0.372-1.03,0.025-1.414l4.853-4.682l6.344,4.591
		c0.448,0.324,0.548,0.949,0.225,1.396C265.233,70.006,264.928,70.15,264.618,70.15z"/>
	<path fill="#FFFFFF" d="M265.334,83.138c-0.261,0-0.521-0.102-0.718-0.304l-5.507-5.671l-4.185,4.954
		c-0.354,0.421-0.986,0.477-1.409,0.118c-0.422-0.356-0.475-0.987-0.118-1.409l5.608-6.64l7.046,7.255
		c0.385,0.396,0.375,1.029-0.021,1.414C265.836,83.044,265.585,83.138,265.334,83.138z"/>
	<path fill="#FFFFFF" d="M7.484,101.596c-0.884,0-1.76-0.028-2.632-0.085C4.3,101.475,3.883,101,3.918,100.449
		c0.036-0.552,0.513-0.959,1.063-0.934c5.77,0.374,11.781-0.55,18.911-2.909c0.527-0.172,1.09,0.111,1.264,0.635
		c0.174,0.524-0.111,1.09-0.635,1.264C18.205,100.595,12.718,101.596,7.484,101.596z"/>
	<path fill="#FFFFFF" d="M121.809,96.296c-0.239,0-0.479-0.085-0.671-0.259c-0.602-0.545-1.208-1.104-1.822-1.671
		c-7.227-6.669-15.419-14.229-33.9-14.229c-17.536,0-31.415,6.057-44.836,11.914c-2.471,1.079-4.806,2.098-7.169,3.081
		c-0.51,0.216-1.095-0.028-1.308-0.539c-0.212-0.51,0.029-1.095,0.539-1.307c2.348-0.978,4.675-1.993,7.138-3.068
		c12.976-5.662,27.682-12.081,45.636-12.081c19.263,0,28.131,8.184,35.256,14.759c0.609,0.563,1.21,1.117,1.808,1.658
		c0.409,0.37,0.44,1.003,0.07,1.412C122.354,96.185,122.082,96.296,121.809,96.296z"/>
	<path fill="#FFFFFF" d="M138.083,104.013c-0.354,0-0.703-0.008-1.046-0.024c-0.552-0.026-0.978-0.495-0.951-1.047
		c0.025-0.552,0.488-0.984,1.047-0.951c0.312,0.015,0.629,0.022,0.95,0.022c7.976,0,14.443-2.724,19.718-5.389
		c0.493-0.25,1.096-0.051,1.344,0.441c0.249,0.493,0.051,1.095-0.441,1.344C153.218,101.18,146.479,104.013,138.083,104.013z"/>
	<path fill="#FFFFFF" d="M166.771,93.884c-0.352,0-0.691-0.185-0.875-0.514c-0.269-0.482-0.095-1.091,0.388-1.36
		c9.695-5.401,18.743-9.872,31.299-9.872c4.869,0,9.786,1.024,15.033,3.132c0.512,0.206,0.761,0.788,0.555,1.301
		c-0.205,0.512-0.788,0.759-1.301,0.555c-5.005-2.01-9.679-2.987-14.287-2.987c-12.075,0-20.878,4.356-30.326,9.62
		C167.104,93.843,166.937,93.884,166.771,93.884z"/>
	<path fill="#FFFFFF" d="M275.083,104.013h-23.5c-9.207,0-17.185-4.648-25.631-9.569c-1.745-1.017-3.549-2.068-5.35-3.065
		c-0.483-0.268-0.658-0.876-0.391-1.359c0.268-0.484,0.878-0.657,1.359-0.391c1.82,1.009,3.634,2.065,5.388,3.087
		c8.206,4.781,15.957,9.298,24.624,9.298h23.5c0.553,0,1,0.447,1,1S275.636,104.013,275.083,104.013z"/>
	<path fill="#FFFFFF" d="M124.083,87.263c-0.008,0-0.016,0-0.024,0c-0.458-0.012-4.476-0.369-4.476-9.432
		c0-5.049,2.862-8.428,5.161-11.143c1.703-2.01,3.173-3.746,3.173-5.627c0-1.386-0.338-2.405-1.006-3.027
		c-0.866-0.807-2.071-0.733-2.083-0.731l-0.141,0.01l-0.146-0.029l0,0c-0.002-0.001-0.719-0.129-1.187,0.258
		c-0.451,0.373-0.545,1.144-0.545,1.725c0,0.989,0.203,1.724,0.57,2.069c0.274,0.258,0.59,0.236,0.605,0.239
		c0.541-0.024,1.025,0.364,1.076,0.902c0.051,0.538-0.318,1.018-0.854,1.085c-0.121,0.018-1.189,0.122-2.129-0.707
		c-0.842-0.743-1.269-1.95-1.269-3.588c0-1.485,0.436-2.591,1.296-3.287c1.029-0.832,2.271-0.745,2.708-0.677
		c0.5-0.018,2.132,0.05,3.434,1.244c1.108,1.016,1.669,2.535,1.669,4.515c0,2.613-1.771,4.705-3.647,6.92
		c-2.304,2.721-4.687,5.534-4.687,9.85c0,7.063,2.539,7.431,2.564,7.434c0.532,0.061,0.946,0.53,0.91,1.064
		C125.021,86.855,124.607,87.263,124.083,87.263z"/>
	<path fill="#FFFFFF" d="M127.749,98.517c-0.171,0-0.345-0.044-0.503-0.137c-0.477-0.278-0.638-0.891-0.36-1.367
		c3.385-5.8,1.631-11.526-0.01-13.168c-1.569-1.569-3.266-5.225-2.228-7.73c0.444-1.072,1.546-2.352,4.269-2.352
		c1.9,0,3.166,0.573,3.762,1.705c1.111,2.11-0.874,5.11-1.104,5.445c-0.312,0.453-0.933,0.572-1.389,0.258
		c-0.455-0.312-0.571-0.934-0.261-1.389c0.63-0.924,1.378-2.638,0.983-3.384c-0.292-0.553-1.373-0.636-1.991-0.636
		c-1.958,0-2.307,0.841-2.421,1.117c-0.638,1.541,0.629,4.385,1.794,5.551c2.495,2.494,3.995,9.3,0.324,15.59
		C128.428,98.339,128.093,98.517,127.749,98.517z"/>
	<path fill="#FFFFFF" d="M126.083,109.847c-2.794,0-4.891-0.705-6.23-2.096c-1.487-1.544-1.438-3.364-1.435-3.441l0.036-0.963h4.463
		v-7.111l4.353,5.413l4.282-3.068l0.339,1.458c0.047,0.201,1.122,4.959-1.129,7.795
		C129.701,109.169,128.126,109.847,126.083,109.847z M120.63,105.347c0.132,0.325,0.346,0.695,0.691,1.045
		c0.953,0.966,2.555,1.455,4.762,1.455c1.42,0,2.438-0.41,3.109-1.254c0.996-1.251,1.067-3.196,0.965-4.553l-3.261,2.337
		l-1.979-2.462v3.432H120.63z"/>
	<path fill="#FFFFFF" d="M119.417,117.513c-2.1,0-3.809-1.709-3.809-3.809s1.708-3.808,3.809-3.808c2.1,0,3.808,1.708,3.808,3.808
		S121.517,117.513,119.417,117.513z M119.417,111.897c-0.997,0-1.809,0.811-1.809,1.808s0.812,1.809,1.809,1.809
		c0.997,0,1.808-0.812,1.808-1.809S120.414,111.897,119.417,111.897z"/>
	<path fill="#FFFFFF" d="M125.327,118.013c-2.1,0-3.809-1.709-3.809-3.809s1.708-3.808,3.809-3.808c2.1,0,3.808,1.708,3.808,3.808
		S127.427,118.013,125.327,118.013z M125.327,112.397c-0.997,0-1.809,0.811-1.809,1.808s0.812,1.809,1.809,1.809
		c0.997,0,1.808-0.812,1.808-1.809S126.324,112.397,125.327,112.397z"/>
	<path fill="#FFFFFF" d="M131.48,117.513c-2.1,0-3.809-1.709-3.809-3.809s1.708-3.808,3.809-3.808c2.1,0,3.808,1.708,3.808,3.808
		S133.58,117.513,131.48,117.513z M131.48,111.897c-0.997,0-1.809,0.811-1.809,1.808s0.812,1.809,1.809,1.809
		s1.808-0.812,1.808-1.809S132.478,111.897,131.48,111.897z"/>
	<path fill="#FFFFFF" d="M106.637,115.205H85.999l7.647-19.775l-2.88-5.314c-0.263-0.485-0.083-1.093,0.403-1.355
		c0.486-0.264,1.093-0.083,1.356,0.402l2.069,3.818l1.432-3.702c0.199-0.515,0.78-0.771,1.293-0.572
		c0.515,0.199,0.771,0.778,0.572,1.293l-2.045,5.29L106.637,115.205z M88.917,113.205h14.362l-8.381-15.466L88.917,113.205z"/>
	<path fill="#FFFFFF" d="M94.771,115.205c-0.552,0-1-0.447-1-1V96.296H73.545c-0.552,0-1-0.447-1-1s0.448-1,1-1h22.226v19.908
		C95.771,114.757,95.323,115.205,94.771,115.205z"/>
	<path fill="#FFFFFF" d="M87.458,115.205H64.499l10.026-25.927c0.199-0.515,0.779-0.771,1.293-0.572
		c0.515,0.199,0.771,0.778,0.572,1.293l-8.974,23.206h20.041c0.552,0,1,0.447,1,1S88.01,115.205,87.458,115.205z"/>
	<path fill="#FFFFFF" d="M74.083,94.21c-0.355,0-0.699-0.189-0.88-0.523l-1.936-3.572c-0.263-0.485-0.083-1.093,0.403-1.355
		c0.484-0.264,1.092-0.083,1.356,0.402l1.936,3.572c0.263,0.485,0.083,1.093-0.403,1.355C74.407,94.171,74.243,94.21,74.083,94.21z"
		/>
	<path fill="#FFFFFF" d="M84.774,107.076h-14.24L74.5,99.07c0.245-0.495,0.845-0.697,1.34-0.453c0.495,0.245,0.697,0.846,0.452,1.34
		l-2.535,5.119h9.785l3.023-6.012c0.249-0.494,0.85-0.692,1.343-0.444c0.494,0.248,0.692,0.85,0.444,1.343L84.774,107.076z"/>
</g>
</svg>
